M48
;Layer_Color=9474304
;FILE_FORMAT=4:4
METRIC,TZ
;TYPE=PLATED
T1F00S00C0.2540
T2F00S00C0.3810
T3F00S00C0.5001
T4F00S00C0.5999
T5F00S00C0.7000
T6F00S00C0.8890
T7F00S00C0.9000
T8F00S00C0.9500
T9F00S00C1.0000
T10F00S00C1.0160
T11F00S00C1.3970
T12F00S00C1.4986
T13F00S00C2.1999
;TYPE=NON_PLATED
T14F00S00C3.0000
%
T01
X1224725Y431165
X1141300Y446200
X1130300
X1119300
Y457200
X1130300
X1141300
Y468200
X1130300
X1119300
X1086452Y509460
X1062594Y516509
X1035685Y514350
X1048926Y556577
X963500Y468200
X952500
X941500
Y457200
X952500
X963500
Y446200
X952500
X941500
X919213Y507898
X899937Y510649
X882333Y528320
X843597Y516890
X785700Y468200
Y457200
Y446200
X774700
X763700
Y457200
X774700
Y468200
X763700
X738505Y506413
X714090Y514114
X686341Y509941
X660735Y527718
X588850Y468200
X577850
X566850
Y457200
X577850
X588850
Y446200
X577850
X566850
X536799Y510223
X509760Y519064
X509588Y548640
X479885Y508254
X404700Y468200
Y457200
Y446200
X393700
X382700
Y457200
X393700
Y468200
X382700
X361600Y511891
X334010Y506730
X334279Y530690
X373380Y1036589
Y1046749
Y1056909
Y1067069
X383540
Y1056909
Y1046749
Y1036589
X393700
Y1046749
Y1056909
Y1067069
X403860
Y1056909
Y1046749
Y1036589
X414020
Y1046749
Y1056909
Y1067069
X468630
Y1056909
Y1046749
Y1036589
X478790
X488950
Y1046749
Y1056909
Y1067069
X478790
Y1056909
Y1046749
X499110
Y1056909
Y1067069
X509270
Y1056909
Y1046749
Y1036589
X499110
X570230
Y1046749
Y1056909
Y1067069
X580390
Y1056909
Y1046749
Y1036589
X590550
X600710
X610870
Y1046749
X600710
Y1056909
X610870
Y1067069
X600710
X590550
Y1056909
Y1046749
X792480
Y1036589
Y1056909
Y1067069
X459153Y856615
X459105Y837613
X802640Y1036589
X812800
Y1046749
Y1056909
Y1067069
X802640
Y1056909
Y1046749
X822960
Y1056909
Y1067069
X833120
Y1056909
Y1046749
Y1036589
X822960
T02
X274320Y274320
X266700Y292100
X264160Y312555
X274320Y309880
X292100Y317500
X309880Y309880
X317500Y292100
X309880Y274320
X292100Y266700
X344274Y263525
X384274
X379286Y332232
X389064Y343408
X395160
X369761Y370078
X363665
X344614Y373380
X338010
X327152Y332232
X353885
X393065Y395605
X264160Y392555
Y352555
X418274Y343662
X424117
X435165Y332486
X461328
X486727
X497904Y332232
X523303
X548703
X558863Y343154
X564959
X589090
X595186
X605854Y332232
X631254
X656654
X694500Y331978
X693928Y321978
X700024
X724408Y322072
X719900Y331978
X745300
X739648Y322072
X755206Y346202
X761555
X786955
X793306
X774510Y331724
X774319Y381635
X734378Y369824
X728027
X707199Y372618
X700850
X647001Y372364
X640906
X621093Y370078
X614997
X577469Y384810
X539560Y369824
X533464
X513905Y372110
X507556
X450024Y370078
X444183
X407162Y384302
X406717Y330200
X424274Y263525
X464274
X504274
X544274
X584276
X624276
X664276
X704276
X744276
X784276
X577406Y330200
X803719Y331978
X809244Y322072
X823468Y321818
X829119Y331978
X854520
X872046
X897446
X922846
X933260Y343408
X939610
X964755Y343154
X971105
X981774Y331978
X1007173
X1032573
X1051624
X1077023
X1102423
X1112076Y343154
X1118426
X1142048
X1148398
X1158811Y331978
X1184212
X1174052Y370332
X1167701
X1129665Y385445
X1093026Y369824
X1086675
X1066863Y372364
X1060514
X1024445
X1018095
X998283Y369824
X991934
X952119Y381635
X912940Y369824
X906590
X886270Y372364
X879920
X846392Y372618
X840042
X819976Y370078
X813625
X824276Y263525
X864276
X904276
X944276
X984275
X1024275
X1064275
X1104275
X1144275
X1184275
X1130618Y329184
X952309Y330200
X1209612Y331978
X1200213Y372364
X1193864
X1285875Y372826
Y332824
X1275080Y309880
X1282700Y292100
X1275080Y274320
X1257300Y266700
X1239520Y274320
X1231900Y292100
X1239520Y309880
X1257300Y317500
X1224275Y263525
X1285875Y412826
Y452826
Y492826
Y532826
Y572826
Y612826
Y652826
Y692826
Y732826
Y772825
X1271651Y773811
X1257681Y790702
X1233475Y744786
X1224526Y744977
X1215817Y744713
X1211072Y729996
X1216152Y714121
X1224407
X1233297
X1238555Y729546
X1100074Y712216
X1083750Y682684
X1064514Y698500
X1068578Y643890
X1086059Y631907
X1098550Y655828
X1068832Y589280
X1081590Y557317
X1099820Y558800
X1117885Y557799
X1148700Y558274
X1160780Y573405
X1135380Y572831
X1142746Y581469
X1179307Y539369
X1074420Y509270
X1025106Y557423
X987918Y557530
X970549Y558274
X975360Y575310
X948436Y551688
X930402Y551434
X911098
X887222Y557784
X882333Y538480
X886460Y510540
X849376Y546608
X797052Y546354
X808037Y522287
X815340Y584454
X825492Y580602
X818642Y610870
X810514Y667512
X800100Y682498
X810084Y697998
X825168Y695192
X840057
X836501Y706628
X833882Y717550
X834390Y744220
X843026Y739394
X819912Y736600
X822452Y747268
X815086Y727202
X858520Y721360
X866902Y694944
X894588Y695198
X901954Y701802
X902716Y683006
X908812Y674878
X922528Y681990
X935736Y687578
X938530Y676402
X946912Y703707
X966447Y707113
X982472Y692150
X993165Y698754
X985266Y673862
X986028Y745998
X960374Y755904
X929386Y750316
X922782Y757174
X912876Y754380
X915924Y763778
X914400Y780542
X912114Y790194
X884174Y771144
X878241Y763786
X883904Y749814
X904748Y723138
X918286Y724586
X926338Y708406
X843026Y672567
X840693Y773915
X835787Y782300
X819912Y776224
X819150Y787654
X1006856Y782066
X1012952Y769620
X1016508Y759714
X1086432Y745136
X927100Y580136
X870712Y584962
X951865Y421005
X952119Y400685
X1129665Y401955
Y421005
X773938Y417068
X774319Y400685
X728980Y516890
X726186Y554482
X713994Y553974
X695452Y554482
X681990Y554990
X687578Y573278
X692404Y589026
X664464Y592836
X662686Y569468
X631698Y546608
X611124
X581914
X561340
X528574Y547116
X499745Y537210
X492125Y529590
X479361Y557799
X442595Y557530
X428625
X450342Y592074
X459486Y584454
X507238
X564312Y591490
X578434
X560578Y605790
X527304Y640334
X524558Y735711
X528955Y744220
X534083Y765175
X525399Y787908
X508048Y773430
X484045Y759587
X475663Y737235
X443913
X437563Y756285
X441373Y777875
X421053
X471218Y780415
X623316Y778002
X623824Y787908
X637540Y782320
X647700Y785368
X630428Y768604
X631952Y757682
X654812
X656082Y743204
X657352Y733806
X656336Y722630
X639064Y732536
X621538Y727964
X611188Y730885
X606222Y721792
X613156Y745744
X615950Y766445
X715772Y759714
X719582Y772160
X739902Y778510
X746506Y785622
X760476Y775970
X765937Y747014
X769620Y735584
X753872Y733953
X764794Y714756
X756158Y697230
X741426Y698246
X731012Y696722
X716788Y699770
X716280Y688086
X729996Y678434
X722376Y651510
X715010Y645414
X716026Y615696
X748538Y601218
X749300Y591820
X766826Y593344
X780288Y587756
X780542Y603504
X781558Y612902
X777240Y626618
X780034Y635762
X780542Y655066
X765556Y655320
X762508Y665734
X779018Y671322
X788924Y691896
X791464Y701294
X790702Y733374
Y743026
X723900Y709422
X703326Y790702
X634238Y640842
X627380Y588264
X751078Y553720
X764286Y555752
X521208Y510032
X577215Y421005
X577469Y400685
X478727Y401066
X472122
X425704Y642874
X393446Y584962
X396700Y558165
X378435Y558000
X363339Y557139
X351282Y576326
X339852Y565658
X316738Y591058
X305308Y591566
X264160Y592554
Y632554
Y672554
X287414Y653999
X291084Y739902
X280670Y739140
X263652Y740918
Y753872
X263573Y777235
X311912Y738378
X322580
X331978Y743458
X330200Y715772
X370888Y736600
X364490Y783590
X358140Y777240
X384731Y781177
X360363Y679450
X322580Y518160
X264160Y512554
Y552554
X263906Y471932
X264160Y432554
X393065Y421005
X385239Y797687
X379730Y839470
X380365Y854075
X327073Y856615
X344853Y876300
X340408Y806450
X263573Y817235
Y857235
Y897235
Y908685
X263525Y936625
X296352Y940798
X295323Y908685
X324485Y957661
X330835Y990600
X332105Y1012271
X355600Y1009650
X372745Y1001395
X379730
X386715
X393700
X371475Y942340
X383286Y916686
X263525Y976625
Y1012274
X272425Y1004250
X263525Y1052276
Y1092276
Y1132276
Y1172276
X301625Y1060526
X423545Y1005078
X444500Y1010920
X451167Y1011237
X469900Y1003935
X482600
X495300
X521970Y1013460
X563245Y1014730
X571500Y1003300
X584200
X597535
X615442Y1002030
X621030Y1017778
X639572Y1039114
X651510
X658368Y1029970
X658495Y1021715
X658368Y1013206
X658622Y1004570
X638556Y980948
X642874Y940054
X643128Y926084
X647446Y890778
X665988Y895096
X695814Y883237
X698500Y865886
X691198Y835025
X669607Y824865
X641032Y835025
X620331Y819023
X598218Y833755
X630682Y863600
X651701Y867410
X655574Y799846
X705866
X749554Y803656
X753364Y819912
X741934Y820928
X742188Y840461
X753872Y840486
X747776Y863600
X746760Y878840
X757428
X774446Y883666
X767842Y866140
X753872Y902462
X746252Y928624
X736346Y920242
X739394Y940816
X728980Y938276
X725424Y961057
X738378Y956056
X749163Y947303
X744982Y977900
X735584Y987806
X731296Y1000391
X746045Y1016780
X784225Y1003300
X787400Y993775
X774192Y926592
X715264Y905764
X706628Y912622
X607378Y912495
X586788Y902335
X517525Y892175
X509270Y875665
X497205Y873760
X492125Y897890
X522653Y918845
X509270Y855980
Y841375
X495300Y812800
X484505Y808355
X473075Y809625
X490220Y796290
X442008Y803910
X426133Y819785
X406448Y823595
X403273Y862965
X400050Y893445
X448310Y881380
X429308Y852805
X553768Y796925
X776732Y799846
X774700Y1097915
Y1116965
Y1136015
X755650
Y1116965
Y1097915
X686435Y1157605
X502651Y1166401
X489300
X477251
X463900
X793750Y1136015
X812800
X831850
Y1116965
X812800
X793750
Y1097915
X812800
X831850
X869950Y1078865
X889000
X908050
Y1059815
X889000
X869950
X942340Y1059180
X941070Y1036320
X929640Y1022350
X908050Y996950
X922528Y962152
X932688Y962406
X947928Y961898
X958342Y959612
X984602Y954278
X988060Y969010
X989584Y934720
X976630Y935736
X966724
X950214Y933196
X939800Y934466
X927608Y934720
X917448Y936244
X909590Y926846
X895604Y928878
X897636Y956056
X922528Y909828
X939292Y910336
X938022Y883158
X928624Y883412
X915924Y883158
X906272Y883412
X950214Y883158
X959612Y883666
X972312
X981964
X981202Y840994
X983488Y823214
X956818Y839724
X926846
X909828Y821944
X910336Y800100
X868934Y804672
X865505Y817245
X866902Y838708
X866394Y872236
X862838Y899668
X853440Y902462
X827278Y890016
X812038Y891794
X802132
X806196Y931164
X815340Y947420
X828294Y952500
X832358Y928878
X802132Y957834
X800100Y993775
X812800
X822325
X831850
X960120Y996315
X1000760Y1009015
Y1021715
X1013460
Y1009015
X1007110Y1015365
X1000760Y1043305
X1070610Y1043940
X1085850Y1027430
X1085215Y1061085
X1070610Y1077595
X1065530Y1134110
X1093470Y1132840
X1115060Y1151890
X1174750Y1161415
X1186180
X1168400Y1174750
X1184849Y1117826
X1187450Y1079500
X1159510Y1062355
X1184910Y1017270
X1189556Y927824
Y901426
X1186180Y845185
X1003046Y908050
X1049528Y994156
X1034415Y1172845
Y1181735
X1024890Y1173480
X1016000
X943610Y1151255
X933450Y1136650
X914400Y1137920
X908050Y1145545
X881380Y1156970
X876300Y1181100
X857250Y1174750
X848106Y1175512
X929005Y1077595
X804164Y837946
X1204801Y844550
X1226076Y845025
X1241199Y844550
X1254775Y844725
X1285875Y852825
Y812825
Y892825
Y932825
Y972825
Y1012825
Y1052825
X1257300Y1054100
Y1066800
Y1079500
X1244600Y1073150
Y1060450
X1238824Y1016226
X1211555Y1033094
Y998921
Y931824
Y897189
X1239556Y914824
X1212850Y1085850
X1200150
X1210554Y1101189
X1211555Y1133460
X1199515Y1161415
X1238189Y1117826
X1285875Y1132825
Y1172825
Y1092825
Y1212825
X1275080Y1226820
X1282700Y1244600
X1275080Y1262380
X1257300Y1270000
X1238875Y1273175
X1239520Y1262380
X1231900Y1244600
X1239520Y1226820
X1257300Y1219200
X1200150
Y1257300
X1198875Y1273175
X1158875
X1170305Y1256030
X1168400Y1219200
X1118875Y1273175
X1072525Y1273299
X1028075
X1009650Y1273175
X996950
X984250
X971550
X965200Y1264285
X952500
X952424Y1273175
X955675Y1249680
X925576Y1246378
X916305Y1246505
X918210Y1227455
X924052Y1261872
X933450Y1261110
X912424Y1273175
X872424
X878078Y1259586
X864870Y1259840
X858520Y1243076
X871982Y1242822
X865378Y1226058
X851916Y1226820
X855980Y1205865
X844550Y1206500
Y1191006
X853440
X832424Y1273175
X977900Y1264285
X990600
X1003300
X1000125Y1249680
X1023620Y1200785
X1034415
Y1191260
X792424Y1273175
X752424
X755650Y1247775
X730250Y1222375
X717550
X712424Y1273175
X672424
X632424
X641350Y1247775
X628650Y1222375
X615950
X592425Y1273175
X552425
X512425
X508000Y1247775
X514919Y1222390
X526984
X438150Y1225550
X430926Y1218989
X424274Y1226551
X432425Y1273175
X472425
X392425
X352425
X312425
X309880Y1262380
X317500Y1244600
X309880Y1226820
X292100Y1219200
X274320Y1226820
X263525Y1212276
X266700Y1244600
X274320Y1262380
X292100Y1270000
T03
X295275Y390525
X314325
Y371475
X1207389Y420497
X1203452Y443992
X1212850Y450850
X1211580Y467360
X1194054Y467487
X1195070Y498475
Y517525
X1214120
X1233170Y415925
X1188339Y420497
Y439547
X1169289
Y420497
X1178560Y467360
X1176020Y498475
Y517525
X1156970Y498475
X1095375Y485775
X1076325Y492125
X1057275
Y473075
X1076325
X1071372Y440436
X1061593
X1050671Y440563
X1044829Y450977
X1036701
X1030605Y440563
X1019810Y440690
X1010285
X991489Y440055
Y421005
X1010539
X1029589
X1053465Y420751
X1072515
X1091565
Y439801
X1025525Y473075
X1006475
Y492125
X1025525
X979170Y485775
X917575
X898525Y492125
X879475
Y473075
X898525
X895350Y440690
X885825
X874649Y440817
X868299Y450469
X860933
X855091Y440817
X843280Y440690
X833755
X832739Y420751
X851789
X875665Y421005
X894715
X913638Y420878
X913765Y440055
X847725Y473075
X828675
Y492125
X847725
X802005Y485775
X813689Y439801
Y420751
X1000506Y558038
X1154796Y591871
X739775Y485775
X714375Y492125
X695325
Y473075
X714375
X707390Y440690
X697865
X686689Y440563
X679831Y450215
X672719
X665226Y440436
X654558Y440690
X645160
X636397Y420497
X655447
X617347
Y439547
X638175Y473075
X657225
Y492125
X638175
X606425Y485775
X542925
X523875Y492125
X504825
Y473075
X523875
X516128Y440690
X507365
X496189Y440817
X489331Y450723
X481965
X474853Y440817
X464185Y440690
X455422
X453517Y420497
X434467
Y439547
X439420Y485775
X420370
X468757Y492379
X478155Y472059
X460375Y467233
X470789Y522097
X500253Y420751
X519303
X538353
Y439801
X697865Y420497
X716915
X735965
Y439547
X321183Y444500
X318770Y452120
X321183Y433705
Y426085
X301625Y428625
Y447675
Y473075
Y492125
X320675
Y473075
X339725
X358775Y485775
Y498475
X314325Y409575
X295275
X349250Y1047750
X355600Y1060450
X336550
Y1079500
Y1098550
Y1117600
Y1136650
Y1155700
X355600
X374650
X393700
Y1136650
X374650
X355600
Y1117600
X374650
X393700
Y1098550
X374650
X355600
Y1079500
X374650
X393700
X412750
Y1098550
Y1117600
Y1136650
Y1155700
X469900Y1152525
X488950
X508000
X533400Y1155700
X552450
X571500
X590550
X609600
X628650
X647700
X646430Y1137158
X628650Y1136650
X609600
X590550
X571500
X590550Y1117600
X609600
X628650
X647700
Y1098550
Y1079500
Y1060450
X639318Y1050036
X628650Y1041400
Y1060450
Y1079500
X609600
X590550
X571500
X552450
Y1060450
Y1047750
X539750
X533400Y1060450
Y1079500
Y1098550
X552450
X571500
X590550
X609600
X628650
X723900
X736600Y1097915
Y1116965
Y1136015
Y1155065
X725950Y1149825
X755650Y1155065
X774700
Y1078865
X755650
X736600
X723900Y1079500
Y1060450
X736600Y1059815
Y1040765
X723900Y1041400
X755650Y1040765
Y1059815
X774700
Y1040765
X784225Y1012825
X527050Y1035050
X508000Y1082675
X488950
X469900
Y1101725
X495300
X431800Y1098550
Y1079500
Y1060450
X793750Y1078865
X812800
X831850
X850900
Y1097915
X869950
X889000
X908050
Y1040765
X916940Y1032510
X908050Y1021715
X889000
Y1040765
X869950
Y1021715
X850900
Y1040765
Y1059815
Y1116965
Y1136015
Y1155065
X831850
X812800
X793750
Y1003300
X806450
X819150
X931736Y994410
X941070Y993140
X1002665Y955040
X894080Y898144
X1120775Y1031875
X1123315Y1072515
Y1082675
X1123950Y1093470
X1109345Y1102360
X1098550Y1111250
X1089660Y1082675
X1065530Y1116330
X1052830Y1111250
T04
X1195451Y640080
X1220851
X1233551Y652780
X1208151
X1224026Y671576
X1178560Y652780
X1018540Y955675
X1017905Y969645
X1018540Y983615
X1002665Y986790
T05
X427355Y748665
T06
X1110615Y1050290
X1146175
X901700Y1201420
Y1236980
T07
X1035050Y787908
X1060450
X1085850
X1111250
X1136650
Y813308
X1111250
X1085850
X1060450
X1035050
Y882650
X1060450
X1085850
X1111250
X1136650
Y908050
X1111250
X1085850
X1060450
X1035050
T08
X344599Y825701
X364599
Y850699
X344599
X531495Y855345
X556895
X582295
Y880745
X556895
X531495
X657225Y942975
X682625
X708025
Y968375
X682625
X657225
T09
X1225550Y562374
Y612376
T10
X368300Y287782
X393700
X419100
X444500
X520024
X545424
X570824
X596224
X672424
X697824
X723224
X748624
X799424
X824824
X850224
X875624
X951824
X977224
X1002624
X1028024
X1104224
X1129624
X1155024
X1180424
X1262875Y365061
Y390462
X1220216Y774700
X1130554Y726694
Y701294
Y646938
Y621538
X1027176Y618998
Y644398
X1027938Y698246
Y723646
X969518Y775208
X944118
X941070Y654205
X915670
X890270
X864870
X839470
Y628805
X864870
X890270
X915670
X941070
Y603405
X915670
X890270
X864870
X839470
X669724Y622300
X644324
X618924
X593524
X539750
X514350
X488950
X438150
X412750
Y685800
X438150
X488950
X514350
X539750
X578851Y692150
X604251
X629651
X655051
X680451
Y666750
X655051
X629651
X604251
X578851
X387350Y685800
X336550
X311150
X285750
Y622300
X311150
X336550
X387350
X275844Y1027684
Y1072896
X284163Y1173163
X309562
X431800Y1117600
X457200
X482600
X508000
X533400
X558800
X671195Y1071880
X696595
X762000Y971550
X787400
X574675Y962025
X549275
X523875
X498475
X473075
X447675
X422275
X396875
Y936625
X422275
X447675
X473075
X498475
X523875
X549275
X574675
X812800Y971550
X838200
X863600
X889000
X895350Y1117600
X869950
X1123950Y1109980
X1149350
X969518Y851408
X944118
Y826008
X969518
Y800608
X944118
X1220216Y800100
X1273899Y1185200
T11
X1211580Y863600
Y914400
Y965200
Y1016000
Y1066800
Y1117600
X825500Y1193800
X774700
X723900
X673100
X622300
X571500
X520700
X469900
X419100
X368300
T12
X300736Y1015238
Y1085342
T13
X317500Y778200
Y898200
T14
X292100Y292100
X1257300
Y1244600
X292100
M30
