G04 Layer_Color=128*
%FSLAX25Y25*%
%MOIN*%
G70*
G01*
G75*
%ADD286C,0.00200*%
G54D286*
X120669Y306378D02*
X129331D01*
X125000Y302047D02*
Y310708D01*
X120669Y353622D02*
X129331D01*
X125000Y349291D02*
Y357952D01*
X133799Y325079D02*
X137539D01*
X135669Y323209D02*
Y326949D01*
X133799Y334921D02*
X137539D01*
X135669Y333051D02*
Y336791D01*
X141673Y334921D02*
X145413D01*
X143543Y333051D02*
Y336791D01*
X141673Y325079D02*
X145413D01*
X143543Y323209D02*
Y326949D01*
X227380Y346750D02*
X231120D01*
X229250Y344880D02*
Y348620D01*
X227380Y336750D02*
X231120D01*
X229250Y334880D02*
Y338620D01*
X217380Y346750D02*
X221120D01*
X219250Y344880D02*
Y348620D01*
X217380Y336750D02*
X221120D01*
X219250Y334880D02*
Y338620D01*
X207380Y346750D02*
X211120D01*
X209250Y344880D02*
Y348620D01*
X207380Y336750D02*
X211120D01*
X209250Y334880D02*
Y338620D01*
X110500Y245000D02*
X114500D01*
X112500Y243000D02*
Y247000D01*
X120500Y245000D02*
X124500D01*
X122500Y243000D02*
Y247000D01*
X130500Y245000D02*
X134500D01*
X132500Y243000D02*
Y247000D01*
X115450Y399700D02*
X121350D01*
X118400Y396750D02*
Y402650D01*
X115450Y427300D02*
X121350D01*
X118400Y424350D02*
Y430250D01*
X106600Y404600D02*
X110600D01*
X108600Y402600D02*
Y406600D01*
X106600Y422400D02*
X110600D01*
X108600Y420400D02*
Y424400D01*
X474250Y420000D02*
X479750D01*
X477000Y417250D02*
Y422750D01*
X474250Y400000D02*
X479750D01*
X477000Y397250D02*
Y402750D01*
X474250Y380000D02*
X479750D01*
X477000Y377250D02*
Y382750D01*
X474250Y440000D02*
X479750D01*
X477000Y437250D02*
Y442750D01*
X474250Y360000D02*
X479750D01*
X477000Y357250D02*
Y362750D01*
X474250Y340000D02*
X479750D01*
X477000Y337250D02*
Y342750D01*
X348000Y382500D02*
X352000D01*
X350000Y380500D02*
Y384500D01*
X338000Y382500D02*
X342000D01*
X340000Y380500D02*
Y384500D01*
X328000Y382500D02*
X332000D01*
X330000Y380500D02*
Y384500D01*
X318000Y382500D02*
X322000D01*
X320000Y380500D02*
Y384500D01*
X308000Y382500D02*
X312000D01*
X310000Y380500D02*
Y384500D01*
X298000Y382500D02*
X302000D01*
X300000Y380500D02*
Y384500D01*
X353250Y473000D02*
X356750D01*
X355000Y471250D02*
Y474750D01*
X353250Y487000D02*
X356750D01*
X355000Y485250D02*
Y488750D01*
X261671Y245000D02*
X265671D01*
X263671Y243000D02*
Y247000D01*
X231671Y245000D02*
X235671D01*
X233671Y243000D02*
Y247000D01*
X241671Y245000D02*
X245671D01*
X243671Y243000D02*
Y247000D01*
X251671Y245000D02*
X255671D01*
X253671Y243000D02*
Y247000D01*
X312734Y113300D02*
X316734D01*
X314734Y111300D02*
Y115300D01*
X322734Y113300D02*
X326734D01*
X324734Y111300D02*
Y115300D01*
X332734Y113300D02*
X336734D01*
X334734Y111300D02*
Y115300D01*
X342734Y113300D02*
X346734D01*
X344734Y111300D02*
Y115300D01*
X499535Y466614D02*
X503535D01*
X501535Y464614D02*
Y468614D01*
X265894Y272500D02*
X269894D01*
X267894Y270500D02*
Y274500D01*
X265894Y262500D02*
X269894D01*
X267894Y260500D02*
Y264500D01*
X255894Y272500D02*
X259894D01*
X257894Y270500D02*
Y274500D01*
X255894Y262500D02*
X259894D01*
X257894Y260500D02*
Y264500D01*
X245894Y272500D02*
X249894D01*
X247894Y270500D02*
Y274500D01*
X245894Y262500D02*
X249894D01*
X247894Y260500D02*
Y264500D01*
X235894Y272500D02*
X239894D01*
X237894Y270500D02*
Y274500D01*
X235894Y262500D02*
X239894D01*
X237894Y260500D02*
Y264500D01*
X225894Y272500D02*
X229894D01*
X227894Y270500D02*
Y274500D01*
X225894Y262500D02*
X229894D01*
X227894Y260500D02*
Y264500D01*
X154250Y368750D02*
X158250D01*
X156250Y366750D02*
Y370750D01*
X154250Y378750D02*
X158250D01*
X156250Y376750D02*
Y380750D01*
X164250Y368750D02*
X168250D01*
X166250Y366750D02*
Y370750D01*
X164250Y378750D02*
X168250D01*
X166250Y376750D02*
Y380750D01*
X174250Y368750D02*
X178250D01*
X176250Y366750D02*
Y370750D01*
X174250Y378750D02*
X178250D01*
X176250Y376750D02*
Y380750D01*
X184250Y368750D02*
X188250D01*
X186250Y366750D02*
Y370750D01*
X184250Y378750D02*
X188250D01*
X186250Y376750D02*
Y380750D01*
X194250Y368750D02*
X198250D01*
X196250Y366750D02*
Y370750D01*
X194250Y378750D02*
X198250D01*
X196250Y376750D02*
Y380750D01*
X204250Y368750D02*
X208250D01*
X206250Y366750D02*
Y370750D01*
X204250Y378750D02*
X208250D01*
X206250Y376750D02*
Y380750D01*
X214250Y368750D02*
X218250D01*
X216250Y366750D02*
Y370750D01*
X214250Y378750D02*
X218250D01*
X216250Y376750D02*
Y380750D01*
X224250Y368750D02*
X228250D01*
X226250Y366750D02*
Y370750D01*
X224250Y378750D02*
X228250D01*
X226250Y376750D02*
Y380750D01*
X322250Y470000D02*
X327750D01*
X325000Y467250D02*
Y472750D01*
X302250Y470000D02*
X307750D01*
X305000Y467250D02*
Y472750D01*
X282250Y470000D02*
X287750D01*
X285000Y467250D02*
Y472750D01*
X262250Y470000D02*
X267750D01*
X265000Y467250D02*
Y472750D01*
X242250Y470000D02*
X247750D01*
X245000Y467250D02*
Y472750D01*
X222250Y470000D02*
X227750D01*
X225000Y467250D02*
Y472750D01*
X202250Y470000D02*
X207750D01*
X205000Y467250D02*
Y472750D01*
X182250Y470000D02*
X187750D01*
X185000Y467250D02*
Y472750D01*
X162250Y470000D02*
X167750D01*
X165000Y467250D02*
Y472750D01*
X142250Y470000D02*
X147750D01*
X145000Y467250D02*
Y472750D01*
X262250Y422000D02*
X266250D01*
X264250Y420000D02*
Y424000D01*
X272250Y422000D02*
X276250D01*
X274250Y420000D02*
Y424000D01*
X369700Y335200D02*
X373700D01*
X371700Y333200D02*
Y337200D01*
X379700Y335200D02*
X383700D01*
X381700Y333200D02*
Y337200D01*
X369700Y325200D02*
X373700D01*
X371700Y323200D02*
Y327200D01*
X379700Y325200D02*
X383700D01*
X381700Y323200D02*
Y327200D01*
X369700Y315200D02*
X373700D01*
X371700Y313200D02*
Y317200D01*
X379700Y315200D02*
X383700D01*
X381700Y313200D02*
Y317200D01*
X369700Y305200D02*
X373700D01*
X371700Y303200D02*
Y307200D01*
X379700Y305200D02*
X383700D01*
X381700Y303200D02*
Y307200D01*
X480532Y221407D02*
X484469D01*
X482500Y219439D02*
Y223376D01*
X480532Y241093D02*
X484469D01*
X482500Y239124D02*
Y243061D01*
X440500Y437000D02*
X444500D01*
X442500Y435000D02*
Y439000D01*
X450500Y437000D02*
X454500D01*
X452500Y435000D02*
Y439000D01*
X107250Y108000D02*
X108750D01*
X108000Y107250D02*
Y108750D01*
X121250Y108000D02*
X122750D01*
X122000Y107250D02*
Y108750D01*
X121250Y122000D02*
X122750D01*
X122000Y121250D02*
Y122750D01*
X107250Y122000D02*
X108750D01*
X108000Y121250D02*
Y122750D01*
X104250Y115000D02*
X105750D01*
X105000Y114250D02*
Y115750D01*
X124250Y115000D02*
X125750D01*
X125000Y114250D02*
Y115750D01*
X114250Y125000D02*
X115750D01*
X115000Y124250D02*
Y125750D01*
X114250Y105000D02*
X115750D01*
X115000Y104250D02*
Y105750D01*
X109095Y115000D02*
X120905D01*
X115000Y109095D02*
Y120905D01*
X443100Y254700D02*
X447100D01*
X445100Y252700D02*
Y256700D01*
X443100Y244700D02*
X447100D01*
X445100Y242700D02*
Y246700D01*
X478400Y305000D02*
X482400D01*
X480400Y303000D02*
Y307000D01*
X478400Y315000D02*
X482400D01*
X480400Y313000D02*
Y317000D01*
X109875Y461875D02*
X113875D01*
X111875Y459875D02*
Y463875D01*
X119875Y461875D02*
X123875D01*
X121875Y459875D02*
Y463875D01*
X435500Y413500D02*
X439000D01*
X437250Y411750D02*
Y415250D01*
X449500Y413500D02*
X453000D01*
X451250Y411750D02*
Y415250D01*
X495195Y153725D02*
X499195D01*
X497195Y151725D02*
Y155725D01*
X495195Y143725D02*
X499195D01*
X497195Y141725D02*
Y145725D01*
X443100Y286100D02*
X447100D01*
X445100Y284100D02*
Y288100D01*
X443100Y276100D02*
X447100D01*
X445100Y274100D02*
Y278100D01*
X402400Y253700D02*
X406400D01*
X404400Y251700D02*
Y255700D01*
X402400Y243700D02*
X406400D01*
X404400Y241700D02*
Y245700D01*
X402700Y284900D02*
X406700D01*
X404700Y282900D02*
Y286900D01*
X402700Y274900D02*
X406700D01*
X404700Y272900D02*
Y276900D01*
X150500Y245000D02*
X154500D01*
X152500Y243000D02*
Y247000D01*
X160500Y245000D02*
X164500D01*
X162500Y243000D02*
Y247000D01*
X170500Y245000D02*
X174500D01*
X172500Y243000D02*
Y247000D01*
X190500Y245000D02*
X194500D01*
X192500Y243000D02*
Y247000D01*
X200500Y245000D02*
X204500D01*
X202500Y243000D02*
Y247000D01*
X210500Y245000D02*
X214500D01*
X212500Y243000D02*
Y247000D01*
X130500Y270000D02*
X134500D01*
X132500Y268000D02*
Y272000D01*
X120500Y270000D02*
X124500D01*
X122500Y268000D02*
Y272000D01*
X110500Y270000D02*
X114500D01*
X112500Y268000D02*
Y272000D01*
X170500Y270000D02*
X174500D01*
X172500Y268000D02*
Y272000D01*
X160500Y270000D02*
X164500D01*
X162500Y268000D02*
Y272000D01*
X150500Y270000D02*
X154500D01*
X152500Y268000D02*
Y272000D01*
X210500Y270000D02*
X214500D01*
X212500Y268000D02*
Y272000D01*
X200500Y270000D02*
X204500D01*
X202500Y268000D02*
Y272000D01*
X190500Y270000D02*
X194500D01*
X192500Y268000D02*
Y272000D01*
X432734Y113300D02*
X436734D01*
X434734Y111300D02*
Y115300D01*
X442734Y113300D02*
X446734D01*
X444734Y111300D02*
Y115300D01*
X452734Y113300D02*
X456734D01*
X454734Y111300D02*
Y115300D01*
X462734Y113300D02*
X466734D01*
X464734Y111300D02*
Y115300D01*
X372734Y113300D02*
X376734D01*
X374734Y111300D02*
Y115300D01*
X382734Y113300D02*
X386734D01*
X384734Y111300D02*
Y115300D01*
X392734Y113300D02*
X396734D01*
X394734Y111300D02*
Y115300D01*
X402734Y113300D02*
X406734D01*
X404734Y111300D02*
Y115300D01*
X262734Y113300D02*
X266734D01*
X264734Y111300D02*
Y115300D01*
X272734Y113300D02*
X276734D01*
X274734Y111300D02*
Y115300D01*
X282734Y113300D02*
X286734D01*
X284734Y111300D02*
Y115300D01*
X292734Y113300D02*
X296734D01*
X294734Y111300D02*
Y115300D01*
X202734Y113300D02*
X206734D01*
X204734Y111300D02*
Y115300D01*
X212734Y113300D02*
X216734D01*
X214734Y111300D02*
Y115300D01*
X222734Y113300D02*
X226734D01*
X224734Y111300D02*
Y115300D01*
X232734Y113300D02*
X236734D01*
X234734Y111300D02*
Y115300D01*
X143000Y113300D02*
X147000D01*
X145000Y111300D02*
Y115300D01*
X153000Y113300D02*
X157000D01*
X155000Y111300D02*
Y115300D01*
X163000Y113300D02*
X167000D01*
X165000Y111300D02*
Y115300D01*
X173000Y113300D02*
X177000D01*
X175000Y111300D02*
Y115300D01*
X276880Y381250D02*
X280620D01*
X278750Y379380D02*
Y383120D01*
X276880Y371250D02*
X280620D01*
X278750Y369380D02*
Y373120D01*
X266880Y381250D02*
X270620D01*
X268750Y379380D02*
Y383120D01*
X266880Y371250D02*
X270620D01*
X268750Y369380D02*
Y373120D01*
X256880Y381250D02*
X260620D01*
X258750Y379380D02*
Y383120D01*
X256880Y371250D02*
X260620D01*
X258750Y369380D02*
Y373120D01*
X487250Y108000D02*
X488750D01*
X488000Y107250D02*
Y108750D01*
X501250Y108000D02*
X502750D01*
X502000Y107250D02*
Y108750D01*
X501250Y122000D02*
X502750D01*
X502000Y121250D02*
Y122750D01*
X487250Y122000D02*
X488750D01*
X488000Y121250D02*
Y122750D01*
X484250Y115000D02*
X485750D01*
X485000Y114250D02*
Y115750D01*
X504250Y115000D02*
X505750D01*
X505000Y114250D02*
Y115750D01*
X494250Y125000D02*
X495750D01*
X495000Y124250D02*
Y125750D01*
X494250Y105000D02*
X495750D01*
X495000Y104250D02*
Y105750D01*
X489094Y115000D02*
X500906D01*
X495000Y109095D02*
Y120905D01*
X487250Y483000D02*
X488750D01*
X488000Y482250D02*
Y483750D01*
X501250Y483000D02*
X502750D01*
X502000Y482250D02*
Y483750D01*
X501250Y497000D02*
X502750D01*
X502000Y496250D02*
Y497750D01*
X487250Y497000D02*
X488750D01*
X488000Y496250D02*
Y497750D01*
X484250Y490000D02*
X485750D01*
X485000Y489250D02*
Y490750D01*
X504250Y490000D02*
X505750D01*
X505000Y489250D02*
Y490750D01*
X494250Y500000D02*
X495750D01*
X495000Y499250D02*
Y500750D01*
X494250Y480000D02*
X495750D01*
X495000Y479250D02*
Y480750D01*
X489094Y490000D02*
X500906D01*
X495000Y484094D02*
Y495905D01*
X107250Y483000D02*
X108750D01*
X108000Y482250D02*
Y483750D01*
X121250Y483000D02*
X122750D01*
X122000Y482250D02*
Y483750D01*
X121250Y497000D02*
X122750D01*
X122000Y496250D02*
Y497750D01*
X107250Y497000D02*
X108750D01*
X108000Y496250D02*
Y497750D01*
X104250Y490000D02*
X105750D01*
X105000Y489250D02*
Y490750D01*
X124250Y490000D02*
X125750D01*
X125000Y489250D02*
Y490750D01*
X114250Y500000D02*
X115750D01*
X115000Y499250D02*
Y500750D01*
X114250Y480000D02*
X115750D01*
X115000Y479250D02*
Y480750D01*
X109095Y490000D02*
X120905D01*
X115000Y484094D02*
Y495905D01*
X350500Y440000D02*
X354500D01*
X352500Y438000D02*
Y442000D01*
X340500Y440000D02*
X344500D01*
X342500Y438000D02*
Y442000D01*
X218000Y440000D02*
X222000D01*
X220000Y438000D02*
Y442000D01*
X208000Y440000D02*
X212000D01*
X210000Y438000D02*
Y442000D01*
X198000Y440000D02*
X202000D01*
X200000Y438000D02*
Y442000D01*
X188000Y440000D02*
X192000D01*
X190000Y438000D02*
Y442000D01*
X178000Y440000D02*
X182000D01*
X180000Y438000D02*
Y442000D01*
X168000Y440000D02*
X172000D01*
X170000Y438000D02*
Y442000D01*
X481675Y169750D02*
X482675D01*
X482175Y169250D02*
Y170250D01*
X412463Y219125D02*
X413463D01*
X412963Y218625D02*
Y219625D01*
X417844Y203350D02*
X418844D01*
X418344Y202850D02*
Y203850D01*
X427237Y200575D02*
X428237D01*
X427737Y200075D02*
Y201075D01*
X407250Y202500D02*
X408250D01*
X407750Y202000D02*
Y203000D01*
X346875Y208000D02*
X347875D01*
X347375Y207500D02*
Y208500D01*
X361395Y199960D02*
X362395D01*
X361895Y199460D02*
Y200460D01*
X353806Y201043D02*
X354806D01*
X354306Y200543D02*
Y201543D01*
X331625Y203500D02*
X332625D01*
X332125Y203000D02*
Y204000D01*
X269713Y200764D02*
X270713D01*
X270213Y200264D02*
Y201264D01*
X280638Y202407D02*
X281638D01*
X281138Y201907D02*
Y202907D01*
X290250Y199375D02*
X291250D01*
X290750Y198875D02*
Y199875D01*
X259632Y207763D02*
X260632D01*
X260132Y207263D02*
Y208263D01*
X200193Y204356D02*
X201193D01*
X200693Y203856D02*
Y204856D01*
X200125Y216000D02*
X201125D01*
X200625Y215500D02*
Y216500D01*
X210838Y200875D02*
X211838D01*
X211338Y200375D02*
Y201375D01*
X188431Y200100D02*
X189431D01*
X188931Y199600D02*
Y200600D01*
X131106Y208933D02*
X132106D01*
X131606Y208433D02*
Y209433D01*
X141862Y201532D02*
X142862D01*
X142362Y201032D02*
Y202032D01*
X131000Y199500D02*
X132000D01*
X131500Y199000D02*
Y200000D01*
X328500Y257561D02*
X332500D01*
X330500Y255561D02*
Y259561D01*
X338500Y257561D02*
X342500D01*
X340500Y255561D02*
Y259561D01*
X348500Y257561D02*
X352500D01*
X350500Y255561D02*
Y259561D01*
X358500Y257561D02*
X362500D01*
X360500Y255561D02*
Y259561D01*
X368500Y257561D02*
X372500D01*
X370500Y255561D02*
Y259561D01*
X328500Y247561D02*
X332500D01*
X330500Y245561D02*
Y249561D01*
X338500Y247561D02*
X342500D01*
X340500Y245561D02*
Y249561D01*
X348500Y247561D02*
X352500D01*
X350500Y245561D02*
Y249561D01*
X358500Y247561D02*
X362500D01*
X360500Y245561D02*
Y249561D01*
X368500Y247561D02*
X372500D01*
X370500Y245561D02*
Y249561D01*
X328500Y237561D02*
X332500D01*
X330500Y235561D02*
Y239561D01*
X338500Y237561D02*
X342500D01*
X340500Y235561D02*
Y239561D01*
X348500Y237561D02*
X352500D01*
X350500Y235561D02*
Y239561D01*
X358500Y237561D02*
X362500D01*
X360500Y235561D02*
Y239561D01*
X368500Y237561D02*
X372500D01*
X370500Y235561D02*
Y239561D01*
X445728Y357500D02*
X449272D01*
X447500Y355728D02*
Y359272D01*
X445728Y347500D02*
X449272D01*
X447500Y345728D02*
Y349272D01*
X435728Y357500D02*
X439272D01*
X437500Y355728D02*
Y359272D01*
X435728Y347500D02*
X439272D01*
X437500Y345728D02*
Y349272D01*
X425728Y357500D02*
X429272D01*
X427500Y355728D02*
Y359272D01*
X425728Y347500D02*
X429272D01*
X427500Y345728D02*
Y349272D01*
X415728Y357500D02*
X419272D01*
X417500Y355728D02*
Y359272D01*
X415728Y347500D02*
X419272D01*
X417500Y345728D02*
Y349272D01*
X405728Y357500D02*
X409272D01*
X407500Y355728D02*
Y359272D01*
X405728Y347500D02*
X409272D01*
X407500Y345728D02*
Y349272D01*
X445728Y320200D02*
X449272D01*
X447500Y318428D02*
Y321972D01*
X445728Y310200D02*
X449272D01*
X447500Y308428D02*
Y311972D01*
X435728Y320200D02*
X439272D01*
X437500Y318428D02*
Y321972D01*
X435728Y310200D02*
X439272D01*
X437500Y308428D02*
Y311972D01*
X425728Y320200D02*
X429272D01*
X427500Y318428D02*
Y321972D01*
X425728Y310200D02*
X429272D01*
X427500Y308428D02*
Y311972D01*
X415728Y320200D02*
X419272D01*
X417500Y318428D02*
Y321972D01*
X415728Y310200D02*
X419272D01*
X417500Y308428D02*
Y311972D01*
X405728Y320200D02*
X409272D01*
X407500Y318428D02*
Y321972D01*
X405728Y310200D02*
X409272D01*
X407500Y308428D02*
Y311972D01*
X246250Y231600D02*
X247750D01*
X247000Y230850D02*
Y232350D01*
X260850Y233400D02*
X262350D01*
X261600Y232650D02*
Y234150D01*
X260150Y224200D02*
X261650D01*
X260900Y223450D02*
Y224950D01*
X267750Y218500D02*
X269250D01*
X268500Y217750D02*
Y219250D01*
X269950Y225700D02*
X271450D01*
X270700Y224950D02*
Y226450D01*
X150150Y360900D02*
X151650D01*
X150900Y360150D02*
Y361650D01*
X103150Y185800D02*
X104650D01*
X103900Y185050D02*
Y186550D01*
X257550Y292600D02*
X259050D01*
X258300Y291850D02*
Y293350D01*
X257050Y298300D02*
X258550D01*
X257800Y297550D02*
Y299050D01*
X248050Y298300D02*
X249550D01*
X248800Y297550D02*
Y299050D01*
X258050Y288900D02*
X259550D01*
X258800Y288150D02*
Y289650D01*
X284015Y417500D02*
X285984D01*
X285000Y416515D02*
Y418484D01*
X243750Y400700D02*
X245250D01*
X244500Y399950D02*
Y401450D01*
X250650Y386200D02*
X252150D01*
X251400Y385450D02*
Y386950D01*
X288850Y388900D02*
X290350D01*
X289600Y388150D02*
Y389650D01*
X292550Y385000D02*
X294050D01*
X293300Y384250D02*
Y385750D01*
X287162Y393855D02*
X288662D01*
X287912Y393105D02*
Y394605D01*
X255750Y409100D02*
X257250D01*
X256500Y408350D02*
Y409850D01*
X241550Y394500D02*
X243050D01*
X242300Y393750D02*
Y395250D01*
X251050Y409100D02*
X252550D01*
X251800Y408350D02*
Y409850D01*
X258450Y405500D02*
X259950D01*
X259200Y404750D02*
Y406250D01*
X336750Y462500D02*
X338250D01*
X337500Y461750D02*
Y463250D01*
X292969Y400307D02*
X294468D01*
X293719Y399557D02*
Y401057D01*
X252450Y364600D02*
X253950D01*
X253200Y363850D02*
Y365350D01*
X252350Y370100D02*
X253850D01*
X253100Y369350D02*
Y370850D01*
X158831Y175669D02*
X159831D01*
X159331Y175169D02*
Y176169D01*
X154500Y175669D02*
X155500D01*
X155000Y175169D02*
Y176169D01*
X150169Y175669D02*
X151169D01*
X150669Y175169D02*
Y176169D01*
X158831Y180000D02*
X159831D01*
X159331Y179500D02*
Y180500D01*
X154500Y180000D02*
X155500D01*
X155000Y179500D02*
Y180500D01*
X150169Y180000D02*
X151169D01*
X150669Y179500D02*
Y180500D01*
X158831Y184331D02*
X159831D01*
X159331Y183831D02*
Y184831D01*
X154500Y184331D02*
X155500D01*
X155000Y183831D02*
Y184831D01*
X150169Y184331D02*
X151169D01*
X150669Y183831D02*
Y184831D01*
X222669Y184331D02*
X223669D01*
X223169Y183831D02*
Y184831D01*
X227000Y184331D02*
X228000D01*
X227500Y183831D02*
Y184831D01*
X231331Y184331D02*
X232331D01*
X231831Y183831D02*
Y184831D01*
X222669Y180000D02*
X223669D01*
X223169Y179500D02*
Y180500D01*
X227000Y180000D02*
X228000D01*
X227500Y179500D02*
Y180500D01*
X231331Y180000D02*
X232331D01*
X231831Y179500D02*
Y180500D01*
X222669Y175669D02*
X223669D01*
X223169Y175169D02*
Y176169D01*
X227000Y175669D02*
X228000D01*
X227500Y175169D02*
Y176169D01*
X231331Y175669D02*
X232331D01*
X231831Y175169D02*
Y176169D01*
X308831Y175669D02*
X309831D01*
X309331Y175169D02*
Y176169D01*
X304500Y175669D02*
X305500D01*
X305000Y175169D02*
Y176169D01*
X300169Y175669D02*
X301169D01*
X300669Y175169D02*
Y176169D01*
X308831Y180000D02*
X309831D01*
X309331Y179500D02*
Y180500D01*
X304500Y180000D02*
X305500D01*
X305000Y179500D02*
Y180500D01*
X300169Y180000D02*
X301169D01*
X300669Y179500D02*
Y180500D01*
X308831Y184331D02*
X309831D01*
X309331Y183831D02*
Y184831D01*
X304500Y184331D02*
X305500D01*
X305000Y183831D02*
Y184831D01*
X300169Y184331D02*
X301169D01*
X300669Y183831D02*
Y184831D01*
X370169Y184331D02*
X371169D01*
X370669Y183831D02*
Y184831D01*
X374500Y184331D02*
X375500D01*
X375000Y183831D02*
Y184831D01*
X378831Y184331D02*
X379831D01*
X379331Y183831D02*
Y184831D01*
X370169Y180000D02*
X371169D01*
X370669Y179500D02*
Y180500D01*
X374500Y180000D02*
X375500D01*
X375000Y179500D02*
Y180500D01*
X378831Y180000D02*
X379831D01*
X379331Y179500D02*
Y180500D01*
X370169Y175669D02*
X371169D01*
X370669Y175169D02*
Y176169D01*
X374500Y175669D02*
X375500D01*
X375000Y175169D02*
Y176169D01*
X378831Y175669D02*
X379831D01*
X379331Y175169D02*
Y176169D01*
X448831Y175669D02*
X449831D01*
X449331Y175169D02*
Y176169D01*
X444500Y175669D02*
X445500D01*
X445000Y175169D02*
Y176169D01*
X440169Y175669D02*
X441169D01*
X440669Y175169D02*
Y176169D01*
X448831Y180000D02*
X449831D01*
X449331Y179500D02*
Y180500D01*
X444500Y180000D02*
X445500D01*
X445000Y179500D02*
Y180500D01*
X440169Y180000D02*
X441169D01*
X440669Y179500D02*
Y180500D01*
X448831Y184331D02*
X449831D01*
X449331Y183831D02*
Y184831D01*
X444500Y184331D02*
X445500D01*
X445000Y183831D02*
Y184831D01*
X440169Y184331D02*
X441169D01*
X440669Y183831D02*
Y184831D01*
X128050Y130800D02*
X129550D01*
X128800Y130050D02*
Y131550D01*
X422250Y200500D02*
X423750D01*
X423000Y199750D02*
Y201250D01*
X348250Y201000D02*
X349750D01*
X349000Y200250D02*
Y201750D01*
X346625Y212000D02*
X348125D01*
X347375Y211250D02*
Y212750D01*
X286250Y203500D02*
X287750D01*
X287000Y202750D02*
Y204250D01*
X204450Y200800D02*
X205950D01*
X205200Y200050D02*
Y201550D01*
X196000Y211500D02*
X197500D01*
X196750Y210750D02*
Y212250D01*
X126250Y204000D02*
X127750D01*
X127000Y203250D02*
Y204750D01*
X418750Y446500D02*
X420250D01*
X419500Y445750D02*
Y447250D01*
X360016Y406500D02*
X361984D01*
X361000Y405515D02*
Y407484D01*
X365250Y402500D02*
X366750D01*
X366000Y401750D02*
Y403250D01*
X370250Y417000D02*
X371750D01*
X371000Y416250D02*
Y417750D01*
X377250Y392250D02*
X378750D01*
X378000Y391500D02*
Y393000D01*
X369750Y408000D02*
X371250D01*
X370500Y407250D02*
Y408750D01*
X274250Y340900D02*
X275750D01*
X275000Y340150D02*
Y341650D01*
X273192Y347731D02*
X274692D01*
X273942Y346981D02*
Y348481D01*
X280850Y356600D02*
X282350D01*
X281600Y355850D02*
Y357350D01*
X277450Y359300D02*
X278950D01*
X278200Y358550D02*
Y360050D01*
X386889Y375700D02*
X388389D01*
X387639Y374950D02*
Y376450D01*
X314250Y268700D02*
X315750D01*
X315000Y267950D02*
Y269450D01*
X358716Y165700D02*
X360684D01*
X359700Y164716D02*
Y166684D01*
X323450Y126700D02*
X324950D01*
X324200Y125950D02*
Y127450D01*
X311575Y136300D02*
X313075D01*
X312325Y135550D02*
Y137050D01*
X303950Y164200D02*
X305450D01*
X304700Y163450D02*
Y164950D01*
X154000Y165750D02*
X155500D01*
X154750Y165000D02*
Y166500D01*
X412450Y391400D02*
X413950D01*
X413200Y390650D02*
Y392150D01*
X323050Y294200D02*
X324550D01*
X323800Y293450D02*
Y294950D01*
X322050Y290000D02*
X323550D01*
X322800Y289250D02*
Y290750D01*
X327550Y282500D02*
X329050D01*
X328300Y281750D02*
Y283250D01*
X320150Y286300D02*
X321650D01*
X320900Y285550D02*
Y287050D01*
X302250Y289600D02*
X303750D01*
X303000Y288850D02*
Y290350D01*
X310550Y292530D02*
X312050D01*
X311300Y291780D02*
Y293280D01*
X310550Y288730D02*
X312050D01*
X311300Y287980D02*
Y289480D01*
X291350Y323200D02*
X292850D01*
X292100Y322450D02*
Y323950D01*
X286250Y369400D02*
X287750D01*
X287000Y368650D02*
Y370150D01*
X290350Y370400D02*
X291850D01*
X291100Y369650D02*
Y371150D01*
X289950Y376400D02*
X291450D01*
X290700Y375650D02*
Y377150D01*
X284850Y378369D02*
X286350D01*
X285600Y377619D02*
Y379119D01*
X293050Y365600D02*
X294550D01*
X293800Y364850D02*
Y366350D01*
X289150Y362300D02*
X290650D01*
X289900Y361550D02*
Y363050D01*
X294196Y372954D02*
X295696D01*
X294946Y372204D02*
Y373704D01*
X372450Y378700D02*
X373950D01*
X373200Y377950D02*
Y379450D01*
X359850Y347700D02*
X361350D01*
X360600Y346950D02*
Y348450D01*
X356050Y347800D02*
X357550D01*
X356800Y347050D02*
Y348550D01*
X364850Y347800D02*
X366350D01*
X365600Y347050D02*
Y348550D01*
X362450Y358200D02*
X363950D01*
X363200Y357450D02*
Y358950D01*
X373350Y347700D02*
X374850D01*
X374100Y346950D02*
Y348450D01*
X377050Y347900D02*
X378550D01*
X377800Y347150D02*
Y348650D01*
X382050Y347900D02*
X383550D01*
X382800Y347150D02*
Y348650D01*
X385850Y347900D02*
X387350D01*
X386600Y347150D02*
Y348650D01*
X369250Y367900D02*
X370750D01*
X370000Y367150D02*
Y368650D01*
X352650Y376400D02*
X354150D01*
X353400Y375650D02*
Y377150D01*
X373350Y367400D02*
X374850D01*
X374100Y366650D02*
Y368150D01*
X379850Y368400D02*
X381350D01*
X380600Y367650D02*
Y369150D01*
X383750Y368400D02*
X385250D01*
X384500Y367650D02*
Y369150D01*
X388850Y368000D02*
X390350D01*
X389600Y367250D02*
Y368750D01*
X366450Y378900D02*
X367950D01*
X367200Y378150D02*
Y379650D01*
X362450Y378800D02*
X363950D01*
X363200Y378050D02*
Y379550D01*
X296950Y274500D02*
X298450D01*
X297700Y273750D02*
Y275250D01*
X287050Y274300D02*
X288550D01*
X287800Y273550D02*
Y275050D01*
X291150Y274900D02*
X292650D01*
X291900Y274150D02*
Y275650D01*
X296050Y288958D02*
X297550D01*
X296800Y288208D02*
Y289708D01*
X306550Y257900D02*
X308050D01*
X307300Y257150D02*
Y258650D01*
X359250Y307300D02*
X360750D01*
X360000Y306550D02*
Y308050D01*
X358350Y311100D02*
X359850D01*
X359100Y310350D02*
Y311850D01*
X347244Y295202D02*
X348744D01*
X347994Y294452D02*
Y295952D01*
X294350Y316400D02*
X295850D01*
X295100Y315650D02*
Y317150D01*
X304150Y347900D02*
X305650D01*
X304900Y347150D02*
Y348650D01*
X293650Y340000D02*
X295150D01*
X294400Y339250D02*
Y340750D01*
X360780Y285270D02*
X362280D01*
X361530Y284520D02*
Y286020D01*
X247450Y302600D02*
X248950D01*
X248200Y301850D02*
Y303350D01*
X244650Y306300D02*
X246150D01*
X245400Y305550D02*
Y307050D01*
X364150Y330600D02*
X365650D01*
X364900Y329850D02*
Y331350D01*
X322050Y305600D02*
X323550D01*
X322800Y304850D02*
Y306350D01*
X330231Y304691D02*
X331731D01*
X330981Y303941D02*
Y305441D01*
X328300Y307992D02*
X329800D01*
X329050Y307242D02*
Y308742D01*
X340000Y321750D02*
X341500D01*
X340750Y321000D02*
Y322500D01*
X305050Y314900D02*
X306550D01*
X305800Y314150D02*
Y315650D01*
X399569Y381750D02*
X401931D01*
X400750Y380569D02*
Y382931D01*
X376550Y377800D02*
X378050D01*
X377300Y377050D02*
Y378550D01*
X388250Y381500D02*
X389750D01*
X389000Y380750D02*
Y382250D01*
X335250Y355300D02*
X336750D01*
X336000Y354550D02*
Y356050D01*
X338950Y354200D02*
X340450D01*
X339700Y353450D02*
Y354950D01*
X321750Y310100D02*
X323250D01*
X322500Y309350D02*
Y310850D01*
X296050Y355300D02*
X297550D01*
X296800Y354550D02*
Y356050D01*
X296050Y330900D02*
X297550D01*
X296800Y330150D02*
Y331650D01*
X295850Y322800D02*
X297350D01*
X296600Y322050D02*
Y323550D01*
X291450Y330890D02*
X292950D01*
X292200Y330140D02*
Y331640D01*
X293250Y346000D02*
X294750D01*
X294000Y345250D02*
Y346750D01*
X297450Y346000D02*
X298950D01*
X298200Y345250D02*
Y346750D01*
X281050Y299100D02*
X282550D01*
X281800Y298350D02*
Y299850D01*
X254150Y350700D02*
X255650D01*
X254900Y349950D02*
Y351450D01*
X247550Y340000D02*
X249050D01*
X248300Y339250D02*
Y340750D01*
X261450Y352400D02*
X262950D01*
X262200Y351650D02*
Y353150D01*
X420050Y232000D02*
X421550D01*
X420800Y231250D02*
Y232750D01*
X418350Y275000D02*
X419850D01*
X419100Y274250D02*
Y275750D01*
X432350Y280400D02*
X433850D01*
X433100Y279650D02*
Y281150D01*
X425923Y268773D02*
X427423D01*
X426673Y268023D02*
Y269523D01*
X431750Y258200D02*
X433250D01*
X432500Y257450D02*
Y258950D01*
X387150Y265300D02*
X388650D01*
X387900Y264550D02*
Y266050D01*
X306550Y237600D02*
X308050D01*
X307300Y236850D02*
Y238350D01*
X226980Y232870D02*
X228480D01*
X227730Y232120D02*
Y233620D01*
X221420Y232870D02*
X222920D01*
X222170Y232120D02*
Y233620D01*
X198950Y230100D02*
X200450D01*
X199700Y229350D02*
Y230850D01*
X176550Y233100D02*
X178050D01*
X177300Y232350D02*
Y233850D01*
X154150Y230300D02*
X155650D01*
X154900Y229550D02*
Y231050D01*
X133050Y222700D02*
X134550D01*
X133800Y221950D02*
Y223450D01*
X337250Y284000D02*
X338750D01*
X338000Y283250D02*
Y284750D01*
X331150Y291100D02*
X332650D01*
X331900Y290350D02*
Y291850D01*
X109750Y291000D02*
X111250D01*
X110500Y290250D02*
Y291750D01*
X113850Y291300D02*
X115350D01*
X114600Y290550D02*
Y292050D01*
X318350Y262800D02*
X319850D01*
X319100Y262050D02*
Y263550D01*
X306450Y231400D02*
X307950D01*
X307200Y230650D02*
Y232150D01*
X324247Y228584D02*
X325747D01*
X324997Y227834D02*
Y229334D01*
X320250Y230100D02*
X321750D01*
X321000Y229350D02*
Y230850D01*
X313050Y215100D02*
X314550D01*
X313800Y214350D02*
Y215850D01*
X301150Y233600D02*
X302650D01*
X301900Y232850D02*
Y234350D01*
X294250Y233000D02*
X295750D01*
X295000Y232250D02*
Y233750D01*
X293950Y236700D02*
X295450D01*
X294700Y235950D02*
Y237450D01*
X271850Y231900D02*
X273350D01*
X272600Y231150D02*
Y232650D01*
X280750Y254100D02*
X282250D01*
X281500Y253350D02*
Y254850D01*
X283650Y256500D02*
X285150D01*
X284400Y255750D02*
Y257250D01*
X273050Y218300D02*
X274550D01*
X273800Y217550D02*
Y219050D01*
X228350Y215200D02*
X229850D01*
X229100Y214450D02*
Y215950D01*
X119450Y232900D02*
X120950D01*
X120200Y232150D02*
Y233650D01*
X123950Y232700D02*
X125450D01*
X124700Y231950D02*
Y233450D01*
X137550Y226900D02*
X139050D01*
X138300Y226150D02*
Y227650D01*
X166850Y253100D02*
X168350D01*
X167600Y252350D02*
Y253850D01*
X187975Y219606D02*
X189475D01*
X188725Y218856D02*
Y220356D01*
X180150Y230100D02*
X181650D01*
X180900Y229350D02*
Y230850D01*
X206850Y252100D02*
X208350D01*
X207600Y251350D02*
Y252850D01*
X248950Y252300D02*
X250450D01*
X249700Y251550D02*
Y253050D01*
X321550Y240500D02*
X323050D01*
X322300Y239750D02*
Y241250D01*
X342050Y230300D02*
X343550D01*
X342800Y229550D02*
Y231050D01*
X333650Y215200D02*
X335150D01*
X334400Y214450D02*
Y215950D01*
X294950Y218000D02*
X296450D01*
X295700Y217250D02*
Y218750D01*
X280350Y218100D02*
X281850D01*
X281100Y217350D02*
Y218850D01*
X219950Y238500D02*
X221450D01*
X220700Y237750D02*
Y239250D01*
X239850Y215200D02*
X241350D01*
X240600Y214450D02*
Y215950D01*
X247950Y215200D02*
X249450D01*
X248700Y214450D02*
Y215950D01*
X220250Y215200D02*
X221750D01*
X221000Y214450D02*
Y215950D01*
X207350Y215400D02*
X208850D01*
X208100Y214650D02*
Y216150D01*
X383250Y226500D02*
X384750D01*
X384000Y225750D02*
Y227250D01*
X419950Y253500D02*
X421450D01*
X420700Y252750D02*
Y254250D01*
X426979Y293361D02*
X428479D01*
X427729Y292611D02*
Y294111D01*
X192250Y313500D02*
X193750D01*
X193000Y312750D02*
Y314250D01*
X281150Y242400D02*
X282650D01*
X281900Y241650D02*
Y243150D01*
X388194Y219500D02*
X389694D01*
X388944Y218750D02*
Y220250D01*
X306950Y241300D02*
X308450D01*
X307700Y240550D02*
Y242050D01*
X348550Y219600D02*
X350050D01*
X349300Y218850D02*
Y220350D01*
X364250Y228400D02*
X365750D01*
X365000Y227650D02*
Y229150D01*
X276150Y311300D02*
X277650D01*
X276900Y310550D02*
Y312050D01*
X369515Y391000D02*
X371484D01*
X370500Y390016D02*
Y391985D01*
X365841Y391500D02*
X367810D01*
X366825Y390515D02*
Y392484D01*
X359250Y448000D02*
X360750D01*
X360000Y447250D02*
Y448750D01*
X356750Y451002D02*
X358250D01*
X357500Y450252D02*
Y451752D01*
X346250Y455500D02*
X347750D01*
X347000Y454750D02*
Y456250D01*
X124515Y178000D02*
X126485D01*
X125500Y177015D02*
Y178984D01*
X475846Y433539D02*
X477346D01*
X476596Y432789D02*
Y434289D01*
X122252Y501250D02*
X123752D01*
X123002Y500500D02*
Y502000D01*
X274850Y126763D02*
X276350D01*
X275600Y126013D02*
Y127513D01*
X272450Y126763D02*
X273950D01*
X273200Y126013D02*
Y127513D01*
X317850Y126800D02*
X319350D01*
X318600Y126050D02*
Y127550D01*
X290450Y126800D02*
X291950D01*
X291200Y126050D02*
Y127550D01*
X284450Y126800D02*
X285950D01*
X285200Y126050D02*
Y127550D01*
X241750Y301750D02*
X243250D01*
X242500Y301000D02*
Y302500D01*
X150919Y314050D02*
X152419D01*
X151669Y313300D02*
Y314800D01*
X150719Y307550D02*
X152219D01*
X151469Y306800D02*
Y308300D01*
X217269Y313750D02*
X218769D01*
X218019Y313000D02*
Y314500D01*
X103019Y353242D02*
X104519D01*
X103769Y352492D02*
Y353992D01*
X103019Y337494D02*
X104519D01*
X103769Y336744D02*
Y338244D01*
X103019Y321746D02*
X104519D01*
X103769Y320996D02*
Y322496D01*
X103019Y305998D02*
X104519D01*
X103769Y305248D02*
Y306748D01*
X234769Y328250D02*
X236269D01*
X235519Y327500D02*
Y329000D01*
X115519Y357750D02*
X117019D01*
X116269Y357000D02*
Y358500D01*
X129950Y292700D02*
X131450D01*
X130700Y291950D02*
Y293450D01*
X145269Y290000D02*
X146769D01*
X146019Y289250D02*
Y290750D01*
X103050Y296800D02*
X104550D01*
X103800Y296050D02*
Y297550D01*
X103019Y357750D02*
X104519D01*
X103769Y357000D02*
Y358500D01*
X205019Y361750D02*
X206519D01*
X205769Y361000D02*
Y362500D01*
X230269Y355250D02*
X231769D01*
X231019Y354500D02*
Y356000D01*
X133269Y317500D02*
X134769D01*
X134019Y316750D02*
Y318250D01*
X128019Y337250D02*
X129519D01*
X128769Y336500D02*
Y338000D01*
X135019Y345000D02*
X136519D01*
X135769Y344250D02*
Y345750D01*
X209519Y301250D02*
X211019D01*
X210269Y300500D02*
Y302000D01*
X205769Y289650D02*
X207269D01*
X206519Y288900D02*
Y290400D01*
X199269Y304500D02*
X200769D01*
X200019Y303750D02*
Y305250D01*
X173019Y306250D02*
X174519D01*
X173769Y305500D02*
Y307000D01*
X189819Y299050D02*
X191319D01*
X190569Y298300D02*
Y299800D01*
X184769Y307250D02*
X186269D01*
X185519Y306500D02*
Y308000D01*
X186519Y290250D02*
X188019D01*
X187269Y289500D02*
Y291000D01*
X174019Y290250D02*
X175519D01*
X174769Y289500D02*
Y291000D01*
X171519Y297750D02*
X173019D01*
X172269Y297000D02*
Y298500D01*
X165019Y306250D02*
X166519D01*
X165769Y305500D02*
Y307000D01*
X159269Y324250D02*
X160769D01*
X160019Y323500D02*
Y325000D01*
X158019Y339750D02*
X159519D01*
X158769Y339000D02*
Y340500D01*
X180269Y337250D02*
X181269D01*
X180769Y336750D02*
Y337750D01*
X173269Y316500D02*
X174769D01*
X174019Y315750D02*
Y317250D01*
X167019Y322750D02*
X168519D01*
X167769Y322000D02*
Y323500D01*
X168269Y335750D02*
X169769D01*
X169019Y335000D02*
Y336500D01*
X180250Y329769D02*
X181250D01*
X180750Y329269D02*
Y330269D01*
X471750Y495000D02*
X473250D01*
X472500Y494250D02*
Y495750D01*
X459250Y462500D02*
X460750D01*
X460000Y461750D02*
Y463250D01*
X461750Y457250D02*
X463250D01*
X462500Y456500D02*
Y458000D01*
X460000Y494500D02*
X461500D01*
X460750Y493750D02*
Y495250D01*
X459250Y480000D02*
X460750D01*
X460000Y479250D02*
Y480750D01*
X471750Y480000D02*
X473250D01*
X472500Y479250D02*
Y480750D01*
X471500Y457250D02*
X473000D01*
X472250Y456500D02*
Y458000D01*
X466250Y457250D02*
X467750D01*
X467000Y456500D02*
Y458000D01*
X476750Y427500D02*
X478250D01*
X477500Y426750D02*
Y428250D01*
X466750Y425000D02*
X468250D01*
X467500Y424250D02*
Y425750D01*
X494250Y425000D02*
X495750D01*
X495000Y424250D02*
Y425750D01*
X471750Y427500D02*
X473250D01*
X472500Y426750D02*
Y428250D01*
X489250Y422500D02*
X490750D01*
X490000Y421750D02*
Y423250D01*
X494250Y420000D02*
X495750D01*
X495000Y419250D02*
Y420750D01*
X494250Y415000D02*
X495750D01*
X495000Y414250D02*
Y415750D01*
X489250Y417500D02*
X490750D01*
X490000Y416750D02*
Y418250D01*
X487911Y332500D02*
X489411D01*
X488661Y331750D02*
Y333250D01*
X473581Y332500D02*
X475081D01*
X474331Y331750D02*
Y333250D01*
X481957Y332687D02*
X483457D01*
X482707Y331937D02*
Y333437D01*
X493256Y332569D02*
X494756D01*
X494006Y331819D02*
Y333319D01*
X466250Y332750D02*
X467750D01*
X467000Y332000D02*
Y333500D01*
X494400Y311300D02*
X495900D01*
X495150Y310550D02*
Y312050D01*
X499900Y304650D02*
X501400D01*
X500650Y303900D02*
Y305400D01*
X402250Y472750D02*
X403750D01*
X403000Y472000D02*
Y473500D01*
X406500Y469000D02*
X408000D01*
X407250Y468250D02*
Y469750D01*
X399250Y462000D02*
X400750D01*
X400000Y461250D02*
Y462750D01*
X402750Y462000D02*
X404250D01*
X403500Y461250D02*
Y462750D01*
X406500Y461750D02*
X408000D01*
X407250Y461000D02*
Y462500D01*
X406500Y465250D02*
X408000D01*
X407250Y464500D02*
Y466000D01*
X406500Y472750D02*
X408000D01*
X407250Y472000D02*
Y473500D01*
X344250Y465000D02*
X345750D01*
X345000Y464250D02*
Y465750D01*
X335250Y468900D02*
X336750D01*
X336000Y468150D02*
Y469650D01*
X336250Y474750D02*
X337750D01*
X337000Y474000D02*
Y475500D01*
X333150Y462800D02*
X334650D01*
X333900Y462050D02*
Y463550D01*
X331750Y468900D02*
X333250D01*
X332500Y468150D02*
Y469650D01*
X331750Y475000D02*
X333250D01*
X332500Y474250D02*
Y475750D01*
X356516Y432250D02*
X358485D01*
X357500Y431265D02*
Y433235D01*
X356750Y424750D02*
X358250D01*
X357500Y424000D02*
Y425500D01*
X356750Y417250D02*
X358250D01*
X357500Y416500D02*
Y418000D01*
X356516Y409750D02*
X358485D01*
X357500Y408766D02*
Y410735D01*
X356516Y402250D02*
X358485D01*
X357500Y401265D02*
Y403234D01*
X349015Y402250D02*
X350985D01*
X350000Y401265D02*
Y403234D01*
X349015Y409750D02*
X350985D01*
X350000Y408766D02*
Y410735D01*
X349250Y417250D02*
X350750D01*
X350000Y416500D02*
Y418000D01*
X349250Y424750D02*
X350750D01*
X350000Y424000D02*
Y425500D01*
X349015Y432250D02*
X350985D01*
X350000Y431265D02*
Y433235D01*
X341515Y432250D02*
X343484D01*
X342500Y431265D02*
Y433235D01*
X341750Y424750D02*
X343250D01*
X342500Y424000D02*
Y425500D01*
X341750Y417250D02*
X343250D01*
X342500Y416500D02*
Y418000D01*
X341515Y409750D02*
X343484D01*
X342500Y408766D02*
Y410735D01*
X341515Y402250D02*
X343484D01*
X342500Y401265D02*
Y403234D01*
X289016Y454750D02*
X290985D01*
X290000Y453765D02*
Y455734D01*
X296515Y454750D02*
X298484D01*
X297500Y453765D02*
Y455734D01*
X304015Y454750D02*
X305984D01*
X305000Y453765D02*
Y455734D01*
X311515Y454750D02*
X313485D01*
X312500Y453765D02*
Y455734D01*
X319016Y454750D02*
X320985D01*
X320000Y453765D02*
Y455734D01*
X326516Y454750D02*
X328485D01*
X327500Y453765D02*
Y455734D01*
X334015Y454750D02*
X335984D01*
X335000Y453765D02*
Y455734D01*
X334015Y447250D02*
X335984D01*
X335000Y446266D02*
Y448235D01*
X326750Y447250D02*
X328250D01*
X327500Y446500D02*
Y448000D01*
X319250Y447250D02*
X320750D01*
X320000Y446500D02*
Y448000D01*
X311750Y447250D02*
X313250D01*
X312500Y446500D02*
Y448000D01*
X304250Y447250D02*
X305750D01*
X305000Y446500D02*
Y448000D01*
X296750Y447250D02*
X298250D01*
X297500Y446500D02*
Y448000D01*
X289016Y447250D02*
X290985D01*
X290000Y446266D02*
Y448235D01*
X289016Y439750D02*
X290985D01*
X290000Y438765D02*
Y440734D01*
X296750Y439750D02*
X298250D01*
X297500Y439000D02*
Y440500D01*
X304250Y439750D02*
X305750D01*
X305000Y439000D02*
Y440500D01*
X311750Y439750D02*
X313250D01*
X312500Y439000D02*
Y440500D01*
X319250Y439750D02*
X320750D01*
X320000Y439000D02*
Y440500D01*
X326750Y439750D02*
X328250D01*
X327500Y439000D02*
Y440500D01*
X334015Y439750D02*
X335984D01*
X335000Y438765D02*
Y440734D01*
X334015Y432250D02*
X335984D01*
X335000Y431265D02*
Y433235D01*
X326750Y432250D02*
X328250D01*
X327500Y431500D02*
Y433000D01*
X319250Y432250D02*
X320750D01*
X320000Y431500D02*
Y433000D01*
X311750Y432250D02*
X313250D01*
X312500Y431500D02*
Y433000D01*
X304250Y432250D02*
X305750D01*
X305000Y431500D02*
Y433000D01*
X296750Y432250D02*
X298250D01*
X297500Y431500D02*
Y433000D01*
X289016Y432250D02*
X290985D01*
X290000Y431265D02*
Y433235D01*
X289016Y424750D02*
X290985D01*
X290000Y423766D02*
Y425735D01*
X289016Y417250D02*
X290985D01*
X290000Y416265D02*
Y418234D01*
X289016Y409750D02*
X290985D01*
X290000Y408766D02*
Y410735D01*
X296515Y409750D02*
X298484D01*
X297500Y408766D02*
Y410735D01*
X296515Y417250D02*
X298484D01*
X297500Y416265D02*
Y418234D01*
X296515Y424750D02*
X298484D01*
X297500Y423766D02*
Y425735D01*
X304015Y409750D02*
X305984D01*
X305000Y408766D02*
Y410735D01*
X304015Y417250D02*
X305984D01*
X305000Y416265D02*
Y418234D01*
X334015Y402250D02*
X335984D01*
X335000Y401265D02*
Y403234D01*
X334015Y409750D02*
X335984D01*
X335000Y408766D02*
Y410735D01*
X334015Y417250D02*
X335984D01*
X335000Y416265D02*
Y418234D01*
X334015Y424750D02*
X335984D01*
X335000Y423766D02*
Y425735D01*
X304015Y424750D02*
X305984D01*
X305000Y423766D02*
Y425735D01*
X311515Y424750D02*
X313485D01*
X312500Y423766D02*
Y425735D01*
X326516Y424750D02*
X328485D01*
X327500Y423766D02*
Y425735D01*
X319016Y424750D02*
X320985D01*
X320000Y423766D02*
Y425735D01*
X284015Y432500D02*
X285984D01*
X285000Y431516D02*
Y433485D01*
X284015Y425000D02*
X285984D01*
X285000Y424016D02*
Y425984D01*
X284015Y410000D02*
X285984D01*
X285000Y409016D02*
Y410985D01*
X366750Y447500D02*
X368250D01*
X367500Y446750D02*
Y448250D01*
X284823Y452687D02*
X286791D01*
X285807Y451702D02*
Y453672D01*
X254015Y432500D02*
X255984D01*
X255000Y431516D02*
Y433485D01*
X254015Y425000D02*
X255984D01*
X255000Y424016D02*
Y425984D01*
X254015Y417500D02*
X255984D01*
X255000Y416515D02*
Y418484D01*
X250715Y413400D02*
X252684D01*
X251700Y412416D02*
Y414385D01*
X254015Y455000D02*
X255984D01*
X255000Y454015D02*
Y455984D01*
X246515Y455000D02*
X248484D01*
X247500Y454015D02*
Y455984D01*
X239016Y455000D02*
X240985D01*
X240000Y454015D02*
Y455984D01*
X209015Y455000D02*
X210984D01*
X210000Y454015D02*
Y455984D01*
X216515Y455000D02*
X218484D01*
X217500Y454015D02*
Y455984D01*
X224015Y455000D02*
X225985D01*
X225000Y454015D02*
Y455984D01*
X231516Y455000D02*
X233485D01*
X232500Y454015D02*
Y455984D01*
X209015Y417500D02*
X210984D01*
X210000Y416515D02*
Y418484D01*
X211515Y412500D02*
X213485D01*
X212500Y411516D02*
Y413484D01*
X216515Y412500D02*
X218484D01*
X217500Y411516D02*
Y413484D01*
X216515Y417500D02*
X218484D01*
X217500Y416515D02*
Y418484D01*
X206516Y407500D02*
X208485D01*
X207500Y406516D02*
Y408485D01*
X246515Y410000D02*
X248484D01*
X247500Y409016D02*
Y410985D01*
X246515Y417500D02*
X248484D01*
X247500Y416515D02*
Y418484D01*
X246515Y425000D02*
X248484D01*
X247500Y424016D02*
Y425984D01*
X239016Y425000D02*
X240985D01*
X240000Y424016D02*
Y425984D01*
X231516Y425000D02*
X233485D01*
X232500Y424016D02*
Y425984D01*
X224015Y425000D02*
X225985D01*
X225000Y424016D02*
Y425984D01*
X216515Y425000D02*
X218484D01*
X217500Y424016D02*
Y425984D01*
X224015Y447500D02*
X225985D01*
X225000Y446516D02*
Y448485D01*
X253516Y447700D02*
X255485D01*
X254500Y446715D02*
Y448685D01*
X246515Y447500D02*
X248484D01*
X247500Y446516D02*
Y448485D01*
X239016Y447500D02*
X240985D01*
X240000Y446516D02*
Y448485D01*
X231516Y447500D02*
X233485D01*
X232500Y446516D02*
Y448485D01*
X231516Y440000D02*
X233485D01*
X232500Y439015D02*
Y440984D01*
X239016Y440000D02*
X240985D01*
X240000Y439015D02*
Y440984D01*
X246515Y440000D02*
X248484D01*
X247500Y439015D02*
Y440984D01*
X254015Y440000D02*
X255984D01*
X255000Y439015D02*
Y440984D01*
X246515Y432500D02*
X248484D01*
X247500Y431516D02*
Y433485D01*
X239016Y432500D02*
X240985D01*
X240000Y431516D02*
Y433485D01*
X231516Y432500D02*
X233485D01*
X232500Y431516D02*
Y433485D01*
X224015Y432500D02*
X225985D01*
X225000Y431516D02*
Y433485D01*
X216515Y432500D02*
X218484D01*
X217500Y431516D02*
Y433485D01*
X209015Y432500D02*
X210984D01*
X210000Y431516D02*
Y433485D01*
X209015Y425000D02*
X210984D01*
X210000Y424016D02*
Y425984D01*
X191516Y453750D02*
X193484D01*
X192500Y452766D02*
Y454735D01*
X199015Y453750D02*
X200985D01*
X200000Y452766D02*
Y454735D01*
X184016Y453750D02*
X185985D01*
X185000Y452766D02*
Y454735D01*
X184016Y433750D02*
X185985D01*
X185000Y432765D02*
Y434734D01*
X194016Y433750D02*
X195984D01*
X195000Y432765D02*
Y434734D01*
X184016Y426250D02*
X185985D01*
X185000Y425266D02*
Y427235D01*
X191516Y426250D02*
X193484D01*
X192500Y425266D02*
Y427235D01*
X199015Y426250D02*
X200985D01*
X200000Y425266D02*
Y427235D01*
X187144Y459213D02*
X188644D01*
X187894Y458463D02*
Y459963D01*
X191888Y459213D02*
X193388D01*
X192638Y458463D02*
Y459963D01*
X181888Y459213D02*
X183388D01*
X182638Y458463D02*
Y459963D01*
X197144Y459213D02*
X198644D01*
X197894Y458463D02*
Y459963D01*
X166000Y395700D02*
X167500D01*
X166750Y394950D02*
Y396450D01*
X161515Y455000D02*
X163485D01*
X162500Y454015D02*
Y455984D01*
X154016Y455000D02*
X155984D01*
X155000Y454015D02*
Y455984D01*
X146516Y455000D02*
X148485D01*
X147500Y454015D02*
Y455984D01*
X131516Y455000D02*
X133484D01*
X132500Y454015D02*
Y455984D01*
X139015Y455000D02*
X140984D01*
X140000Y454015D02*
Y455984D01*
X131516Y447500D02*
X133484D01*
X132500Y446516D02*
Y448485D01*
X139015Y447500D02*
X140984D01*
X140000Y446516D02*
Y448485D01*
X146516Y447500D02*
X148485D01*
X147500Y446516D02*
Y448485D01*
X154016Y447500D02*
X155984D01*
X155000Y446516D02*
Y448485D01*
X161515Y447500D02*
X163485D01*
X162500Y446516D02*
Y448485D01*
X161515Y440000D02*
X163485D01*
X162500Y439015D02*
Y440984D01*
X154016Y440000D02*
X155984D01*
X155000Y439015D02*
Y440984D01*
X146516Y440000D02*
X148485D01*
X147500Y439015D02*
Y440984D01*
X139015Y440000D02*
X140984D01*
X140000Y439015D02*
Y440984D01*
X131516Y440000D02*
X133484D01*
X132500Y439015D02*
Y440984D01*
X131516Y432500D02*
X133484D01*
X132500Y431516D02*
Y433485D01*
X139015Y432500D02*
X140984D01*
X140000Y431516D02*
Y433485D01*
X146516Y432500D02*
X148485D01*
X147500Y431516D02*
Y433485D01*
X154016Y432500D02*
X155984D01*
X155000Y431516D02*
Y433485D01*
X161515Y432500D02*
X163485D01*
X162500Y431516D02*
Y433485D01*
X169016Y432500D02*
X170984D01*
X170000Y431516D02*
Y433485D01*
X169016Y417500D02*
X170984D01*
X170000Y416515D02*
Y418484D01*
X169016Y425000D02*
X170984D01*
X170000Y424016D02*
Y425984D01*
X136515Y412500D02*
X138485D01*
X137500Y411516D02*
Y413484D01*
X139015Y417500D02*
X140984D01*
X140000Y416515D02*
Y418484D01*
X131516Y417500D02*
X133484D01*
X132500Y416515D02*
Y418484D01*
X131516Y425000D02*
X133484D01*
X132500Y424016D02*
Y425984D01*
X139015Y425000D02*
X140984D01*
X140000Y424016D02*
Y425984D01*
X146516Y425000D02*
X148485D01*
X147500Y424016D02*
Y425984D01*
X161515Y425000D02*
X163485D01*
X162500Y424016D02*
Y425984D01*
X154016Y425000D02*
X155984D01*
X155000Y424016D02*
Y425984D01*
X199750Y344750D02*
X201250D01*
X200500Y344000D02*
Y345500D01*
X199750Y337000D02*
X201250D01*
X200500Y336250D02*
Y337750D01*
X185500Y318750D02*
X187000D01*
X186250Y318000D02*
Y319500D01*
X203000Y351250D02*
X204500D01*
X203750Y350500D02*
Y352000D01*
X199750Y331250D02*
X201250D01*
X200500Y330500D02*
Y332000D01*
X194250Y320000D02*
X195750D01*
X195000Y319250D02*
Y320750D01*
X190000Y318250D02*
X191500D01*
X190750Y317500D02*
Y319000D01*
X418515Y439500D02*
X420484D01*
X419500Y438516D02*
Y440485D01*
X431516Y437500D02*
X433485D01*
X432500Y436516D02*
Y438484D01*
X441515Y430500D02*
X443484D01*
X442500Y429516D02*
Y431485D01*
X441265Y426250D02*
X443234D01*
X442250Y425266D02*
Y427235D01*
X440266Y406250D02*
X442235D01*
X441250Y405266D02*
Y407234D01*
X428016Y426250D02*
X429985D01*
X429000Y425266D02*
Y427235D01*
X204750Y399000D02*
X206250D01*
X205500Y398250D02*
Y399750D01*
X176875Y398125D02*
X178375D01*
X177625Y397375D02*
Y398875D01*
X139250Y397500D02*
X140750D01*
X140000Y396750D02*
Y398250D01*
X435766Y434000D02*
X437735D01*
X436750Y433015D02*
Y434984D01*
X438250Y453500D02*
X439750D01*
X439000Y452750D02*
Y454250D01*
X413516Y437500D02*
X415485D01*
X414500Y436516D02*
Y438484D01*
X441265Y422250D02*
X443234D01*
X442250Y421266D02*
Y423235D01*
X366750Y496500D02*
X368250D01*
X367500Y495750D02*
Y497250D01*
X334650Y483000D02*
X336150D01*
X335400Y482250D02*
Y483750D01*
X337250Y489400D02*
X338750D01*
X338000Y488650D02*
Y490150D01*
X342550Y489300D02*
X344050D01*
X343300Y488550D02*
Y490050D01*
X339950Y482700D02*
X341450D01*
X340700Y481950D02*
Y483450D01*
X363050Y496800D02*
X364550D01*
X363800Y496050D02*
Y497550D01*
X360000Y490750D02*
X361500D01*
X360750Y490000D02*
Y491500D01*
X363650Y490700D02*
X365150D01*
X364400Y489950D02*
Y491450D01*
X339750Y496000D02*
X341250D01*
X340500Y495250D02*
Y496750D01*
X206724Y481256D02*
X208224D01*
X207474Y480506D02*
Y482006D01*
X201974Y481256D02*
X203474D01*
X202724Y480506D02*
Y482006D01*
X286750Y481250D02*
X288250D01*
X287500Y480500D02*
Y482000D01*
X199250Y491250D02*
X200750D01*
X200000Y490500D02*
Y492000D01*
X251750Y491250D02*
X253250D01*
X252500Y490500D02*
Y492000D01*
X296750Y491250D02*
X298250D01*
X297500Y490500D02*
Y492000D01*
X344950Y495900D02*
X346450D01*
X345700Y495150D02*
Y496650D01*
X281750Y481250D02*
X283250D01*
X282500Y480500D02*
Y482000D01*
X246750Y481250D02*
X248250D01*
X247500Y480500D02*
Y482000D01*
X241750Y481250D02*
X243250D01*
X242500Y480500D02*
Y482000D01*
X171750Y482500D02*
X173250D01*
X172500Y481750D02*
Y483250D01*
X174250Y398000D02*
X175750D01*
X175000Y397250D02*
Y398750D01*
X166287Y482894D02*
X167787D01*
X167037Y482144D02*
Y483644D01*
X168906Y479917D02*
X170406D01*
X169656Y479167D02*
Y480667D01*
X479469Y252000D02*
X481831D01*
X480650Y250819D02*
Y253181D01*
X469469Y252000D02*
X471831D01*
X470650Y250819D02*
Y253181D01*
X484469Y257000D02*
X486831D01*
X485650Y255819D02*
Y258181D01*
X472816Y174800D02*
X474785D01*
X473800Y173816D02*
Y175785D01*
X416965Y173400D02*
X418934D01*
X417950Y172415D02*
Y174384D01*
X396765Y173500D02*
X398734D01*
X397750Y172515D02*
Y174485D01*
X351516Y173500D02*
X353485D01*
X352500Y172515D02*
Y174485D01*
X327266Y173500D02*
X329235D01*
X328250Y172515D02*
Y174485D01*
X277516Y173500D02*
X279485D01*
X278500Y172515D02*
Y174485D01*
X253015Y173500D02*
X254984D01*
X254000Y172515D02*
Y174485D01*
X202216Y173500D02*
X204185D01*
X203200Y172515D02*
Y174485D01*
X178315Y173500D02*
X180285D01*
X179300Y172515D02*
Y174485D01*
X125466Y175000D02*
X127435D01*
X126450Y174015D02*
Y175985D01*
X463544Y212350D02*
X465044D01*
X464294Y211600D02*
Y213100D01*
X420816Y173400D02*
X422785D01*
X421800Y172415D02*
Y174384D01*
X347765Y173500D02*
X349734D01*
X348750Y172515D02*
Y174485D01*
X400516Y173500D02*
X402485D01*
X401500Y172515D02*
Y174485D01*
X273765Y173500D02*
X275734D01*
X274750Y172515D02*
Y174485D01*
X331015Y173500D02*
X332984D01*
X332000Y172515D02*
Y174485D01*
X198766Y173500D02*
X200734D01*
X199750Y172515D02*
Y174485D01*
X256715Y173500D02*
X258684D01*
X257700Y172515D02*
Y174485D01*
X181765Y173500D02*
X183735D01*
X182750Y172515D02*
Y174485D01*
X173500Y219500D02*
X175000D01*
X174250Y218750D02*
Y220250D01*
X480719Y264400D02*
X483081D01*
X481900Y263219D02*
Y265581D01*
X317375Y205625D02*
X318875D01*
X318125Y204875D02*
Y206375D01*
X462819Y257000D02*
X465181D01*
X464000Y255819D02*
Y258181D01*
X474469Y257000D02*
X476831D01*
X475650Y255819D02*
Y258181D01*
X456250Y225750D02*
X457750D01*
X457000Y225000D02*
Y226500D01*
X115924Y370393D02*
X117424D01*
X116674Y369643D02*
Y371143D01*
X402835Y219458D02*
X404335D01*
X403585Y218708D02*
Y220208D01*
X142297Y219346D02*
X143797D01*
X143047Y218596D02*
Y220096D01*
X425073Y219416D02*
X426573D01*
X425823Y218666D02*
Y220166D01*
X415266Y186250D02*
X417235D01*
X416250Y185266D02*
Y187234D01*
X466865Y173050D02*
X468834D01*
X467850Y172065D02*
Y174035D01*
X474366Y165550D02*
X476334D01*
X475350Y164566D02*
Y166534D01*
X466865Y165550D02*
X468834D01*
X467850Y164566D02*
Y166534D01*
X459366Y165550D02*
X461335D01*
X460350Y164566D02*
Y166534D01*
X459366Y173050D02*
X461335D01*
X460350Y172065D02*
Y174035D01*
X413765Y165650D02*
X415734D01*
X414750Y164665D02*
Y166635D01*
X421266Y165650D02*
X423235D01*
X422250Y164665D02*
Y166635D01*
X428765Y165650D02*
X430734D01*
X429750Y164665D02*
Y166635D01*
X428765Y173150D02*
X430734D01*
X429750Y172166D02*
Y174135D01*
X404365Y165750D02*
X406334D01*
X405350Y164766D02*
Y166735D01*
X396866Y165750D02*
X398834D01*
X397850Y164766D02*
Y166735D01*
X389366Y165750D02*
X391335D01*
X390350Y164766D02*
Y166735D01*
X389366Y173250D02*
X391335D01*
X390350Y172266D02*
Y174234D01*
X343765Y165750D02*
X345735D01*
X344750Y164766D02*
Y166735D01*
X351266Y165750D02*
X353235D01*
X352250Y164766D02*
Y166735D01*
X358766Y173250D02*
X360735D01*
X359750Y172266D02*
Y174234D01*
X334366Y165650D02*
X336334D01*
X335350Y164665D02*
Y166635D01*
X326866Y165650D02*
X328835D01*
X327850Y164665D02*
Y166635D01*
X319366Y165650D02*
X321335D01*
X320350Y164665D02*
Y166635D01*
X319366Y173150D02*
X321335D01*
X320350Y172166D02*
Y174135D01*
X273765Y165550D02*
X275734D01*
X274750Y164566D02*
Y166534D01*
X281265Y165550D02*
X283235D01*
X282250Y164566D02*
Y166534D01*
X288766Y165550D02*
X290735D01*
X289750Y164566D02*
Y166534D01*
X288766Y173050D02*
X290735D01*
X289750Y172065D02*
Y174035D01*
X257066Y165550D02*
X259034D01*
X258050Y164566D02*
Y166534D01*
X249566Y165550D02*
X251535D01*
X250550Y164566D02*
Y166534D01*
X242066Y165550D02*
X244035D01*
X243050Y164566D02*
Y166534D01*
X242066Y173050D02*
X244035D01*
X243050Y172065D02*
Y174035D01*
X195966Y165650D02*
X197934D01*
X196950Y164665D02*
Y166635D01*
X203466Y165650D02*
X205434D01*
X204450Y164665D02*
Y166635D01*
X210965Y165650D02*
X212934D01*
X211950Y164665D02*
Y166635D01*
X210965Y173150D02*
X212934D01*
X211950Y172166D02*
Y174135D01*
X177566Y165550D02*
X179534D01*
X178550Y164566D02*
Y166534D01*
X170065Y165550D02*
X172035D01*
X171050Y164566D02*
Y166534D01*
X170065Y173050D02*
X172035D01*
X171050Y172065D02*
Y174035D01*
X405775Y130700D02*
X407275D01*
X406525Y129950D02*
Y131450D01*
X412666Y173450D02*
X414635D01*
X413650Y172466D02*
Y174434D01*
X410365Y177550D02*
X412334D01*
X411350Y176566D02*
Y178534D01*
X226600Y151500D02*
X228100D01*
X227350Y150750D02*
Y152250D01*
X159550Y151300D02*
X161050D01*
X160300Y150550D02*
Y152050D01*
X154000Y155750D02*
X155500D01*
X154750Y155000D02*
Y156500D01*
X471775Y146600D02*
X473275D01*
X472525Y145850D02*
Y147350D01*
X469275Y146600D02*
X470775D01*
X470025Y145850D02*
Y147350D01*
X461475Y145800D02*
X462975D01*
X462225Y145050D02*
Y146550D01*
X458975Y145800D02*
X460475D01*
X459725Y145050D02*
Y146550D01*
X448875Y135100D02*
X450375D01*
X449625Y134350D02*
Y135850D01*
X451375Y135100D02*
X452875D01*
X452125Y134350D02*
Y135850D01*
X437075Y135100D02*
X438575D01*
X437825Y134350D02*
Y135850D01*
X439575Y135100D02*
X441075D01*
X440325Y134350D02*
Y135850D01*
X427075Y145600D02*
X428575D01*
X427825Y144850D02*
Y146350D01*
X429575Y145600D02*
X431075D01*
X430325Y144850D02*
Y146350D01*
X416775Y146600D02*
X418275D01*
X417525Y145850D02*
Y147350D01*
X419275Y146600D02*
X420775D01*
X420025Y145850D02*
Y147350D01*
X400075Y146600D02*
X401575D01*
X400825Y145850D02*
Y147350D01*
X402575Y146600D02*
X404075D01*
X403325Y145850D02*
Y147350D01*
X392275Y145600D02*
X393775D01*
X393025Y144850D02*
Y146350D01*
X389775Y145600D02*
X391275D01*
X390525Y144850D02*
Y146350D01*
X381575Y135100D02*
X383075D01*
X382325Y134350D02*
Y135850D01*
X379075Y135100D02*
X380575D01*
X379825Y134350D02*
Y135850D01*
X366675Y135200D02*
X368175D01*
X367425Y134450D02*
Y135950D01*
X369175Y135200D02*
X370675D01*
X369925Y134450D02*
Y135950D01*
X358675Y145600D02*
X360175D01*
X359425Y144850D02*
Y146350D01*
X356175Y145600D02*
X357675D01*
X356925Y144850D02*
Y146350D01*
X348175Y146600D02*
X349675D01*
X348925Y145850D02*
Y147350D01*
X345675Y146600D02*
X347175D01*
X346425Y145850D02*
Y147350D01*
X332475Y146700D02*
X333975D01*
X333225Y145950D02*
Y147450D01*
X329975Y146700D02*
X331475D01*
X330725Y145950D02*
Y147450D01*
X322075Y145700D02*
X323575D01*
X322825Y144950D02*
Y146450D01*
X319575Y145700D02*
X321075D01*
X320325Y144950D02*
Y146450D01*
X309075Y136300D02*
X310575D01*
X309825Y135550D02*
Y137050D01*
X285875Y145600D02*
X287375D01*
X286625Y144850D02*
Y146350D01*
X275175Y146700D02*
X276675D01*
X275925Y145950D02*
Y147450D01*
X296575Y136300D02*
X298075D01*
X297325Y135550D02*
Y137050D01*
X299075Y136300D02*
X300575D01*
X299825Y135550D02*
Y137050D01*
X288375Y145600D02*
X289875D01*
X289125Y144850D02*
Y146350D01*
X277675Y146700D02*
X279175D01*
X278425Y145950D02*
Y147450D01*
X444000Y151750D02*
X445500D01*
X444750Y151000D02*
Y152500D01*
X444000Y158250D02*
X445500D01*
X444750Y157500D02*
Y159000D01*
X444000Y165750D02*
X445500D01*
X444750Y165000D02*
Y166500D01*
X374100Y150250D02*
X375600D01*
X374850Y149500D02*
Y151000D01*
X374100Y157750D02*
X375600D01*
X374850Y157000D02*
Y158500D01*
X374000Y165750D02*
X375500D01*
X374750Y165000D02*
Y166500D01*
X304100Y150250D02*
X305600D01*
X304850Y149500D02*
Y151000D01*
X304100Y157750D02*
X305600D01*
X304850Y157000D02*
Y158500D01*
X125466Y170750D02*
X127435D01*
X126450Y169765D02*
Y171734D01*
X226600Y157750D02*
X228100D01*
X227350Y157000D02*
Y158500D01*
X226500Y165750D02*
X228000D01*
X227250Y165000D02*
Y166500D01*
X413275Y130700D02*
X414775D01*
X414025Y129950D02*
Y131450D01*
X423275Y130700D02*
X424775D01*
X424025Y129950D02*
Y131450D01*
X444375Y129600D02*
X445875D01*
X445125Y128850D02*
Y130350D01*
X475475Y130700D02*
X476975D01*
X476225Y129950D02*
Y131450D01*
X465475Y130700D02*
X466975D01*
X466225Y129950D02*
Y131450D01*
X455475Y130700D02*
X456975D01*
X456225Y129950D02*
Y131450D01*
X433275Y130700D02*
X434775D01*
X434025Y129950D02*
Y131450D01*
X395775Y130700D02*
X397275D01*
X396525Y129950D02*
Y131450D01*
X385775Y130700D02*
X387275D01*
X386525Y129950D02*
Y131450D01*
X374175Y130000D02*
X375675D01*
X374925Y129250D02*
Y130750D01*
X342575Y130700D02*
X344075D01*
X343325Y129950D02*
Y131450D01*
X352575Y130700D02*
X354075D01*
X353325Y129950D02*
Y131450D01*
X362575Y130700D02*
X364075D01*
X363325Y129950D02*
Y131450D01*
X335675Y130700D02*
X337175D01*
X336425Y129950D02*
Y131450D01*
X325675Y130700D02*
X327175D01*
X326425Y129950D02*
Y131450D01*
X304175Y130600D02*
X305675D01*
X304925Y129850D02*
Y131350D01*
X272675Y130700D02*
X274175D01*
X273425Y129950D02*
Y131450D01*
X282675Y130700D02*
X284175D01*
X283425Y129950D02*
Y131450D01*
X292675Y130700D02*
X294175D01*
X293425Y129950D02*
Y131450D01*
X315675Y130700D02*
X317175D01*
X316425Y129950D02*
Y131450D01*
X253975Y146600D02*
X255475D01*
X254725Y145850D02*
Y147350D01*
X251575Y146600D02*
X253075D01*
X252325Y145850D02*
Y147350D01*
X241375Y145700D02*
X242875D01*
X242125Y144950D02*
Y146450D01*
X243775Y145700D02*
X245275D01*
X244525Y144950D02*
Y146450D01*
X233575Y135100D02*
X235075D01*
X234325Y134350D02*
Y135850D01*
X231175Y135100D02*
X232675D01*
X231925Y134350D02*
Y135850D01*
X221675Y135100D02*
X223175D01*
X222425Y134350D02*
Y135850D01*
X219275Y135100D02*
X220775D01*
X220025Y134350D02*
Y135850D01*
X211675Y145600D02*
X213175D01*
X212425Y144850D02*
Y146350D01*
X209275Y145600D02*
X210775D01*
X210025Y144850D02*
Y146350D01*
X201575Y146500D02*
X203075D01*
X202325Y145750D02*
Y147250D01*
X199075Y146500D02*
X200575D01*
X199825Y145750D02*
Y147250D01*
X226575Y130000D02*
X228075D01*
X227325Y129250D02*
Y130750D01*
X257775Y130800D02*
X259275D01*
X258525Y130050D02*
Y131550D01*
X247775Y130800D02*
X249275D01*
X248525Y130050D02*
Y131550D01*
X237775Y130800D02*
X239275D01*
X238525Y130050D02*
Y131550D01*
X195275Y130800D02*
X196775D01*
X196025Y130050D02*
Y131550D01*
X205275Y130800D02*
X206775D01*
X206025Y130050D02*
Y131550D01*
X190875Y130900D02*
X192375D01*
X191625Y130150D02*
Y131650D01*
X159375Y130000D02*
X160875D01*
X160125Y129250D02*
Y130750D01*
X138575Y130800D02*
X140075D01*
X139325Y130050D02*
Y131550D01*
X132325Y147000D02*
X133825D01*
X133075Y146250D02*
Y147750D01*
X134925Y147000D02*
X136425D01*
X135675Y146250D02*
Y147750D01*
X185125Y157900D02*
X186625D01*
X185875Y157150D02*
Y158650D01*
X163925Y135300D02*
X165425D01*
X164675Y134550D02*
Y136050D01*
X166225Y135300D02*
X167725D01*
X166975Y134550D02*
Y136050D01*
X152425Y135200D02*
X153925D01*
X153175Y134450D02*
Y135950D01*
X154825Y135200D02*
X156325D01*
X155575Y134450D02*
Y135950D01*
X142425Y145700D02*
X143925D01*
X143175Y144950D02*
Y146450D01*
X144825Y145700D02*
X146325D01*
X145575Y144950D02*
Y146450D01*
X176425Y145700D02*
X177925D01*
X177175Y144950D02*
Y146450D01*
X148575Y130800D02*
X150075D01*
X149325Y130050D02*
Y131550D01*
X215275Y130800D02*
X216775D01*
X216025Y130050D02*
Y131550D01*
X170575Y130900D02*
X172075D01*
X171325Y130150D02*
Y131650D01*
X180875Y130900D02*
X182375D01*
X181625Y130150D02*
Y131650D01*
X183565Y193850D02*
X185535D01*
X184550Y192866D02*
Y194834D01*
X184365Y205550D02*
X186335D01*
X185350Y204566D02*
Y206535D01*
X187266Y185850D02*
X189234D01*
X188250Y184865D02*
Y186835D01*
X469115Y184050D02*
X471084D01*
X470100Y183065D02*
Y185035D01*
X407165Y177550D02*
X409134D01*
X408150Y176566D02*
Y178534D01*
X340865Y177350D02*
X342834D01*
X341850Y176365D02*
Y178334D01*
X337965Y177350D02*
X339934D01*
X338950Y176365D02*
Y178334D01*
X266666Y177250D02*
X268635D01*
X267650Y176266D02*
Y178235D01*
X263865Y177250D02*
X265834D01*
X264850Y176266D02*
Y178235D01*
X172016Y191250D02*
X173985D01*
X173000Y190266D02*
Y192235D01*
X191665Y177450D02*
X193634D01*
X192650Y176465D02*
Y178435D01*
X188766Y177450D02*
X190735D01*
X189750Y176465D02*
Y178435D01*
X185966Y173550D02*
X187935D01*
X186950Y172565D02*
Y174534D01*
X194366Y173550D02*
X196335D01*
X195350Y172565D02*
Y174534D01*
X260915Y173400D02*
X262884D01*
X261900Y172415D02*
Y174384D01*
X269366Y173450D02*
X271335D01*
X270350Y172466D02*
Y174434D01*
X343366Y173550D02*
X345335D01*
X344350Y172565D02*
Y174534D01*
X404766Y173450D02*
X406735D01*
X405750Y172466D02*
Y174434D01*
X398250Y402250D02*
X399750D01*
X399000Y401500D02*
Y403000D01*
X393250Y402250D02*
X394750D01*
X394000Y401500D02*
Y403000D01*
X393250Y397250D02*
X394750D01*
X394000Y396500D02*
Y398000D01*
X398250Y397250D02*
X399750D01*
X399000Y396500D02*
Y398000D01*
X455750Y418250D02*
X457250D01*
X456500Y417500D02*
Y419000D01*
X360750Y483250D02*
X362250D01*
X361500Y482500D02*
Y484000D01*
X193000Y208500D02*
X194500D01*
X193750Y207750D02*
Y209250D01*
X127000Y377032D02*
X128500D01*
X127750Y376282D02*
Y377782D01*
X130000Y398532D02*
X131500D01*
X130750Y397782D02*
Y399282D01*
X370750Y453250D02*
X372250D01*
X371500Y452500D02*
Y454000D01*
X426750Y404500D02*
X428250D01*
X427500Y403750D02*
Y405250D01*
X420750Y411000D02*
X422250D01*
X421500Y410250D02*
Y411750D01*
X420750Y424250D02*
X422250D01*
X421500Y423500D02*
Y425000D01*
X426500Y417750D02*
X428000D01*
X427250Y417000D02*
Y418500D01*
X429750Y446000D02*
X431250D01*
X430500Y445250D02*
Y446750D01*
X365000Y424250D02*
X366500D01*
X365750Y423500D02*
Y425000D01*
X399819Y387250D02*
X402181D01*
X401000Y386069D02*
Y388431D01*
X399819Y376250D02*
X402181D01*
X401000Y375069D02*
Y377431D01*
X140266Y196250D02*
X142235D01*
X141250Y195265D02*
Y197234D01*
X484515Y163750D02*
X486484D01*
X485500Y162766D02*
Y164734D01*
X477015Y203750D02*
X478984D01*
X478000Y202765D02*
Y204734D01*
X469516Y203750D02*
X471485D01*
X470500Y202765D02*
Y204734D01*
X469516Y196250D02*
X471485D01*
X470500Y195265D02*
Y197234D01*
X462015Y203750D02*
X463984D01*
X463000Y202765D02*
Y204734D01*
X462015Y196250D02*
X463984D01*
X463000Y195265D02*
Y197234D01*
X335665Y173550D02*
X337634D01*
X336650Y172565D02*
Y174534D01*
X463016Y184000D02*
X464985D01*
X464000Y183016D02*
Y184985D01*
X446250Y225524D02*
X447750D01*
X447000Y224774D02*
Y226274D01*
X476050Y287400D02*
X477550D01*
X476800Y286650D02*
Y288150D01*
X340550Y330200D02*
X342050D01*
X341300Y329450D02*
Y330950D01*
X238375Y359250D02*
X239875D01*
X239125Y358500D02*
Y360000D01*
X272765Y193750D02*
X274734D01*
X273750Y192765D02*
Y194735D01*
X272765Y186250D02*
X274734D01*
X273750Y185266D02*
Y187234D01*
X269500Y455750D02*
X271000D01*
X270250Y455000D02*
Y456500D01*
X393765Y376000D02*
X395735D01*
X394750Y375015D02*
Y376985D01*
X118000Y417530D02*
X119500D01*
X118750Y416780D02*
Y418280D01*
X243475Y322450D02*
X244975D01*
X244225Y321700D02*
Y323200D01*
X103250Y264785D02*
X104750D01*
X104000Y264035D02*
Y265535D01*
X103250Y249037D02*
X104750D01*
X104000Y248287D02*
Y249787D01*
X103250Y233289D02*
X104750D01*
X104000Y232539D02*
Y234039D01*
X103250Y217541D02*
X104750D01*
X104000Y216791D02*
Y218291D01*
X103250Y201793D02*
X104750D01*
X104000Y201043D02*
Y202543D01*
X103250Y170297D02*
X104750D01*
X104000Y169547D02*
Y171047D01*
X103250Y154549D02*
X104750D01*
X104000Y153799D02*
Y155299D01*
X103250Y138801D02*
X104750D01*
X104000Y138051D02*
Y139551D01*
X103250Y123053D02*
X104750D01*
X104000Y122303D02*
Y123803D01*
X103050Y291700D02*
X104550D01*
X103800Y290950D02*
Y292450D01*
X134791Y103750D02*
X136291D01*
X135541Y103000D02*
Y104500D01*
X150539Y103750D02*
X152039D01*
X151289Y103000D02*
Y104500D01*
X166287Y103750D02*
X167787D01*
X167037Y103000D02*
Y104500D01*
X182035Y103750D02*
X183535D01*
X182785Y103000D02*
Y104500D01*
X197783Y103750D02*
X199283D01*
X198533Y103000D02*
Y104500D01*
X213531Y103750D02*
X215031D01*
X214281Y103000D02*
Y104500D01*
X229280Y103750D02*
X230780D01*
X230030Y103000D02*
Y104500D01*
X245028Y103750D02*
X246528D01*
X245778Y103000D02*
Y104500D01*
X260776Y103750D02*
X262276D01*
X261526Y103000D02*
Y104500D01*
X276524Y103750D02*
X278024D01*
X277274Y103000D02*
Y104500D01*
X292272Y103750D02*
X293772D01*
X293022Y103000D02*
Y104500D01*
X308020Y103750D02*
X309520D01*
X308770Y103000D02*
Y104500D01*
X323768Y103750D02*
X325268D01*
X324518Y103000D02*
Y104500D01*
X339516Y103750D02*
X341016D01*
X340266Y103000D02*
Y104500D01*
X355264Y103750D02*
X356764D01*
X356014Y103000D02*
Y104500D01*
X371012Y103750D02*
X372512D01*
X371762Y103000D02*
Y104500D01*
X386760Y103750D02*
X388260D01*
X387510Y103000D02*
Y104500D01*
X402508Y103750D02*
X404008D01*
X403258Y103000D02*
Y104500D01*
X418256Y103750D02*
X419756D01*
X419006Y103000D02*
Y104500D01*
X434004Y103750D02*
X435504D01*
X434754Y103000D02*
Y104500D01*
X449752Y103750D02*
X451252D01*
X450502Y103000D02*
Y104500D01*
X481248Y103750D02*
X482748D01*
X481998Y103000D02*
Y104500D01*
X505500Y131033D02*
X507000D01*
X506250Y130283D02*
Y131783D01*
X505500Y146782D02*
X507000D01*
X506250Y146032D02*
Y147532D01*
X505500Y162530D02*
X507000D01*
X506250Y161780D02*
Y163280D01*
X505500Y178278D02*
X507000D01*
X506250Y177528D02*
Y179028D01*
X505500Y194026D02*
X507000D01*
X506250Y193276D02*
Y194776D01*
X505500Y209774D02*
X507000D01*
X506250Y209024D02*
Y210524D01*
X505500Y225522D02*
X507000D01*
X506250Y224772D02*
Y226272D01*
X505500Y241270D02*
X507000D01*
X506250Y240520D02*
Y242020D01*
X505500Y257018D02*
X507000D01*
X506250Y256268D02*
Y257768D01*
X505500Y272766D02*
X507000D01*
X506250Y272016D02*
Y273516D01*
X505500Y288514D02*
X507000D01*
X506250Y287764D02*
Y289264D01*
X505500Y304262D02*
X507000D01*
X506250Y303512D02*
Y305012D01*
X505500Y320010D02*
X507000D01*
X506250Y319260D02*
Y320760D01*
X505500Y335758D02*
X507000D01*
X506250Y335008D02*
Y336508D01*
X505500Y351506D02*
X507000D01*
X506250Y350756D02*
Y352256D01*
X505500Y367254D02*
X507000D01*
X506250Y366504D02*
Y368004D01*
X505500Y383002D02*
X507000D01*
X506250Y382252D02*
Y383752D01*
X505500Y477490D02*
X507000D01*
X506250Y476740D02*
Y478240D01*
X505500Y461742D02*
X507000D01*
X506250Y460992D02*
Y462492D01*
X505500Y445994D02*
X507000D01*
X506250Y445244D02*
Y446744D01*
X505500Y430246D02*
X507000D01*
X506250Y429496D02*
Y430996D01*
X505500Y414498D02*
X507000D01*
X506250Y413748D02*
Y415248D01*
X486996Y501250D02*
X488496D01*
X487746Y500500D02*
Y502000D01*
X471248Y501250D02*
X472748D01*
X471998Y500500D02*
Y502000D01*
X439752Y501250D02*
X441252D01*
X440502Y500500D02*
Y502000D01*
X421504Y501299D02*
X423004D01*
X422254Y500549D02*
Y502049D01*
X404004Y501299D02*
X405504D01*
X404754Y500549D02*
Y502049D01*
X374220Y501250D02*
X375720D01*
X374970Y500500D02*
Y502000D01*
X358472Y501250D02*
X359972D01*
X359222Y500500D02*
Y502000D01*
X342724Y501250D02*
X344224D01*
X343474Y500500D02*
Y502000D01*
X326976Y501250D02*
X328476D01*
X327726Y500500D02*
Y502000D01*
X311228Y501250D02*
X312728D01*
X311978Y500500D02*
Y502000D01*
X295480Y501250D02*
X296980D01*
X296230Y500500D02*
Y502000D01*
X279732Y501250D02*
X281232D01*
X280482Y500500D02*
Y502000D01*
X263984Y501250D02*
X265484D01*
X264734Y500500D02*
Y502000D01*
X248236Y501250D02*
X249736D01*
X248986Y500500D02*
Y502000D01*
X232488Y501250D02*
X233988D01*
X233238Y500500D02*
Y502000D01*
X216740Y501250D02*
X218240D01*
X217490Y500500D02*
Y502000D01*
X200992Y501250D02*
X202492D01*
X201742Y500500D02*
Y502000D01*
X185244Y501250D02*
X186744D01*
X185994Y500500D02*
Y502000D01*
X169496Y501250D02*
X170996D01*
X170246Y500500D02*
Y502000D01*
X153748Y501250D02*
X155248D01*
X154498Y500500D02*
Y502000D01*
X103000Y477274D02*
X104500D01*
X103750Y476524D02*
Y478024D01*
X103000Y461526D02*
X104500D01*
X103750Y460776D02*
Y462276D01*
X103000Y445778D02*
X104500D01*
X103750Y445028D02*
Y446528D01*
X103000Y430030D02*
X104500D01*
X103750Y429280D02*
Y430780D01*
X103000Y414282D02*
X104500D01*
X103750Y413532D02*
Y415032D01*
X103000Y398533D02*
X104500D01*
X103750Y397783D02*
Y399283D01*
X103000Y384498D02*
X104500D01*
X103750Y383748D02*
Y385248D01*
X271375Y328750D02*
X272875D01*
X272125Y328000D02*
Y329500D01*
X262875Y324750D02*
X264375D01*
X263625Y324000D02*
Y325500D01*
X239875Y287750D02*
X241375D01*
X240625Y287000D02*
Y288500D01*
X251625Y328750D02*
X253125D01*
X252375Y328000D02*
Y329500D01*
X255825Y341500D02*
X257325D01*
X256575Y340750D02*
Y342250D01*
X145500Y371000D02*
X147000D01*
X146250Y370250D02*
Y371750D01*
X315850Y329900D02*
X317350D01*
X316600Y329150D02*
Y330650D01*
X258500Y402250D02*
X260000D01*
X259250Y401500D02*
Y403000D01*
X258450Y398900D02*
X259950D01*
X259200Y398150D02*
Y399650D01*
X258550Y395500D02*
X260050D01*
X259300Y394750D02*
Y396250D01*
X117765Y193750D02*
X119735D01*
X118750Y192765D02*
Y194735D01*
X125266Y193750D02*
X127234D01*
X126250Y192765D02*
Y194735D01*
X140266Y191250D02*
X142235D01*
X141250Y190266D02*
Y192235D01*
X117765Y186250D02*
X119735D01*
X118750Y185266D02*
Y187234D01*
X125266Y186250D02*
X127234D01*
X126250Y185266D02*
Y187234D01*
X132765Y186250D02*
X134734D01*
X133750Y185266D02*
Y187234D01*
X117765Y168750D02*
X119735D01*
X118750Y167765D02*
Y169735D01*
X125466Y167750D02*
X127435D01*
X126450Y166765D02*
Y168735D01*
X115266Y161250D02*
X117235D01*
X116250Y160266D02*
Y162234D01*
X122766Y161250D02*
X124734D01*
X123750Y160266D02*
Y162234D01*
X115266Y153750D02*
X117235D01*
X116250Y152766D02*
Y154735D01*
X122766Y153750D02*
X124734D01*
X123750Y152766D02*
Y154735D01*
X122766Y146250D02*
X124734D01*
X123750Y145265D02*
Y147234D01*
X164515Y191250D02*
X166484D01*
X165500Y190266D02*
Y192235D01*
X180265Y183950D02*
X182235D01*
X181250Y182966D02*
Y184934D01*
X197766Y186250D02*
X199734D01*
X198750Y185266D02*
Y187234D01*
X197766Y193750D02*
X199734D01*
X198750Y192765D02*
Y194735D01*
X205265Y186250D02*
X207235D01*
X206250Y185266D02*
Y187234D01*
X205265Y193750D02*
X207235D01*
X206250Y192765D02*
Y194735D01*
X212766Y191250D02*
X214735D01*
X213750Y190266D02*
Y192235D01*
X237766Y191250D02*
X239735D01*
X238750Y190266D02*
Y192235D01*
X250266Y186250D02*
X252235D01*
X251250Y185266D02*
Y187234D01*
X257766Y186250D02*
X259735D01*
X258750Y185266D02*
Y187234D01*
X250266Y193750D02*
X252235D01*
X251250Y192765D02*
Y194735D01*
X257766Y193750D02*
X259735D01*
X258750Y192765D02*
Y194735D01*
X280265Y186250D02*
X282235D01*
X281250Y185266D02*
Y187234D01*
X280265Y193750D02*
X282235D01*
X281250Y192765D02*
Y194735D01*
X290265Y191250D02*
X292234D01*
X291250Y190266D02*
Y192235D01*
X314766Y191250D02*
X316735D01*
X315750Y190266D02*
Y192235D01*
X325266Y186250D02*
X327235D01*
X326250Y185266D02*
Y187234D01*
X325266Y193750D02*
X327235D01*
X326250Y192765D02*
Y194735D01*
X332766Y193750D02*
X334735D01*
X333750Y192765D02*
Y194735D01*
X332766Y186250D02*
X334735D01*
X333750Y185266D02*
Y187234D01*
X345266Y186250D02*
X347235D01*
X346250Y185266D02*
Y187234D01*
X345266Y193750D02*
X347235D01*
X346250Y192765D02*
Y194735D01*
X352765Y186250D02*
X354734D01*
X353750Y185266D02*
Y187234D01*
X352765Y193750D02*
X354734D01*
X353750Y192765D02*
Y194735D01*
X360265Y191250D02*
X362234D01*
X361250Y190266D02*
Y192235D01*
X384516Y191250D02*
X386485D01*
X385500Y190266D02*
Y192235D01*
X395266Y186250D02*
X397235D01*
X396250Y185266D02*
Y187234D01*
X402766Y186250D02*
X404735D01*
X403750Y185266D02*
Y187234D01*
X395266Y193750D02*
X397235D01*
X396250Y192765D02*
Y194735D01*
X402766Y193750D02*
X404735D01*
X403750Y192765D02*
Y194735D01*
X415266Y193750D02*
X417235D01*
X416250Y192765D02*
Y194735D01*
X422765Y193750D02*
X424734D01*
X423750Y192765D02*
Y194735D01*
X422765Y186250D02*
X424734D01*
X423750Y185266D02*
Y187234D01*
X454516Y196250D02*
X456485D01*
X455500Y195265D02*
Y197234D01*
X430266Y191250D02*
X432234D01*
X431250Y190266D02*
Y192235D01*
X117765Y176250D02*
X119735D01*
X118750Y175266D02*
Y177234D01*
X174125Y145700D02*
X175625D01*
X174875Y144950D02*
Y146450D01*
X187725Y157900D02*
X189225D01*
X188475Y157150D02*
Y158650D01*
X356750Y392500D02*
X358250D01*
X357500Y391750D02*
Y393250D01*
X396750Y501250D02*
X398250D01*
X397500Y500500D02*
Y502000D01*
X381750Y501250D02*
X383250D01*
X382500Y500500D02*
Y502000D01*
X386750Y501250D02*
X388250D01*
X387500Y500500D02*
Y502000D01*
X391750Y501250D02*
X393250D01*
X392500Y500500D02*
Y502000D01*
X374250Y497750D02*
X375750D01*
X375000Y497000D02*
Y498500D01*
X394250Y497750D02*
X395750D01*
X395000Y497000D02*
Y498500D01*
X379250Y497750D02*
X380750D01*
X380000Y497000D02*
Y498500D01*
X389250Y497750D02*
X390750D01*
X390000Y497000D02*
Y498500D01*
X384250Y497750D02*
X385750D01*
X385000Y497000D02*
Y498500D01*
X375500Y492000D02*
X377000D01*
X376250Y491250D02*
Y492750D01*
X393000Y492000D02*
X394500D01*
X393750Y491250D02*
Y492750D01*
X465726Y440089D02*
X467226D01*
X466476Y439339D02*
Y440839D01*
X393569Y388500D02*
X395931D01*
X394750Y387319D02*
Y389681D01*
X455500Y501250D02*
X457000D01*
X456250Y500500D02*
Y502000D01*
X112405Y257480D02*
X113905D01*
X113155Y256730D02*
Y258230D01*
X141125Y267500D02*
X142625D01*
X141875Y266750D02*
Y268250D01*
X467579Y354892D02*
X469079D01*
X468329Y354142D02*
Y355642D01*
X481347Y293298D02*
X482847D01*
X482097Y292548D02*
Y294048D01*
X484800Y281150D02*
X486300D01*
X485550Y280400D02*
Y281900D01*
X481300Y281150D02*
X482800D01*
X482050Y280400D02*
Y281900D01*
X478050Y281150D02*
X479550D01*
X478800Y280400D02*
Y281900D01*
X477918Y293194D02*
X479418D01*
X478668Y292444D02*
Y293944D01*
X484870Y293223D02*
X486370D01*
X485620Y292473D02*
Y293973D01*
X486870Y287223D02*
X488370D01*
X487620Y286473D02*
Y287973D01*
X148240Y219685D02*
X149740D01*
X148990Y218935D02*
Y220435D01*
X432250Y220000D02*
X433750D01*
X433000Y219250D02*
Y220750D01*
X465750Y400500D02*
X467250D01*
X466500Y399750D02*
Y401250D01*
X486976Y400089D02*
X488476D01*
X487726Y399339D02*
Y400839D01*
X486726Y440089D02*
X488226D01*
X487476Y439339D02*
Y440839D01*
X476240Y446244D02*
X477740D01*
X476990Y445494D02*
Y446994D01*
X476240Y406730D02*
X477740D01*
X476990Y405980D02*
Y407480D01*
X476240Y393276D02*
X477740D01*
X476990Y392526D02*
Y394026D01*
X487264Y360167D02*
X488764D01*
X488014Y359417D02*
Y360917D01*
X476240Y353224D02*
X477740D01*
X476990Y352474D02*
Y353974D01*
X467579Y365285D02*
X469079D01*
X468329Y364535D02*
Y366035D01*
X476240Y366860D02*
X477740D01*
X476990Y366110D02*
Y367610D01*
X106504Y395374D02*
X108004D01*
X107254Y394624D02*
Y396124D01*
X392916Y219700D02*
X394884D01*
X393900Y218716D02*
Y220685D01*
X395750Y399750D02*
X397250D01*
X396500Y399000D02*
Y400500D01*
X103000Y368750D02*
X104500D01*
X103750Y368000D02*
Y369500D01*
X393250Y410750D02*
X394750D01*
X394000Y410000D02*
Y411500D01*
X476016Y184000D02*
X477985D01*
X477000Y183016D02*
Y184985D01*
X309250Y391250D02*
X310750D01*
X310000Y390500D02*
Y392000D01*
X323000Y391250D02*
X324500D01*
X323750Y390500D02*
Y392000D01*
X319250Y391250D02*
X320750D01*
X320000Y390500D02*
Y392000D01*
X314250Y391250D02*
X315750D01*
X315000Y390500D02*
Y392000D01*
X321515Y395000D02*
X323484D01*
X322500Y394016D02*
Y395985D01*
X326750Y391250D02*
X328250D01*
X327500Y390500D02*
Y392000D01*
X308000Y395000D02*
X309500D01*
X308750Y394250D02*
Y395750D01*
X316515Y395000D02*
X318484D01*
X317500Y394016D02*
Y395985D01*
X307766Y398750D02*
X309735D01*
X308750Y397765D02*
Y399734D01*
X311515Y395000D02*
X313485D01*
X312500Y394016D02*
Y395985D01*
X505500Y398750D02*
X507000D01*
X506250Y398000D02*
Y399500D01*
X465500Y103750D02*
X467000D01*
X466250Y103000D02*
Y104500D01*
X138000Y501250D02*
X139500D01*
X138750Y500500D02*
Y502000D01*
X229250Y395000D02*
X230750D01*
X230000Y394250D02*
Y395750D01*
X221000Y399500D02*
X222500D01*
X221750Y398750D02*
Y400250D01*
X224250Y395000D02*
X225750D01*
X225000Y394250D02*
Y395750D01*
X234500Y395000D02*
X236000D01*
X235250Y394250D02*
Y395750D01*
X184250Y395250D02*
X185750D01*
X185000Y394500D02*
Y396000D01*
X189250Y395250D02*
X190750D01*
X190000Y394500D02*
Y396000D01*
X194250Y395250D02*
X195750D01*
X195000Y394500D02*
Y396000D01*
X148750Y394250D02*
X150250D01*
X149500Y393500D02*
Y395000D01*
X154250Y394250D02*
X155750D01*
X155000Y393500D02*
Y395000D01*
X151500Y394250D02*
X153000D01*
X152250Y393500D02*
Y395000D01*
X146000Y394250D02*
X147500D01*
X146750Y393500D02*
Y395000D01*
X453659Y233020D02*
X455628D01*
X454644Y232035D02*
Y234004D01*
X451494Y219793D02*
X452994D01*
X452244Y219043D02*
Y220543D01*
X439362Y219606D02*
X440862D01*
X440112Y218856D02*
Y220356D01*
X381356Y219793D02*
X382856D01*
X382106Y219043D02*
Y220543D01*
X300150Y218800D02*
X301650D01*
X300900Y218050D02*
Y219550D01*
X155431Y219750D02*
X156931D01*
X156181Y219000D02*
Y220500D01*
X168000Y219500D02*
X169500D01*
X168750Y218750D02*
Y220250D01*
X129500Y390000D02*
X131000D01*
X130250Y389250D02*
Y390750D01*
X149000Y336250D02*
X150500D01*
X149750Y335500D02*
Y337000D01*
X148750Y330500D02*
X150250D01*
X149500Y329750D02*
Y331250D01*
X142750Y308500D02*
X144250D01*
X143500Y307750D02*
Y309250D01*
X140250Y306000D02*
X141750D01*
X141000Y305250D02*
Y306750D01*
X195000Y344000D02*
X196500D01*
X195750Y343250D02*
Y344750D01*
X175750Y347000D02*
X177250D01*
X176500Y346250D02*
Y347750D01*
X206100Y310200D02*
X207600D01*
X206850Y309450D02*
Y310950D01*
X207500Y293000D02*
X209000D01*
X208250Y292250D02*
Y293750D01*
X166872Y294750D02*
X169628D01*
X168250Y293372D02*
Y296128D01*
X156750Y351750D02*
X158250D01*
X157500Y351000D02*
Y352500D01*
X193000Y353500D02*
X194500D01*
X193750Y352750D02*
Y354250D01*
X476515Y177500D02*
X478484D01*
X477500Y176515D02*
Y178484D01*
X426832Y248782D02*
X428332D01*
X427582Y248032D02*
Y249532D01*
X282550Y304000D02*
X284050D01*
X283300Y303250D02*
Y304750D01*
X257350Y314900D02*
X258850D01*
X258100Y314150D02*
Y315650D01*
X250850Y288400D02*
X252350D01*
X251600Y287650D02*
Y289150D01*
X243950Y286600D02*
X245450D01*
X244700Y285850D02*
Y287350D01*
X237920Y284170D02*
X239420D01*
X238670Y283420D02*
Y284920D01*
X126250Y290700D02*
X127750D01*
X127000Y289950D02*
Y291450D01*
X122050Y290700D02*
X123550D01*
X122800Y289950D02*
Y291450D01*
X129250Y281800D02*
X130750D01*
X130000Y281050D02*
Y282550D01*
X250250Y308000D02*
X251750D01*
X251000Y307250D02*
Y308750D01*
X244850Y310200D02*
X246350D01*
X245600Y309450D02*
Y310950D01*
X316650Y366600D02*
X318150D01*
X317400Y365850D02*
Y367350D01*
X372650Y217200D02*
X374150D01*
X373400Y216450D02*
Y217950D01*
X365550Y217100D02*
X367050D01*
X366300Y216350D02*
Y217850D01*
X357950Y217100D02*
X359450D01*
X358700Y216350D02*
Y217850D01*
X341350Y316800D02*
X342850D01*
X342100Y316050D02*
Y317550D01*
X254250Y309200D02*
X255750D01*
X255000Y308450D02*
Y309950D01*
X315050Y351100D02*
X316550D01*
X315800Y350350D02*
Y351850D01*
X318950Y351100D02*
X320450D01*
X319700Y350350D02*
Y351850D01*
X293150Y309300D02*
X294650D01*
X293900Y308550D02*
Y310050D01*
X277150Y314900D02*
X278650D01*
X277900Y314150D02*
Y315650D01*
X331150Y264790D02*
X332650D01*
X331900Y264040D02*
Y265540D01*
X300800Y294100D02*
X302300D01*
X301550Y293350D02*
Y294850D01*
X285150Y218300D02*
X286650D01*
X285900Y217550D02*
Y219050D01*
X290550Y306500D02*
X292050D01*
X291300Y305750D02*
Y307250D01*
X300650Y258000D02*
X302150D01*
X301400Y257250D02*
Y258750D01*
X306350Y250300D02*
X307850D01*
X307100Y249550D02*
Y251050D01*
X299450Y262100D02*
X300950D01*
X300200Y261350D02*
Y262850D01*
X305950Y264300D02*
X307450D01*
X306700Y263550D02*
Y265050D01*
X305250Y246700D02*
X306750D01*
X306000Y245950D02*
Y247450D01*
X340550Y273600D02*
X342050D01*
X341300Y272850D02*
Y274350D01*
X318181Y274802D02*
X319681D01*
X318931Y274053D02*
Y275553D01*
X328581Y278200D02*
X330081D01*
X329331Y277450D02*
Y278950D01*
X324119Y273697D02*
X325619D01*
X324869Y272948D02*
Y274447D01*
X309850Y272400D02*
X311350D01*
X310600Y271650D02*
Y273150D01*
X310850Y276100D02*
X312350D01*
X311600Y275350D02*
Y276850D01*
X240650Y293600D02*
X242150D01*
X241400Y292850D02*
Y294350D01*
X368750Y266300D02*
X370250D01*
X369500Y265550D02*
Y267050D01*
X385550Y331100D02*
X387050D01*
X386300Y330350D02*
Y331850D01*
X284250Y279300D02*
X285750D01*
X285000Y278550D02*
Y280050D01*
X300350Y281400D02*
X301850D01*
X301100Y280650D02*
Y282150D01*
X257650Y284500D02*
X259150D01*
X258400Y283750D02*
Y285250D01*
X281450Y275500D02*
X282950D01*
X282200Y274750D02*
Y276250D01*
X286650Y267100D02*
X288150D01*
X287400Y266350D02*
Y267850D01*
X281250Y270900D02*
X282750D01*
X282000Y270150D02*
Y271650D01*
X327750Y293000D02*
X329250D01*
X328500Y292250D02*
Y293750D01*
X367650Y270700D02*
X369150D01*
X368400Y269950D02*
Y271450D01*
X449150Y228925D02*
X450650D01*
X449900Y228175D02*
Y229675D01*
X372050Y277050D02*
X373550D01*
X372800Y276300D02*
Y277800D01*
X386450Y324100D02*
X387950D01*
X387200Y323350D02*
Y324850D01*
X387450Y293700D02*
X388950D01*
X388200Y292950D02*
Y294450D01*
X357450Y323600D02*
X358950D01*
X358200Y322850D02*
Y324350D01*
X347350Y303600D02*
X348850D01*
X348100Y302850D02*
Y304350D01*
X345014Y300703D02*
X346514D01*
X345764Y299953D02*
Y301453D01*
X362450Y268500D02*
X363950D01*
X363200Y267750D02*
Y269250D01*
X354650Y268900D02*
X356150D01*
X355400Y268150D02*
Y269650D01*
X357050Y265700D02*
X358550D01*
X357800Y264950D02*
Y266450D01*
X351450Y273700D02*
X352950D01*
X352200Y272950D02*
Y274450D01*
X354350Y276300D02*
X355850D01*
X355100Y275550D02*
Y277050D01*
X363950Y278900D02*
X365450D01*
X364700Y278150D02*
Y279650D01*
X355450Y284700D02*
X356950D01*
X356200Y283950D02*
Y285450D01*
X368550Y347700D02*
X370050D01*
X369300Y346950D02*
Y348450D01*
X364450Y368000D02*
X365950D01*
X365200Y367250D02*
Y368750D01*
X304050Y364800D02*
X305550D01*
X304800Y364050D02*
Y365550D01*
X320250Y373000D02*
X321750D01*
X321000Y372250D02*
Y373750D01*
X315050Y377100D02*
X316550D01*
X315800Y376350D02*
Y377850D01*
X326950Y365700D02*
X328450D01*
X327700Y364950D02*
Y366450D01*
X325350Y375000D02*
X326850D01*
X326100Y374250D02*
Y375750D01*
X351850Y365700D02*
X353350D01*
X352600Y364950D02*
Y366450D01*
X360450Y368600D02*
X361950D01*
X361200Y367850D02*
Y369350D01*
X369050Y358400D02*
X370550D01*
X369800Y357650D02*
Y359150D01*
X357356Y364900D02*
X358856D01*
X358106Y364150D02*
Y365650D01*
X351015Y353600D02*
X352984D01*
X352000Y352615D02*
Y354585D01*
X394150Y357500D02*
X395650D01*
X394900Y356750D02*
Y358250D01*
X399450Y299100D02*
X400950D01*
X400200Y298350D02*
Y299850D01*
X375950Y330600D02*
X377450D01*
X376700Y329850D02*
Y331350D01*
X362550Y298100D02*
X364050D01*
X363300Y297350D02*
Y298850D01*
X358650Y297000D02*
X360150D01*
X359400Y296250D02*
Y297750D01*
X359850Y300700D02*
X361350D01*
X360600Y299950D02*
Y301450D01*
X398050Y303000D02*
X399550D01*
X398800Y302250D02*
Y303750D01*
X365150Y295400D02*
X366650D01*
X365900Y294650D02*
Y296150D01*
X379741Y278391D02*
X381241D01*
X380491Y277641D02*
Y279141D01*
X386050Y272500D02*
X387550D01*
X386800Y271750D02*
Y273250D01*
X390260Y275100D02*
X391760D01*
X391010Y274350D02*
Y275850D01*
X357650Y315000D02*
X359150D01*
X358400Y314250D02*
Y315750D01*
X329981Y273697D02*
X331481D01*
X330731Y272948D02*
Y274447D01*
X377350Y297600D02*
X378850D01*
X378100Y296850D02*
Y298350D01*
X395650Y307900D02*
X397150D01*
X396400Y307150D02*
Y308650D01*
X298650Y305500D02*
X300150D01*
X299400Y304750D02*
Y306250D01*
X340350Y343400D02*
X341850D01*
X341100Y342650D02*
Y344150D01*
X324950Y350400D02*
X326450D01*
X325700Y349650D02*
Y351150D01*
X301550Y341000D02*
X303050D01*
X302300Y340250D02*
Y341750D01*
X158500Y408106D02*
X159500D01*
X159000Y407606D02*
Y408606D01*
X162500Y408106D02*
X163500D01*
X163000Y407606D02*
Y408606D01*
X162500Y412106D02*
X163500D01*
X163000Y411606D02*
Y412606D01*
X158500Y412106D02*
X159500D01*
X159000Y411606D02*
Y412606D01*
X158500Y416106D02*
X159500D01*
X159000Y415606D02*
Y416606D01*
X162500Y416106D02*
X163500D01*
X163000Y415606D02*
Y416606D01*
X162500Y420106D02*
X163500D01*
X163000Y419606D02*
Y420606D01*
X158500Y420106D02*
X159500D01*
X159000Y419606D02*
Y420606D01*
X150500Y420106D02*
X151500D01*
X151000Y419606D02*
Y420606D01*
X146500Y420106D02*
X147500D01*
X147000Y419606D02*
Y420606D01*
X146500Y416106D02*
X147500D01*
X147000Y415606D02*
Y416606D01*
X150500Y416106D02*
X151500D01*
X151000Y415606D02*
Y416606D01*
X150500Y412106D02*
X151500D01*
X151000Y411606D02*
Y412606D01*
X146500Y412106D02*
X147500D01*
X147000Y411606D02*
Y412606D01*
X146500Y408106D02*
X147500D01*
X147000Y407606D02*
Y408606D01*
X150500Y408106D02*
X151500D01*
X151000Y407606D02*
Y408606D01*
X154500Y408106D02*
X155500D01*
X155000Y407606D02*
Y408606D01*
X154500Y412106D02*
X155500D01*
X155000Y411606D02*
Y412606D01*
X154500Y420106D02*
X155500D01*
X155000Y419606D02*
Y420606D01*
X154500Y416106D02*
X155500D01*
X155000Y415606D02*
Y416606D01*
X192000Y416106D02*
X193000D01*
X192500Y415606D02*
Y416606D01*
X192000Y420106D02*
X193000D01*
X192500Y419606D02*
Y420606D01*
X192000Y412106D02*
X193000D01*
X192500Y411606D02*
Y412606D01*
X192000Y408106D02*
X193000D01*
X192500Y407606D02*
Y408606D01*
X188000Y408106D02*
X189000D01*
X188500Y407606D02*
Y408606D01*
X184000Y408106D02*
X185000D01*
X184500Y407606D02*
Y408606D01*
X184000Y412106D02*
X185000D01*
X184500Y411606D02*
Y412606D01*
X188000Y412106D02*
X189000D01*
X188500Y411606D02*
Y412606D01*
X188000Y416106D02*
X189000D01*
X188500Y415606D02*
Y416606D01*
X184000Y416106D02*
X185000D01*
X184500Y415606D02*
Y416606D01*
X184000Y420106D02*
X185000D01*
X184500Y419606D02*
Y420606D01*
X188000Y420106D02*
X189000D01*
X188500Y419606D02*
Y420606D01*
X196000Y420106D02*
X197000D01*
X196500Y419606D02*
Y420606D01*
X200000Y420106D02*
X201000D01*
X200500Y419606D02*
Y420606D01*
X200000Y416106D02*
X201000D01*
X200500Y415606D02*
Y416606D01*
X196000Y416106D02*
X197000D01*
X196500Y415606D02*
Y416606D01*
X196000Y412106D02*
X197000D01*
X196500Y411606D02*
Y412606D01*
X200000Y412106D02*
X201000D01*
X200500Y411606D02*
Y412606D01*
X200000Y408106D02*
X201000D01*
X200500Y407606D02*
Y408606D01*
X196000Y408106D02*
X197000D01*
X196500Y407606D02*
Y408606D01*
X236000Y408106D02*
X237000D01*
X236500Y407606D02*
Y408606D01*
X240000Y408106D02*
X241000D01*
X240500Y407606D02*
Y408606D01*
X240000Y412106D02*
X241000D01*
X240500Y411606D02*
Y412606D01*
X236000Y412106D02*
X237000D01*
X236500Y411606D02*
Y412606D01*
X236000Y416106D02*
X237000D01*
X236500Y415606D02*
Y416606D01*
X240000Y416106D02*
X241000D01*
X240500Y415606D02*
Y416606D01*
X240000Y420106D02*
X241000D01*
X240500Y419606D02*
Y420606D01*
X236000Y420106D02*
X237000D01*
X236500Y419606D02*
Y420606D01*
X228000Y420106D02*
X229000D01*
X228500Y419606D02*
Y420606D01*
X224000Y420106D02*
X225000D01*
X224500Y419606D02*
Y420606D01*
X224000Y416106D02*
X225000D01*
X224500Y415606D02*
Y416606D01*
X228000Y416106D02*
X229000D01*
X228500Y415606D02*
Y416606D01*
X228000Y412106D02*
X229000D01*
X228500Y411606D02*
Y412606D01*
X224000Y412106D02*
X225000D01*
X224500Y411606D02*
Y412606D01*
X224000Y408106D02*
X225000D01*
X224500Y407606D02*
Y408606D01*
X228000Y408106D02*
X229000D01*
X228500Y407606D02*
Y408606D01*
X232000Y408106D02*
X233000D01*
X232500Y407606D02*
Y408606D01*
X232000Y412106D02*
X233000D01*
X232500Y411606D02*
Y412606D01*
X232000Y420106D02*
X233000D01*
X232500Y419606D02*
Y420606D01*
X232000Y416106D02*
X233000D01*
X232500Y415606D02*
Y416606D01*
X319500Y416106D02*
X320500D01*
X320000Y415606D02*
Y416606D01*
X319500Y420106D02*
X320500D01*
X320000Y419606D02*
Y420606D01*
X319500Y412106D02*
X320500D01*
X320000Y411606D02*
Y412606D01*
X319500Y408106D02*
X320500D01*
X320000Y407606D02*
Y408606D01*
X315500Y408106D02*
X316500D01*
X316000Y407606D02*
Y408606D01*
X311500Y408106D02*
X312500D01*
X312000Y407606D02*
Y408606D01*
X311500Y412106D02*
X312500D01*
X312000Y411606D02*
Y412606D01*
X315500Y412106D02*
X316500D01*
X316000Y411606D02*
Y412606D01*
X315500Y416106D02*
X316500D01*
X316000Y415606D02*
Y416606D01*
X311500Y416106D02*
X312500D01*
X312000Y415606D02*
Y416606D01*
X311500Y420106D02*
X312500D01*
X312000Y419606D02*
Y420606D01*
X315500Y420106D02*
X316500D01*
X316000Y419606D02*
Y420606D01*
X323500Y420106D02*
X324500D01*
X324000Y419606D02*
Y420606D01*
X327500Y420106D02*
X328500D01*
X328000Y419606D02*
Y420606D01*
X327500Y416106D02*
X328500D01*
X328000Y415606D02*
Y416606D01*
X323500Y416106D02*
X324500D01*
X324000Y415606D02*
Y416606D01*
X323500Y412106D02*
X324500D01*
X324000Y411606D02*
Y412606D01*
X327500Y412106D02*
X328500D01*
X328000Y411606D02*
Y412606D01*
X327500Y408106D02*
X328500D01*
X328000Y407606D02*
Y408606D01*
X323500Y408106D02*
X324500D01*
X324000Y407606D02*
Y408606D01*
M02*
