G04 Layer_Color=8388736*
%FSLAX25Y25*%
%MOIN*%
G70*
G01*
G75*
%ADD12C,0.01000*%
%ADD67C,0.00800*%
%ADD69C,0.00600*%
%ADD289C,0.01500*%
%ADD290C,0.00100*%
G54D12*
X460610Y-10216D02*
Y0D01*
X0Y-10216D02*
Y-1500D01*
X245800Y-9217D02*
X460610D01*
X0D02*
X211610D01*
X454610Y-7216D02*
X460610Y-9217D01*
X454610Y-11216D02*
X460610Y-9217D01*
X0D02*
X6000Y-11216D01*
X0Y-9217D02*
X6000Y-7216D01*
X460610Y860974D02*
X475610D01*
X460610Y0D02*
X475610D01*
X474610Y446482D02*
Y860974D01*
Y0D02*
Y411292D01*
X472610Y854974D02*
X474610Y860974D01*
X476610Y854974D01*
X474610Y0D02*
X476610Y6000D01*
X472610D02*
X474610Y0D01*
X945912Y410498D02*
Y404500D01*
X948911D01*
X949911Y405500D01*
Y406499D01*
X948911Y407499D01*
X945912D01*
X948911D01*
X949911Y408499D01*
Y409498D01*
X948911Y410498D01*
X945912D01*
X952910Y404500D02*
X954909D01*
X955909Y405500D01*
Y407499D01*
X954909Y408499D01*
X952910D01*
X951910Y407499D01*
Y405500D01*
X952910Y404500D01*
X958908Y408499D02*
X960907D01*
X961907Y407499D01*
Y404500D01*
X958908D01*
X957908Y405500D01*
X958908Y406499D01*
X961907D01*
X963906Y408499D02*
Y404500D01*
Y406499D01*
X964906Y407499D01*
X965906Y408499D01*
X966905D01*
X973903Y410498D02*
Y404500D01*
X970904D01*
X969904Y405500D01*
Y407499D01*
X970904Y408499D01*
X973903D01*
X981900Y410498D02*
Y404500D01*
X985899D01*
X988898Y408499D02*
X990897D01*
X991897Y407499D01*
Y404500D01*
X988898D01*
X987899Y405500D01*
X988898Y406499D01*
X991897D01*
X993896Y408499D02*
Y405500D01*
X994896Y404500D01*
X997895D01*
Y403500D01*
X996896Y402501D01*
X995896D01*
X997895Y404500D02*
Y408499D01*
X1002894Y404500D02*
X1000894D01*
X999895Y405500D01*
Y407499D01*
X1000894Y408499D01*
X1002894D01*
X1003893Y407499D01*
Y406499D01*
X999895D01*
X1005893Y408499D02*
Y404500D01*
Y406499D01*
X1006892Y407499D01*
X1007892Y408499D01*
X1008892D01*
X1021887Y409498D02*
X1020888Y410498D01*
X1018888D01*
X1017889Y409498D01*
Y408499D01*
X1018888Y407499D01*
X1020888D01*
X1021887Y406499D01*
Y405500D01*
X1020888Y404500D01*
X1018888D01*
X1017889Y405500D01*
X1024887Y409498D02*
Y408499D01*
X1023887D01*
X1025886D01*
X1024887D01*
Y405500D01*
X1025886Y404500D01*
X1029885Y408499D02*
X1031884D01*
X1032884Y407499D01*
Y404500D01*
X1029885D01*
X1028885Y405500D01*
X1029885Y406499D01*
X1032884D01*
X1038882Y408499D02*
X1035883D01*
X1034883Y407499D01*
Y405500D01*
X1035883Y404500D01*
X1038882D01*
X1040881D02*
Y410498D01*
Y406499D02*
X1043880Y408499D01*
X1040881Y406499D02*
X1043880Y404500D01*
X888926Y385498D02*
X889926Y386498D01*
X891925D01*
X892925Y385498D01*
Y384499D01*
X891925Y383499D01*
X890925D01*
X891925D01*
X892925Y382499D01*
Y381500D01*
X891925Y380500D01*
X889926D01*
X888926Y381500D01*
X894924Y380500D02*
Y381500D01*
X895924D01*
Y380500D01*
X894924D01*
X903921Y386498D02*
X899922D01*
Y383499D01*
X901922Y384499D01*
X902921D01*
X903921Y383499D01*
Y381500D01*
X902921Y380500D01*
X900922D01*
X899922Y381500D01*
X891925Y356500D02*
Y362498D01*
X888926Y359499D01*
X892925D01*
X894924Y356500D02*
Y357500D01*
X895924D01*
Y356500D01*
X894924D01*
X903921D02*
X899922D01*
X903921Y360499D01*
Y361498D01*
X902921Y362498D01*
X900922D01*
X899922Y361498D01*
X891925Y332500D02*
Y338498D01*
X888926Y335499D01*
X892925D01*
X894924Y332500D02*
Y333500D01*
X895924D01*
Y332500D01*
X894924D01*
X903921D02*
X899922D01*
X903921Y336499D01*
Y337498D01*
X902921Y338498D01*
X900922D01*
X899922Y337498D01*
X891925Y308500D02*
Y314498D01*
X888926Y311499D01*
X892925D01*
X894924Y308500D02*
Y309500D01*
X895924D01*
Y308500D01*
X894924D01*
X903921D02*
X899922D01*
X903921Y312499D01*
Y313498D01*
X902921Y314498D01*
X900922D01*
X899922Y313498D01*
X888926Y289498D02*
X889926Y290498D01*
X891925D01*
X892925Y289498D01*
Y288499D01*
X891925Y287499D01*
X890925D01*
X891925D01*
X892925Y286499D01*
Y285500D01*
X891925Y284500D01*
X889926D01*
X888926Y285500D01*
X894924Y284500D02*
Y285500D01*
X895924D01*
Y284500D01*
X894924D01*
X903921Y290498D02*
X899922D01*
Y287499D01*
X901922Y288499D01*
X902921D01*
X903921Y287499D01*
Y285500D01*
X902921Y284500D01*
X900922D01*
X899922Y285500D01*
X892925Y409498D02*
X891925Y410498D01*
X889926D01*
X888926Y409498D01*
Y405500D01*
X889926Y404500D01*
X891925D01*
X892925Y405500D01*
X895924Y404500D02*
X897923D01*
X898923Y405500D01*
Y407499D01*
X897923Y408499D01*
X895924D01*
X894924Y407499D01*
Y405500D01*
X895924Y404500D01*
X900922D02*
Y408499D01*
X903921D01*
X904921Y407499D01*
Y404500D01*
X906920D02*
X909919D01*
X910919Y405500D01*
X909919Y406499D01*
X907920D01*
X906920Y407499D01*
X907920Y408499D01*
X910919D01*
X913918Y409498D02*
Y408499D01*
X912918D01*
X914917D01*
X913918D01*
Y405500D01*
X914917Y404500D01*
X918916Y408499D02*
X920916D01*
X921915Y407499D01*
Y404500D01*
X918916D01*
X917917Y405500D01*
X918916Y406499D01*
X921915D01*
X923915Y404500D02*
Y408499D01*
X926914D01*
X927913Y407499D01*
Y404500D01*
X930912Y409498D02*
Y408499D01*
X929913D01*
X931912D01*
X930912D01*
Y405500D01*
X931912Y404500D01*
X823942Y385498D02*
X824942Y386498D01*
X826941D01*
X827941Y385498D01*
Y381500D01*
X826941Y380500D01*
X824942D01*
X823942Y381500D01*
Y385498D01*
X829941Y380500D02*
Y381500D01*
X830940D01*
Y380500D01*
X829941D01*
X837938D02*
Y386498D01*
X834939Y383499D01*
X838938D01*
X840937Y385498D02*
X841937Y386498D01*
X843936D01*
X844936Y385498D01*
Y381500D01*
X843936Y380500D01*
X841937D01*
X840937Y381500D01*
Y385498D01*
X846935Y380500D02*
Y384499D01*
X847935D01*
X848934Y383499D01*
Y380500D01*
Y383499D01*
X849934Y384499D01*
X850934Y383499D01*
Y380500D01*
X852933D02*
X854932D01*
X853933D01*
Y384499D01*
X852933D01*
X857931Y380500D02*
X859931D01*
X858931D01*
Y386498D01*
X857931D01*
X827941Y368500D02*
X823942D01*
X827941Y372499D01*
Y373498D01*
X826941Y374498D01*
X824942D01*
X823942Y373498D01*
X829941Y368500D02*
Y369500D01*
X830940D01*
Y368500D01*
X829941D01*
X834939Y373498D02*
X835939Y374498D01*
X837938D01*
X838938Y373498D01*
Y372499D01*
X837938Y371499D01*
X838938Y370499D01*
Y369500D01*
X837938Y368500D01*
X835939D01*
X834939Y369500D01*
Y370499D01*
X835939Y371499D01*
X834939Y372499D01*
Y373498D01*
X835939Y371499D02*
X837938D01*
X840937Y373498D02*
X841937Y374498D01*
X843936D01*
X844936Y373498D01*
Y369500D01*
X843936Y368500D01*
X841937D01*
X840937Y369500D01*
Y373498D01*
X846935Y368500D02*
Y372499D01*
X847935D01*
X848934Y371499D01*
Y368500D01*
Y371499D01*
X849934Y372499D01*
X850934Y371499D01*
Y368500D01*
X852933D02*
X854932D01*
X853933D01*
Y372499D01*
X852933D01*
X857931Y368500D02*
X859931D01*
X858931D01*
Y374498D01*
X857931D01*
X827941Y362498D02*
X823942D01*
Y359499D01*
X825942Y360499D01*
X826941D01*
X827941Y359499D01*
Y357500D01*
X826941Y356500D01*
X824942D01*
X823942Y357500D01*
X829941Y356500D02*
Y357500D01*
X830940D01*
Y356500D01*
X829941D01*
X837938D02*
Y362498D01*
X834939Y359499D01*
X838938D01*
X840937Y361498D02*
X841937Y362498D01*
X843936D01*
X844936Y361498D01*
Y357500D01*
X843936Y356500D01*
X841937D01*
X840937Y357500D01*
Y361498D01*
X846935Y356500D02*
Y360499D01*
X847935D01*
X848934Y359499D01*
Y356500D01*
Y359499D01*
X849934Y360499D01*
X850934Y359499D01*
Y356500D01*
X852933D02*
X854932D01*
X853933D01*
Y360499D01*
X852933D01*
X857931Y356500D02*
X859931D01*
X858931D01*
Y362498D01*
X857931D01*
X823942Y344500D02*
X825942D01*
X824942D01*
Y350498D01*
X823942Y349498D01*
X828941Y344500D02*
Y345500D01*
X829941D01*
Y344500D01*
X828941D01*
X836938D02*
Y350498D01*
X833939Y347499D01*
X837938D01*
X839937Y349498D02*
X840937Y350498D01*
X842936D01*
X843936Y349498D01*
Y345500D01*
X842936Y344500D01*
X840937D01*
X839937Y345500D01*
Y349498D01*
X845935Y344500D02*
Y348499D01*
X846935D01*
X847935Y347499D01*
Y344500D01*
Y347499D01*
X848934Y348499D01*
X849934Y347499D01*
Y344500D01*
X851933D02*
X853933D01*
X852933D01*
Y348499D01*
X851933D01*
X856932Y344500D02*
X858931D01*
X857931D01*
Y350498D01*
X856932D01*
X826941Y332500D02*
Y338498D01*
X823942Y335499D01*
X827941D01*
X829941Y337498D02*
X830940Y338498D01*
X832940D01*
X833939Y337498D01*
Y333500D01*
X832940Y332500D01*
X830940D01*
X829941Y333500D01*
Y337498D01*
X835939Y332500D02*
Y333500D01*
X836938D01*
Y332500D01*
X835939D01*
X840937Y337498D02*
X841937Y338498D01*
X843936D01*
X844936Y337498D01*
Y333500D01*
X843936Y332500D01*
X841937D01*
X840937Y333500D01*
Y337498D01*
X846935D02*
X847935Y338498D01*
X849934D01*
X850934Y337498D01*
Y333500D01*
X849934Y332500D01*
X847935D01*
X846935Y333500D01*
Y337498D01*
X852933Y332500D02*
Y336499D01*
X853933D01*
X854932Y335499D01*
Y332500D01*
Y335499D01*
X855932Y336499D01*
X856932Y335499D01*
Y332500D01*
X858931D02*
X860931D01*
X859931D01*
Y336499D01*
X858931D01*
X863929Y332500D02*
X865929D01*
X864929D01*
Y338498D01*
X863929D01*
X823942Y320500D02*
X825942D01*
X824942D01*
Y326498D01*
X823942Y325498D01*
X828941Y320500D02*
Y321500D01*
X829941D01*
Y320500D01*
X828941D01*
X836938D02*
Y326498D01*
X833939Y323499D01*
X837938D01*
X839937Y325498D02*
X840937Y326498D01*
X842936D01*
X843936Y325498D01*
Y321500D01*
X842936Y320500D01*
X840937D01*
X839937Y321500D01*
Y325498D01*
X845935Y320500D02*
Y324499D01*
X846935D01*
X847935Y323499D01*
Y320500D01*
Y323499D01*
X848934Y324499D01*
X849934Y323499D01*
Y320500D01*
X851933D02*
X853933D01*
X852933D01*
Y324499D01*
X851933D01*
X856932Y320500D02*
X858931D01*
X857931D01*
Y326498D01*
X856932D01*
X827941Y314498D02*
X823942D01*
Y311499D01*
X825942Y312499D01*
X826941D01*
X827941Y311499D01*
Y309500D01*
X826941Y308500D01*
X824942D01*
X823942Y309500D01*
X829941Y308500D02*
Y309500D01*
X830940D01*
Y308500D01*
X829941D01*
X837938D02*
Y314498D01*
X834939Y311499D01*
X838938D01*
X840937Y313498D02*
X841937Y314498D01*
X843936D01*
X844936Y313498D01*
Y309500D01*
X843936Y308500D01*
X841937D01*
X840937Y309500D01*
Y313498D01*
X846935Y308500D02*
Y312499D01*
X847935D01*
X848934Y311499D01*
Y308500D01*
Y311499D01*
X849934Y312499D01*
X850934Y311499D01*
Y308500D01*
X852933D02*
X854932D01*
X853933D01*
Y312499D01*
X852933D01*
X857931Y308500D02*
X859931D01*
X858931D01*
Y314498D01*
X857931D01*
X827941Y296500D02*
X823942D01*
X827941Y300499D01*
Y301498D01*
X826941Y302498D01*
X824942D01*
X823942Y301498D01*
X829941Y296500D02*
Y297500D01*
X830940D01*
Y296500D01*
X829941D01*
X834939Y301498D02*
X835939Y302498D01*
X837938D01*
X838938Y301498D01*
Y300499D01*
X837938Y299499D01*
X838938Y298499D01*
Y297500D01*
X837938Y296500D01*
X835939D01*
X834939Y297500D01*
Y298499D01*
X835939Y299499D01*
X834939Y300499D01*
Y301498D01*
X835939Y299499D02*
X837938D01*
X840937Y301498D02*
X841937Y302498D01*
X843936D01*
X844936Y301498D01*
Y297500D01*
X843936Y296500D01*
X841937D01*
X840937Y297500D01*
Y301498D01*
X846935Y296500D02*
Y300499D01*
X847935D01*
X848934Y299499D01*
Y296500D01*
Y299499D01*
X849934Y300499D01*
X850934Y299499D01*
Y296500D01*
X852933D02*
X854932D01*
X853933D01*
Y300499D01*
X852933D01*
X857931Y296500D02*
X859931D01*
X858931D01*
Y302498D01*
X857931D01*
X823942Y289498D02*
X824942Y290498D01*
X826941D01*
X827941Y289498D01*
Y285500D01*
X826941Y284500D01*
X824942D01*
X823942Y285500D01*
Y289498D01*
X829941Y284500D02*
Y285500D01*
X830940D01*
Y284500D01*
X829941D01*
X837938D02*
Y290498D01*
X834939Y287499D01*
X838938D01*
X840937Y289498D02*
X841937Y290498D01*
X843936D01*
X844936Y289498D01*
Y285500D01*
X843936Y284500D01*
X841937D01*
X840937Y285500D01*
Y289498D01*
X846935Y284500D02*
Y288499D01*
X847935D01*
X848934Y287499D01*
Y284500D01*
Y287499D01*
X849934Y288499D01*
X850934Y287499D01*
Y284500D01*
X852933D02*
X854932D01*
X853933D01*
Y288499D01*
X852933D01*
X857931Y284500D02*
X859931D01*
X858931D01*
Y290498D01*
X857931D01*
X823942Y410498D02*
X827941D01*
X825942D01*
Y404500D01*
X829941Y410498D02*
Y404500D01*
Y407499D01*
X830940Y408499D01*
X832940D01*
X833939Y407499D01*
Y404500D01*
X835939D02*
X837938D01*
X836938D01*
Y408499D01*
X835939D01*
X844936D02*
X841937D01*
X840937Y407499D01*
Y405500D01*
X841937Y404500D01*
X844936D01*
X846935D02*
Y410498D01*
Y406499D02*
X849934Y408499D01*
X846935Y406499D02*
X849934Y404500D01*
X852933D02*
Y408499D01*
X855932D01*
X856932Y407499D01*
Y404500D01*
X861930D02*
X859931D01*
X858931Y405500D01*
Y407499D01*
X859931Y408499D01*
X861930D01*
X862930Y407499D01*
Y406499D01*
X858931D01*
X864929Y404500D02*
X867928D01*
X868928Y405500D01*
X867928Y406499D01*
X865929D01*
X864929Y407499D01*
X865929Y408499D01*
X868928D01*
X870927Y404500D02*
X873926D01*
X874926Y405500D01*
X873926Y406499D01*
X871927D01*
X870927Y407499D01*
X871927Y408499D01*
X874926D01*
X741964Y385498D02*
X740965Y386498D01*
X738965D01*
X737966Y385498D01*
Y384499D01*
X738965Y383499D01*
X740965D01*
X741964Y382499D01*
Y381500D01*
X740965Y380500D01*
X738965D01*
X737966Y381500D01*
X744964Y380500D02*
X746963D01*
X747963Y381500D01*
Y383499D01*
X746963Y384499D01*
X744964D01*
X743964Y383499D01*
Y381500D01*
X744964Y380500D01*
X749962D02*
X751961D01*
X750961D01*
Y386498D01*
X749962D01*
X758959D02*
Y380500D01*
X755960D01*
X754960Y381500D01*
Y383499D01*
X755960Y384499D01*
X758959D01*
X763957Y380500D02*
X761958D01*
X760958Y381500D01*
Y383499D01*
X761958Y384499D01*
X763957D01*
X764957Y383499D01*
Y382499D01*
X760958D01*
X766956Y384499D02*
Y380500D01*
Y382499D01*
X767956Y383499D01*
X768956Y384499D01*
X769955D01*
X778953Y380500D02*
Y386498D01*
X781952D01*
X782951Y385498D01*
Y383499D01*
X781952Y382499D01*
X778953D01*
X780952D02*
X782951Y380500D01*
X787950D02*
X785950D01*
X784950Y381500D01*
Y383499D01*
X785950Y384499D01*
X787950D01*
X788949Y383499D01*
Y382499D01*
X784950D01*
X790949Y380500D02*
X793948D01*
X794947Y381500D01*
X793948Y382499D01*
X791948D01*
X790949Y383499D01*
X791948Y384499D01*
X794947D01*
X796947Y380500D02*
X798946D01*
X797946D01*
Y384499D01*
X796947D01*
X801945Y380500D02*
X804944D01*
X805944Y381500D01*
X804944Y382499D01*
X802945D01*
X801945Y383499D01*
X802945Y384499D01*
X805944D01*
X808943Y385498D02*
Y384499D01*
X807943D01*
X809942D01*
X808943D01*
Y381500D01*
X809942Y380500D01*
X741964Y373498D02*
X740965Y374498D01*
X738965D01*
X737966Y373498D01*
Y369500D01*
X738965Y368500D01*
X740965D01*
X741964Y369500D01*
X744964Y368500D02*
X746963D01*
X747963Y369500D01*
Y371499D01*
X746963Y372499D01*
X744964D01*
X743964Y371499D01*
Y369500D01*
X744964Y368500D01*
X749962Y366501D02*
Y372499D01*
X752961D01*
X753961Y371499D01*
Y369500D01*
X752961Y368500D01*
X749962D01*
X755960Y366501D02*
Y372499D01*
X758959D01*
X759959Y371499D01*
Y369500D01*
X758959Y368500D01*
X755960D01*
X764957D02*
X762958D01*
X761958Y369500D01*
Y371499D01*
X762958Y372499D01*
X764957D01*
X765957Y371499D01*
Y370499D01*
X761958D01*
X767956Y372499D02*
Y368500D01*
Y370499D01*
X768956Y371499D01*
X769955Y372499D01*
X770955D01*
X741964Y362498D02*
X737966D01*
Y359499D01*
X739965D01*
X737966D01*
Y356500D01*
X743964D02*
Y362498D01*
X746963D01*
X747963Y361498D01*
Y359499D01*
X746963Y358499D01*
X743964D01*
X745963D02*
X747963Y356500D01*
X749962Y359499D02*
X753961D01*
X758959Y356500D02*
Y362498D01*
X755960Y359499D01*
X759959D01*
X741964Y349498D02*
X740965Y350498D01*
X738965D01*
X737966Y349498D01*
Y345500D01*
X738965Y344500D01*
X740965D01*
X741964Y345500D01*
X744964Y344500D02*
X746963D01*
X747963Y345500D01*
Y347499D01*
X746963Y348499D01*
X744964D01*
X743964Y347499D01*
Y345500D01*
X744964Y344500D01*
X749962Y342501D02*
Y348499D01*
X752961D01*
X753961Y347499D01*
Y345500D01*
X752961Y344500D01*
X749962D01*
X755960Y342501D02*
Y348499D01*
X758959D01*
X759959Y347499D01*
Y345500D01*
X758959Y344500D01*
X755960D01*
X764957D02*
X762958D01*
X761958Y345500D01*
Y347499D01*
X762958Y348499D01*
X764957D01*
X765957Y347499D01*
Y346499D01*
X761958D01*
X767956Y348499D02*
Y344500D01*
Y346499D01*
X768956Y347499D01*
X769955Y348499D01*
X770955D01*
X741964Y338498D02*
X737966D01*
Y335499D01*
X739965D01*
X737966D01*
Y332500D01*
X743964D02*
Y338498D01*
X746963D01*
X747963Y337498D01*
Y335499D01*
X746963Y334499D01*
X743964D01*
X745963D02*
X747963Y332500D01*
X749962Y335499D02*
X753961D01*
X758959Y332500D02*
Y338498D01*
X755960Y335499D01*
X759959D01*
X741964Y325498D02*
X740965Y326498D01*
X738965D01*
X737966Y325498D01*
Y321500D01*
X738965Y320500D01*
X740965D01*
X741964Y321500D01*
X744964Y320500D02*
X746963D01*
X747963Y321500D01*
Y323499D01*
X746963Y324499D01*
X744964D01*
X743964Y323499D01*
Y321500D01*
X744964Y320500D01*
X749962Y318501D02*
Y324499D01*
X752961D01*
X753961Y323499D01*
Y321500D01*
X752961Y320500D01*
X749962D01*
X755960Y318501D02*
Y324499D01*
X758959D01*
X759959Y323499D01*
Y321500D01*
X758959Y320500D01*
X755960D01*
X764957D02*
X762958D01*
X761958Y321500D01*
Y323499D01*
X762958Y324499D01*
X764957D01*
X765957Y323499D01*
Y322499D01*
X761958D01*
X767956Y324499D02*
Y320500D01*
Y322499D01*
X768956Y323499D01*
X769955Y324499D01*
X770955D01*
X741964Y314498D02*
X737966D01*
Y311499D01*
X739965D01*
X737966D01*
Y308500D01*
X743964D02*
Y314498D01*
X746963D01*
X747963Y313498D01*
Y311499D01*
X746963Y310499D01*
X743964D01*
X745963D02*
X747963Y308500D01*
X749962Y311499D02*
X753961D01*
X758959Y308500D02*
Y314498D01*
X755960Y311499D01*
X759959D01*
X741964Y301498D02*
X740965Y302498D01*
X738965D01*
X737966Y301498D01*
Y297500D01*
X738965Y296500D01*
X740965D01*
X741964Y297500D01*
X744964Y296500D02*
X746963D01*
X747963Y297500D01*
Y299499D01*
X746963Y300499D01*
X744964D01*
X743964Y299499D01*
Y297500D01*
X744964Y296500D01*
X749962Y294501D02*
Y300499D01*
X752961D01*
X753961Y299499D01*
Y297500D01*
X752961Y296500D01*
X749962D01*
X755960Y294501D02*
Y300499D01*
X758959D01*
X759959Y299499D01*
Y297500D01*
X758959Y296500D01*
X755960D01*
X764957D02*
X762958D01*
X761958Y297500D01*
Y299499D01*
X762958Y300499D01*
X764957D01*
X765957Y299499D01*
Y298499D01*
X761958D01*
X767956Y300499D02*
Y296500D01*
Y298499D01*
X768956Y299499D01*
X769955Y300499D01*
X770955D01*
X741964Y289498D02*
X740965Y290498D01*
X738965D01*
X737966Y289498D01*
Y288499D01*
X738965Y287499D01*
X740965D01*
X741964Y286499D01*
Y285500D01*
X740965Y284500D01*
X738965D01*
X737966Y285500D01*
X744964Y284500D02*
X746963D01*
X747963Y285500D01*
Y287499D01*
X746963Y288499D01*
X744964D01*
X743964Y287499D01*
Y285500D01*
X744964Y284500D01*
X749962D02*
X751961D01*
X750961D01*
Y290498D01*
X749962D01*
X758959D02*
Y284500D01*
X755960D01*
X754960Y285500D01*
Y287499D01*
X755960Y288499D01*
X758959D01*
X763957Y284500D02*
X761958D01*
X760958Y285500D01*
Y287499D01*
X761958Y288499D01*
X763957D01*
X764957Y287499D01*
Y286499D01*
X760958D01*
X766956Y288499D02*
Y284500D01*
Y286499D01*
X767956Y287499D01*
X768956Y288499D01*
X769955D01*
X778953Y284500D02*
Y290498D01*
X781952D01*
X782951Y289498D01*
Y287499D01*
X781952Y286499D01*
X778953D01*
X780952D02*
X782951Y284500D01*
X787950D02*
X785950D01*
X784950Y285500D01*
Y287499D01*
X785950Y288499D01*
X787950D01*
X788949Y287499D01*
Y286499D01*
X784950D01*
X790949Y284500D02*
X793948D01*
X794947Y285500D01*
X793948Y286499D01*
X791948D01*
X790949Y287499D01*
X791948Y288499D01*
X794947D01*
X796947Y284500D02*
X798946D01*
X797946D01*
Y288499D01*
X796947D01*
X801945Y284500D02*
X804944D01*
X805944Y285500D01*
X804944Y286499D01*
X802945D01*
X801945Y287499D01*
X802945Y288499D01*
X805944D01*
X808943Y289498D02*
Y288499D01*
X807943D01*
X809942D01*
X808943D01*
Y285500D01*
X809942Y284500D01*
X737966Y404500D02*
Y410498D01*
X739965Y408499D01*
X741964Y410498D01*
Y404500D01*
X744964Y408499D02*
X746963D01*
X747963Y407499D01*
Y404500D01*
X744964D01*
X743964Y405500D01*
X744964Y406499D01*
X747963D01*
X750961Y409498D02*
Y408499D01*
X749962D01*
X751961D01*
X750961D01*
Y405500D01*
X751961Y404500D01*
X757959D02*
X755960D01*
X754960Y405500D01*
Y407499D01*
X755960Y408499D01*
X757959D01*
X758959Y407499D01*
Y406499D01*
X754960D01*
X760958Y408499D02*
Y404500D01*
Y406499D01*
X761958Y407499D01*
X762958Y408499D01*
X763957D01*
X766956Y404500D02*
X768956D01*
X767956D01*
Y408499D01*
X766956D01*
X772954D02*
X774954D01*
X775953Y407499D01*
Y404500D01*
X772954D01*
X771955Y405500D01*
X772954Y406499D01*
X775953D01*
X777953Y404500D02*
X779952D01*
X778953D01*
Y410498D01*
X777953D01*
X644991Y398498D02*
X648990D01*
X646991D01*
Y392500D01*
X651989D02*
X653988D01*
X654988Y393500D01*
Y395499D01*
X653988Y396499D01*
X651989D01*
X650989Y395499D01*
Y393500D01*
X651989Y392500D01*
X656987Y390501D02*
Y396499D01*
X659986D01*
X660986Y395499D01*
Y393500D01*
X659986Y392500D01*
X656987D01*
X671982Y398498D02*
X669983D01*
X668984Y397498D01*
Y393500D01*
X669983Y392500D01*
X671982D01*
X672982Y393500D01*
Y397498D01*
X671982Y398498D01*
X674982Y396499D02*
X676981Y392500D01*
X678980Y396499D01*
X683979Y392500D02*
X681979D01*
X680980Y393500D01*
Y395499D01*
X681979Y396499D01*
X683979D01*
X684978Y395499D01*
Y394499D01*
X680980D01*
X686978Y396499D02*
Y392500D01*
Y394499D01*
X687977Y395499D01*
X688977Y396499D01*
X689977D01*
X692976Y392500D02*
X694975D01*
X693975D01*
Y398498D01*
X692976D01*
X698974Y396499D02*
X700973D01*
X701973Y395499D01*
Y392500D01*
X698974D01*
X697974Y393500D01*
X698974Y394499D01*
X701973D01*
X703972Y396499D02*
Y393500D01*
X704972Y392500D01*
X707971D01*
Y391500D01*
X706971Y390501D01*
X705971D01*
X707971Y392500D02*
Y396499D01*
X644991Y386498D02*
X648990D01*
X646991D01*
Y380500D01*
X651989D02*
X653988D01*
X654988Y381500D01*
Y383499D01*
X653988Y384499D01*
X651989D01*
X650989Y383499D01*
Y381500D01*
X651989Y380500D01*
X656987Y378501D02*
Y384499D01*
X659986D01*
X660986Y383499D01*
Y381500D01*
X659986Y380500D01*
X656987D01*
X672982Y385498D02*
X671982Y386498D01*
X669983D01*
X668984Y385498D01*
Y384499D01*
X669983Y383499D01*
X671982D01*
X672982Y382499D01*
Y381500D01*
X671982Y380500D01*
X669983D01*
X668984Y381500D01*
X675981Y380500D02*
X677981D01*
X678980Y381500D01*
Y383499D01*
X677981Y384499D01*
X675981D01*
X674982Y383499D01*
Y381500D01*
X675981Y380500D01*
X680980D02*
X682979D01*
X681979D01*
Y386498D01*
X680980D01*
X689977D02*
Y380500D01*
X686978D01*
X685978Y381500D01*
Y383499D01*
X686978Y384499D01*
X689977D01*
X694975Y380500D02*
X692976D01*
X691976Y381500D01*
Y383499D01*
X692976Y384499D01*
X694975D01*
X695975Y383499D01*
Y382499D01*
X691976D01*
X697974Y384499D02*
Y380500D01*
Y382499D01*
X698974Y383499D01*
X699973Y384499D01*
X700973D01*
X644991Y374498D02*
X648990D01*
X646991D01*
Y368500D01*
X651989D02*
X653988D01*
X654988Y369500D01*
Y371499D01*
X653988Y372499D01*
X651989D01*
X650989Y371499D01*
Y369500D01*
X651989Y368500D01*
X656987Y366501D02*
Y372499D01*
X659986D01*
X660986Y371499D01*
Y369500D01*
X659986Y368500D01*
X656987D01*
X644991Y362498D02*
Y356500D01*
X647990D01*
X648990Y357500D01*
Y361498D01*
X647990Y362498D01*
X644991D01*
X650989Y356500D02*
X652989D01*
X651989D01*
Y360499D01*
X650989D01*
X658987Y356500D02*
X656987D01*
X655988Y357500D01*
Y359499D01*
X656987Y360499D01*
X658987D01*
X659986Y359499D01*
Y358499D01*
X655988D01*
X661986Y356500D02*
X663985D01*
X662986D01*
Y362498D01*
X661986D01*
X669983Y356500D02*
X667984D01*
X666984Y357500D01*
Y359499D01*
X667984Y360499D01*
X669983D01*
X670983Y359499D01*
Y358499D01*
X666984D01*
X676981Y360499D02*
X673982D01*
X672982Y359499D01*
Y357500D01*
X673982Y356500D01*
X676981D01*
X679980Y361498D02*
Y360499D01*
X678980D01*
X680980D01*
X679980D01*
Y357500D01*
X680980Y356500D01*
X683979Y360499D02*
Y356500D01*
Y358499D01*
X684978Y359499D01*
X685978Y360499D01*
X686978D01*
X689977Y356500D02*
X691976D01*
X690976D01*
Y360499D01*
X689977D01*
X698974D02*
X695975D01*
X694975Y359499D01*
Y357500D01*
X695975Y356500D01*
X698974D01*
X706971D02*
X708971D01*
X707971D01*
Y362498D01*
X706971Y361498D01*
X648990Y349498D02*
X647990Y350498D01*
X645991D01*
X644991Y349498D01*
Y345500D01*
X645991Y344500D01*
X647990D01*
X648990Y345500D01*
Y347499D01*
X646991D01*
X650989Y344500D02*
Y350498D01*
X654988Y344500D01*
Y350498D01*
X656987D02*
Y344500D01*
X659986D01*
X660986Y345500D01*
Y349498D01*
X659986Y350498D01*
X656987D01*
X644991Y338498D02*
Y332500D01*
X647990D01*
X648990Y333500D01*
Y337498D01*
X647990Y338498D01*
X644991D01*
X650989Y332500D02*
X652989D01*
X651989D01*
Y336499D01*
X650989D01*
X658987Y332500D02*
X656987D01*
X655988Y333500D01*
Y335499D01*
X656987Y336499D01*
X658987D01*
X659986Y335499D01*
Y334499D01*
X655988D01*
X661986Y332500D02*
X663985D01*
X662986D01*
Y338498D01*
X661986D01*
X669983Y332500D02*
X667984D01*
X666984Y333500D01*
Y335499D01*
X667984Y336499D01*
X669983D01*
X670983Y335499D01*
Y334499D01*
X666984D01*
X676981Y336499D02*
X673982D01*
X672982Y335499D01*
Y333500D01*
X673982Y332500D01*
X676981D01*
X679980Y337498D02*
Y336499D01*
X678980D01*
X680980D01*
X679980D01*
Y333500D01*
X680980Y332500D01*
X683979Y336499D02*
Y332500D01*
Y334499D01*
X684978Y335499D01*
X685978Y336499D01*
X686978D01*
X689977Y332500D02*
X691976D01*
X690976D01*
Y336499D01*
X689977D01*
X698974D02*
X695975D01*
X694975Y335499D01*
Y333500D01*
X695975Y332500D01*
X698974D01*
X710970D02*
X706971D01*
X710970Y336499D01*
Y337498D01*
X709970Y338498D01*
X707971D01*
X706971Y337498D01*
X648990Y325498D02*
X647990Y326498D01*
X645991D01*
X644991Y325498D01*
Y324499D01*
X645991Y323499D01*
X647990D01*
X648990Y322499D01*
Y321500D01*
X647990Y320500D01*
X645991D01*
X644991Y321500D01*
X650989Y324499D02*
Y321500D01*
X651989Y320500D01*
X654988D01*
Y324499D01*
X656987Y318501D02*
Y324499D01*
X659986D01*
X660986Y323499D01*
Y321500D01*
X659986Y320500D01*
X656987D01*
X662986Y318501D02*
Y324499D01*
X665984D01*
X666984Y323499D01*
Y321500D01*
X665984Y320500D01*
X662986D01*
X668984D02*
X670983D01*
X669983D01*
Y326498D01*
X668984D01*
X673982Y324499D02*
Y321500D01*
X674982Y320500D01*
X677981D01*
Y319500D01*
X676981Y318501D01*
X675981D01*
X677981Y320500D02*
Y324499D01*
X644991Y314498D02*
Y308500D01*
X647990D01*
X648990Y309500D01*
Y313498D01*
X647990Y314498D01*
X644991D01*
X650989Y308500D02*
X652989D01*
X651989D01*
Y312499D01*
X650989D01*
X658987Y308500D02*
X656987D01*
X655988Y309500D01*
Y311499D01*
X656987Y312499D01*
X658987D01*
X659986Y311499D01*
Y310499D01*
X655988D01*
X661986Y308500D02*
X663985D01*
X662986D01*
Y314498D01*
X661986D01*
X669983Y308500D02*
X667984D01*
X666984Y309500D01*
Y311499D01*
X667984Y312499D01*
X669983D01*
X670983Y311499D01*
Y310499D01*
X666984D01*
X676981Y312499D02*
X673982D01*
X672982Y311499D01*
Y309500D01*
X673982Y308500D01*
X676981D01*
X679980Y313498D02*
Y312499D01*
X678980D01*
X680980D01*
X679980D01*
Y309500D01*
X680980Y308500D01*
X683979Y312499D02*
Y308500D01*
Y310499D01*
X684978Y311499D01*
X685978Y312499D01*
X686978D01*
X689977Y308500D02*
X691976D01*
X690976D01*
Y312499D01*
X689977D01*
X698974D02*
X695975D01*
X694975Y311499D01*
Y309500D01*
X695975Y308500D01*
X698974D01*
X706971Y313498D02*
X707971Y314498D01*
X709970D01*
X710970Y313498D01*
Y312499D01*
X709970Y311499D01*
X708971D01*
X709970D01*
X710970Y310499D01*
Y309500D01*
X709970Y308500D01*
X707971D01*
X706971Y309500D01*
X644991Y302498D02*
Y296500D01*
X647990D01*
X648990Y297500D01*
Y298499D01*
X647990Y299499D01*
X644991D01*
X647990D01*
X648990Y300499D01*
Y301498D01*
X647990Y302498D01*
X644991D01*
X651989Y296500D02*
X653988D01*
X654988Y297500D01*
Y299499D01*
X653988Y300499D01*
X651989D01*
X650989Y299499D01*
Y297500D01*
X651989Y296500D01*
X657987Y301498D02*
Y300499D01*
X656987D01*
X658987D01*
X657987D01*
Y297500D01*
X658987Y296500D01*
X662986Y301498D02*
Y300499D01*
X661986D01*
X663985D01*
X662986D01*
Y297500D01*
X663985Y296500D01*
X667984D02*
X669983D01*
X670983Y297500D01*
Y299499D01*
X669983Y300499D01*
X667984D01*
X666984Y299499D01*
Y297500D01*
X667984Y296500D01*
X672982D02*
Y300499D01*
X673982D01*
X674982Y299499D01*
Y296500D01*
Y299499D01*
X675981Y300499D01*
X676981Y299499D01*
Y296500D01*
X644991Y290498D02*
Y284500D01*
X647990D01*
X648990Y285500D01*
Y286499D01*
X647990Y287499D01*
X644991D01*
X647990D01*
X648990Y288499D01*
Y289498D01*
X647990Y290498D01*
X644991D01*
X651989Y284500D02*
X653988D01*
X654988Y285500D01*
Y287499D01*
X653988Y288499D01*
X651989D01*
X650989Y287499D01*
Y285500D01*
X651989Y284500D01*
X657987Y289498D02*
Y288499D01*
X656987D01*
X658987D01*
X657987D01*
Y285500D01*
X658987Y284500D01*
X662986Y289498D02*
Y288499D01*
X661986D01*
X663985D01*
X662986D01*
Y285500D01*
X663985Y284500D01*
X667984D02*
X669983D01*
X670983Y285500D01*
Y287499D01*
X669983Y288499D01*
X667984D01*
X666984Y287499D01*
Y285500D01*
X667984Y284500D01*
X672982D02*
Y288499D01*
X673982D01*
X674982Y287499D01*
Y284500D01*
Y287499D01*
X675981Y288499D01*
X676981Y287499D01*
Y284500D01*
X688977Y289498D02*
X687977Y290498D01*
X685978D01*
X684978Y289498D01*
Y288499D01*
X685978Y287499D01*
X687977D01*
X688977Y286499D01*
Y285500D01*
X687977Y284500D01*
X685978D01*
X684978Y285500D01*
X691976Y284500D02*
X693975D01*
X694975Y285500D01*
Y287499D01*
X693975Y288499D01*
X691976D01*
X690976Y287499D01*
Y285500D01*
X691976Y284500D01*
X696974D02*
X698974D01*
X697974D01*
Y290498D01*
X696974D01*
X705971D02*
Y284500D01*
X702973D01*
X701973Y285500D01*
Y287499D01*
X702973Y288499D01*
X705971D01*
X710970Y284500D02*
X708971D01*
X707971Y285500D01*
Y287499D01*
X708971Y288499D01*
X710970D01*
X711970Y287499D01*
Y286499D01*
X707971D01*
X713969Y288499D02*
Y284500D01*
Y286499D01*
X714969Y287499D01*
X715968Y288499D01*
X716968D01*
X644991Y278498D02*
Y272500D01*
X647990D01*
X648990Y273500D01*
Y274499D01*
X647990Y275499D01*
X644991D01*
X647990D01*
X648990Y276499D01*
Y277498D01*
X647990Y278498D01*
X644991D01*
X651989Y272500D02*
X653988D01*
X654988Y273500D01*
Y275499D01*
X653988Y276499D01*
X651989D01*
X650989Y275499D01*
Y273500D01*
X651989Y272500D01*
X657987Y277498D02*
Y276499D01*
X656987D01*
X658987D01*
X657987D01*
Y273500D01*
X658987Y272500D01*
X662986Y277498D02*
Y276499D01*
X661986D01*
X663985D01*
X662986D01*
Y273500D01*
X663985Y272500D01*
X667984D02*
X669983D01*
X670983Y273500D01*
Y275499D01*
X669983Y276499D01*
X667984D01*
X666984Y275499D01*
Y273500D01*
X667984Y272500D01*
X672982D02*
Y276499D01*
X673982D01*
X674982Y275499D01*
Y272500D01*
Y275499D01*
X675981Y276499D01*
X676981Y275499D01*
Y272500D01*
X687977Y278498D02*
X685978D01*
X684978Y277498D01*
Y273500D01*
X685978Y272500D01*
X687977D01*
X688977Y273500D01*
Y277498D01*
X687977Y278498D01*
X690976Y276499D02*
X692976Y272500D01*
X694975Y276499D01*
X699973Y272500D02*
X697974D01*
X696974Y273500D01*
Y275499D01*
X697974Y276499D01*
X699973D01*
X700973Y275499D01*
Y274499D01*
X696974D01*
X702973Y276499D02*
Y272500D01*
Y274499D01*
X703972Y275499D01*
X704972Y276499D01*
X705971D01*
X708971Y272500D02*
X710970D01*
X709970D01*
Y278498D01*
X708971D01*
X714969Y276499D02*
X716968D01*
X717968Y275499D01*
Y272500D01*
X714969D01*
X713969Y273500D01*
X714969Y274499D01*
X717968D01*
X719967Y276499D02*
Y273500D01*
X720967Y272500D01*
X723966D01*
Y271500D01*
X722966Y270501D01*
X721966D01*
X723966Y272500D02*
Y276499D01*
X644991Y404500D02*
Y410498D01*
X648990Y404500D01*
Y410498D01*
X651989Y408499D02*
X653988D01*
X654988Y407499D01*
Y404500D01*
X651989D01*
X650989Y405500D01*
X651989Y406499D01*
X654988D01*
X656987Y404500D02*
Y408499D01*
X657987D01*
X658987Y407499D01*
Y404500D01*
Y407499D01*
X659986Y408499D01*
X660986Y407499D01*
Y404500D01*
X665984D02*
X663985D01*
X662986Y405500D01*
Y407499D01*
X663985Y408499D01*
X665984D01*
X666984Y407499D01*
Y406499D01*
X662986D01*
X604000Y392500D02*
X605999D01*
X605000D01*
Y398498D01*
X604000Y397498D01*
X607999Y380500D02*
X604000D01*
X607999Y384499D01*
Y385498D01*
X606999Y386498D01*
X605000D01*
X604000Y385498D01*
Y373498D02*
X605000Y374498D01*
X606999D01*
X607999Y373498D01*
Y372499D01*
X606999Y371499D01*
X605999D01*
X606999D01*
X607999Y370499D01*
Y369500D01*
X606999Y368500D01*
X605000D01*
X604000Y369500D01*
X606999Y356500D02*
Y362498D01*
X604000Y359499D01*
X607999D01*
Y350498D02*
X604000D01*
Y347499D01*
X605999Y348499D01*
X606999D01*
X607999Y347499D01*
Y345500D01*
X606999Y344500D01*
X605000D01*
X604000Y345500D01*
X607999Y338498D02*
X605999Y337498D01*
X604000Y335499D01*
Y333500D01*
X605000Y332500D01*
X606999D01*
X607999Y333500D01*
Y334499D01*
X606999Y335499D01*
X604000D01*
Y326498D02*
X607999D01*
Y325498D01*
X604000Y321500D01*
Y320500D01*
Y313498D02*
X605000Y314498D01*
X606999D01*
X607999Y313498D01*
Y312499D01*
X606999Y311499D01*
X607999Y310499D01*
Y309500D01*
X606999Y308500D01*
X605000D01*
X604000Y309500D01*
Y310499D01*
X605000Y311499D01*
X604000Y312499D01*
Y313498D01*
X605000Y311499D02*
X606999D01*
X604000Y297500D02*
X605000Y296500D01*
X606999D01*
X607999Y297500D01*
Y301498D01*
X606999Y302498D01*
X605000D01*
X604000Y301498D01*
Y300499D01*
X605000Y299499D01*
X607999D01*
X604000Y284500D02*
X605999D01*
X605000D01*
Y290498D01*
X604000Y289498D01*
X608998D02*
X609998Y290498D01*
X611997D01*
X612997Y289498D01*
Y285500D01*
X611997Y284500D01*
X609998D01*
X608998Y285500D01*
Y289498D01*
X604000Y272500D02*
X605999D01*
X605000D01*
Y278498D01*
X604000Y277498D01*
X608998Y272500D02*
X610998D01*
X609998D01*
Y278498D01*
X608998Y277498D01*
X604000Y410498D02*
Y404500D01*
X607999D01*
X610998Y408499D02*
X612997D01*
X613997Y407499D01*
Y404500D01*
X610998D01*
X609998Y405500D01*
X610998Y406499D01*
X613997D01*
X615996Y408499D02*
Y405500D01*
X616996Y404500D01*
X619995D01*
Y403500D01*
X618995Y402501D01*
X617996D01*
X619995Y404500D02*
Y408499D01*
X624993Y404500D02*
X622994D01*
X621994Y405500D01*
Y407499D01*
X622994Y408499D01*
X624993D01*
X625993Y407499D01*
Y406499D01*
X621994D01*
X627992Y408499D02*
Y404500D01*
Y406499D01*
X628992Y407499D01*
X629992Y408499D01*
X630991D01*
G54D67*
X570000Y434997D02*
Y426000D01*
X574499D01*
X575998Y427499D01*
Y433498D01*
X574499Y434997D01*
X570000D01*
X584995D02*
X578997D01*
Y426000D01*
X584995D01*
X578997Y430499D02*
X581996D01*
X587994Y434997D02*
X593992D01*
X590993D01*
Y426000D01*
X596991D02*
Y431998D01*
X599990Y434997D01*
X602989Y431998D01*
Y426000D01*
Y430499D01*
X596991D01*
X605988Y434997D02*
X608987D01*
X607488D01*
Y426000D01*
X605988D01*
X608987D01*
X613486Y434997D02*
Y426000D01*
X619484D01*
X631480D02*
Y431998D01*
X634479Y434997D01*
X637478Y431998D01*
Y426000D01*
Y430499D01*
X631480D01*
X579284Y770784D02*
Y778781D01*
X581949Y776115D01*
X584615Y778781D01*
Y770784D01*
X587281Y778781D02*
Y772116D01*
X588614Y770784D01*
X591280D01*
X592613Y772116D01*
Y778781D01*
X600610Y777448D02*
X599277Y778781D01*
X596611D01*
X595278Y777448D01*
Y776115D01*
X596611Y774782D01*
X599277D01*
X600610Y773449D01*
Y772116D01*
X599277Y770784D01*
X596611D01*
X595278Y772116D01*
X603276Y778781D02*
X608607D01*
X605941D01*
Y770784D01*
X619271Y778781D02*
Y770784D01*
Y774782D01*
X624602D01*
Y778781D01*
Y770784D01*
X627268D02*
Y776115D01*
X629934Y778781D01*
X632599Y776115D01*
Y770784D01*
Y774782D01*
X627268D01*
X635265Y770784D02*
Y778781D01*
X640597Y770784D01*
Y778781D01*
X643263D02*
Y770784D01*
X647261D01*
X648594Y772116D01*
Y777448D01*
X647261Y778781D01*
X643263D01*
X651260D02*
Y770784D01*
X656592D01*
X664589Y778781D02*
X659258D01*
Y770784D01*
X664589D01*
X659258Y774782D02*
X661923D01*
X675252Y770784D02*
Y778781D01*
X677918Y776115D01*
X680584Y778781D01*
Y770784D01*
X683250Y778781D02*
X685916D01*
X684583D01*
Y770784D01*
X683250D01*
X685916D01*
X689914D02*
Y778781D01*
X695246Y770784D01*
Y778781D01*
X697912D02*
X700577D01*
X699245D01*
Y770784D01*
X697912D01*
X700577D01*
X704576D02*
Y778781D01*
X707242Y776115D01*
X709908Y778781D01*
Y770784D01*
X712574Y778781D02*
Y772116D01*
X713906Y770784D01*
X716572D01*
X717905Y772116D01*
Y778781D01*
X720571Y770784D02*
Y778781D01*
X723237Y776115D01*
X725903Y778781D01*
Y770784D01*
X741897Y778781D02*
X739232Y777448D01*
X736566Y774782D01*
Y772116D01*
X737899Y770784D01*
X740565D01*
X741897Y772116D01*
Y773449D01*
X740565Y774782D01*
X736566D01*
X757892Y777448D02*
X756559Y778781D01*
X753894D01*
X752561Y777448D01*
Y772116D01*
X753894Y770784D01*
X756559D01*
X757892Y772116D01*
X760558Y778781D02*
Y777448D01*
X763224Y774782D01*
X765890Y777448D01*
Y778781D01*
X763224Y774782D02*
Y770784D01*
X773887Y777448D02*
X772554Y778781D01*
X769888D01*
X768555Y777448D01*
Y772116D01*
X769888Y770784D01*
X772554D01*
X773887Y772116D01*
X776553Y778781D02*
Y770784D01*
X781884D01*
X789882Y778781D02*
X784550D01*
Y770784D01*
X789882D01*
X784550Y774782D02*
X787216D01*
X797879Y777448D02*
X796546Y778781D01*
X793881D01*
X792548Y777448D01*
Y776115D01*
X793881Y774782D01*
X796546D01*
X797879Y773449D01*
Y772116D01*
X796546Y770784D01*
X793881D01*
X792548Y772116D01*
X808543Y774782D02*
X813874D01*
X829869Y770784D02*
X824537D01*
X829869Y776115D01*
Y777448D01*
X828536Y778781D01*
X825870D01*
X824537Y777448D01*
X837866Y778781D02*
X835201Y777448D01*
X832535Y774782D01*
Y772116D01*
X833868Y770784D01*
X836534D01*
X837866Y772116D01*
Y773449D01*
X836534Y774782D01*
X832535D01*
X840532Y777448D02*
X841865Y778781D01*
X844531D01*
X845864Y777448D01*
Y772116D01*
X844531Y770784D01*
X841865D01*
X840532Y772116D01*
Y777448D01*
X853861D02*
X852528Y778781D01*
X849862D01*
X848530Y777448D01*
Y772116D01*
X849862Y770784D01*
X852528D01*
X853861Y772116D01*
X869856Y778781D02*
X864524D01*
Y774782D01*
X867190D01*
X864524D01*
Y770784D01*
X876521Y778781D02*
X873855D01*
X872522Y777448D01*
Y772116D01*
X873855Y770784D01*
X876521D01*
X877853Y772116D01*
Y777448D01*
X876521Y778781D01*
X880519Y770784D02*
Y778781D01*
X884518D01*
X885851Y777448D01*
Y774782D01*
X884518Y773449D01*
X880519D01*
X883185D02*
X885851Y770784D01*
X896514D02*
X899180D01*
X897847D01*
Y778781D01*
X896514Y777448D01*
X903179D02*
X904512Y778781D01*
X907177D01*
X908510Y777448D01*
Y772116D01*
X907177Y770784D01*
X904512D01*
X903179Y772116D01*
Y777448D01*
X924505D02*
X923172Y778781D01*
X920506D01*
X919173Y777448D01*
Y776115D01*
X920506Y774782D01*
X923172D01*
X924505Y773449D01*
Y772116D01*
X923172Y770784D01*
X920506D01*
X919173Y772116D01*
X932502Y778781D02*
X927171D01*
Y770784D01*
X932502D01*
X927171Y774782D02*
X929837D01*
X940500Y777448D02*
X939167Y778781D01*
X936501D01*
X935168Y777448D01*
Y772116D01*
X936501Y770784D01*
X939167D01*
X940500Y772116D01*
X947164Y778781D02*
X944499D01*
X943166Y777448D01*
Y772116D01*
X944499Y770784D01*
X947164D01*
X948497Y772116D01*
Y777448D01*
X947164Y778781D01*
X951163Y770784D02*
Y778781D01*
X956495Y770784D01*
Y778781D01*
X959160D02*
Y770784D01*
X963159D01*
X964492Y772116D01*
Y777448D01*
X963159Y778781D01*
X959160D01*
X972489Y777448D02*
X971157Y778781D01*
X968491D01*
X967158Y777448D01*
Y776115D01*
X968491Y774782D01*
X971157D01*
X972489Y773449D01*
Y772116D01*
X971157Y770784D01*
X968491D01*
X967158Y772116D01*
X975155Y770784D02*
Y772116D01*
X976488D01*
Y770784D01*
X975155D01*
X559784Y501898D02*
X562449D01*
X561116D01*
Y509895D01*
X559784Y508562D01*
X566448D02*
X567781Y509895D01*
X570447D01*
X571780Y508562D01*
Y503230D01*
X570447Y501898D01*
X567781D01*
X566448Y503230D01*
Y508562D01*
X574445Y501898D02*
Y503230D01*
X575778D01*
Y501898D01*
X574445D01*
X589107Y509895D02*
Y501898D01*
X594439D01*
X597105D02*
Y507229D01*
X599770Y509895D01*
X602436Y507229D01*
Y501898D01*
Y505896D01*
X597105D01*
X605102Y509895D02*
Y508562D01*
X607768Y505896D01*
X610434Y508562D01*
Y509895D01*
X607768Y505896D02*
Y501898D01*
X618431Y509895D02*
X613099D01*
Y501898D01*
X618431D01*
X613099Y505896D02*
X615765D01*
X621097Y501898D02*
Y509895D01*
X625096D01*
X626429Y508562D01*
Y505896D01*
X625096Y504563D01*
X621097D01*
X623763D02*
X626429Y501898D01*
X642423Y508562D02*
X641090Y509895D01*
X638425D01*
X637092Y508562D01*
Y507229D01*
X638425Y505896D01*
X641090D01*
X642423Y504563D01*
Y503230D01*
X641090Y501898D01*
X638425D01*
X637092Y503230D01*
X645089Y509895D02*
X650421D01*
X647755D01*
Y501898D01*
X653087D02*
Y507229D01*
X655752Y509895D01*
X658418Y507229D01*
Y501898D01*
Y505896D01*
X653087D01*
X666416Y508562D02*
X665083Y509895D01*
X662417D01*
X661084Y508562D01*
Y503230D01*
X662417Y501898D01*
X665083D01*
X666416Y503230D01*
X669081Y509895D02*
Y501898D01*
Y504563D01*
X674413Y509895D01*
X670414Y505896D01*
X674413Y501898D01*
X677079Y509895D02*
Y503230D01*
X678412Y501898D01*
X681077D01*
X682410Y503230D01*
Y509895D01*
X685076Y501898D02*
Y509895D01*
X689075D01*
X690408Y508562D01*
Y505896D01*
X689075Y504563D01*
X685076D01*
X701071Y505896D02*
X706403D01*
X722398Y508562D02*
X721065Y509895D01*
X718399D01*
X717066Y508562D01*
Y507229D01*
X718399Y505896D01*
X721065D01*
X722398Y504563D01*
Y503230D01*
X721065Y501898D01*
X718399D01*
X717066Y503230D01*
X730395Y509895D02*
X725063D01*
Y501898D01*
X730395D01*
X725063Y505896D02*
X727729D01*
X738392Y509895D02*
X733061D01*
Y501898D01*
X738392D01*
X733061Y505896D02*
X735726D01*
X749055Y509895D02*
Y501898D01*
X753054D01*
X754387Y503230D01*
Y508562D01*
X753054Y509895D01*
X749055D01*
X762385D02*
X757053D01*
Y501898D01*
X762385D01*
X757053Y505896D02*
X759719D01*
X765050Y509895D02*
X770382D01*
X767716D01*
Y501898D01*
X773048D02*
Y507229D01*
X775713Y509895D01*
X778379Y507229D01*
Y501898D01*
Y505896D01*
X773048D01*
X781045Y509895D02*
X783711D01*
X782378D01*
Y501898D01*
X781045D01*
X783711D01*
X787710Y509895D02*
Y501898D01*
X793041D01*
X803704D02*
Y507229D01*
X806370Y509895D01*
X809036Y507229D01*
Y501898D01*
Y505896D01*
X803704D01*
X579468Y531425D02*
Y536757D01*
X582134Y539423D01*
X584800Y536757D01*
Y531425D01*
Y535424D01*
X579468D01*
X587466Y539423D02*
Y531425D01*
X591465D01*
X592798Y532758D01*
Y538090D01*
X591465Y539423D01*
X587466D01*
X595463D02*
Y531425D01*
X599462D01*
X600795Y532758D01*
Y538090D01*
X599462Y539423D01*
X595463D01*
X611458D02*
Y532758D01*
X612791Y531425D01*
X615457D01*
X616790Y532758D01*
Y539423D01*
X619456D02*
Y531425D01*
X624787D01*
X635450D02*
Y539423D01*
X638116Y536757D01*
X640782Y539423D01*
Y531425D01*
X643448D02*
Y536757D01*
X646114Y539423D01*
X648779Y536757D01*
Y531425D01*
Y535424D01*
X643448D01*
X651445Y531425D02*
Y539423D01*
X655444D01*
X656777Y538090D01*
Y535424D01*
X655444Y534091D01*
X651445D01*
X654111D02*
X656777Y531425D01*
X659443Y539423D02*
Y531425D01*
Y534091D01*
X664774Y539423D01*
X660776Y535424D01*
X664774Y531425D01*
X667440Y539423D02*
X670106D01*
X668773D01*
Y531425D01*
X667440D01*
X670106D01*
X674104D02*
Y539423D01*
X679436Y531425D01*
Y539423D01*
X687433Y538090D02*
X686101Y539423D01*
X683435D01*
X682102Y538090D01*
Y532758D01*
X683435Y531425D01*
X686101D01*
X687433Y532758D01*
Y535424D01*
X684768D01*
X698097Y531425D02*
Y536757D01*
X700763Y539423D01*
X703428Y536757D01*
Y531425D01*
Y535424D01*
X698097D01*
X706094Y531425D02*
Y539423D01*
X711426Y531425D01*
Y539423D01*
X714092D02*
Y531425D01*
X718090D01*
X719423Y532758D01*
Y538090D01*
X718090Y539423D01*
X714092D01*
X730086D02*
X732752D01*
X731419D01*
Y531425D01*
X730086D01*
X732752D01*
X736751Y539423D02*
Y531425D01*
X740750D01*
X742083Y532758D01*
Y538090D01*
X740750Y539423D01*
X736751D01*
X559784Y572128D02*
X561116Y570795D01*
X563782D01*
X565115Y572128D01*
Y577460D01*
X563782Y578793D01*
X561116D01*
X559784Y577460D01*
Y576127D01*
X561116Y574794D01*
X565115D01*
X567781Y570795D02*
Y572128D01*
X569114D01*
Y570795D01*
X567781D01*
X587774Y577460D02*
X586442Y578793D01*
X583776D01*
X582443Y577460D01*
Y576127D01*
X583776Y574794D01*
X586442D01*
X587774Y573461D01*
Y572128D01*
X586442Y570795D01*
X583776D01*
X582443Y572128D01*
X590440Y578793D02*
Y572128D01*
X591773Y570795D01*
X594439D01*
X595772Y572128D01*
Y578793D01*
X598438Y570795D02*
Y578793D01*
X602436D01*
X603769Y577460D01*
Y574794D01*
X602436Y573461D01*
X598438D01*
X606435Y570795D02*
Y578793D01*
X610434D01*
X611767Y577460D01*
Y574794D01*
X610434Y573461D01*
X606435D01*
X614432Y578793D02*
Y570795D01*
X619764D01*
X622430Y578793D02*
X625096D01*
X623763D01*
Y570795D01*
X622430D01*
X625096D01*
X634426Y578793D02*
X629094D01*
Y570795D01*
X634426D01*
X629094Y574794D02*
X631760D01*
X637092Y570795D02*
Y578793D01*
X641090D01*
X642423Y577460D01*
Y574794D01*
X641090Y573461D01*
X637092D01*
X639758D02*
X642423Y570795D01*
X653087D02*
Y578793D01*
X655752Y576127D01*
X658418Y578793D01*
Y570795D01*
X661084D02*
Y576127D01*
X663750Y578793D01*
X666416Y576127D01*
Y570795D01*
Y574794D01*
X661084D01*
X669081Y570795D02*
Y578793D01*
X673080D01*
X674413Y577460D01*
Y574794D01*
X673080Y573461D01*
X669081D01*
X671747D02*
X674413Y570795D01*
X677079Y578793D02*
Y570795D01*
Y573461D01*
X682410Y578793D01*
X678412Y574794D01*
X682410Y570795D01*
X685076Y578793D02*
X687742D01*
X686409D01*
Y570795D01*
X685076D01*
X687742D01*
X691741D02*
Y578793D01*
X697072Y570795D01*
Y578793D01*
X705070Y577460D02*
X703737Y578793D01*
X701071D01*
X699738Y577460D01*
Y572128D01*
X701071Y570795D01*
X703737D01*
X705070Y572128D01*
Y574794D01*
X702404D01*
X715733D02*
X721065D01*
X735726Y578793D02*
X733061D01*
X731728Y577460D01*
Y572128D01*
X733061Y570795D01*
X735726D01*
X737059Y572128D01*
Y577460D01*
X735726Y578793D01*
X739725Y570795D02*
Y578793D01*
X745057Y570795D01*
Y578793D01*
X761052Y577460D02*
X759719Y578793D01*
X757053D01*
X755720Y577460D01*
Y576127D01*
X757053Y574794D01*
X759719D01*
X761052Y573461D01*
Y572128D01*
X759719Y570795D01*
X757053D01*
X755720Y572128D01*
X767716Y578793D02*
X765050D01*
X763717Y577460D01*
Y572128D01*
X765050Y570795D01*
X767716D01*
X769049Y572128D01*
Y577460D01*
X767716Y578793D01*
X771715D02*
Y570795D01*
X777046D01*
X779712Y578793D02*
Y570795D01*
X783711D01*
X785044Y572128D01*
Y577460D01*
X783711Y578793D01*
X779712D01*
X793041D02*
X787710D01*
Y570795D01*
X793041D01*
X787710Y574794D02*
X790376D01*
X795707Y570795D02*
Y578793D01*
X799706D01*
X801039Y577460D01*
Y574794D01*
X799706Y573461D01*
X795707D01*
X798373D02*
X801039Y570795D01*
X817033Y577460D02*
X815701Y578793D01*
X813035D01*
X811702Y577460D01*
Y576127D01*
X813035Y574794D01*
X815701D01*
X817033Y573461D01*
Y572128D01*
X815701Y570795D01*
X813035D01*
X811702Y572128D01*
X819699Y578793D02*
X822365D01*
X821032D01*
Y570795D01*
X819699D01*
X822365D01*
X826364Y578793D02*
Y570795D01*
X830363D01*
X831695Y572128D01*
Y577460D01*
X830363Y578793D01*
X826364D01*
X839693D02*
X834361D01*
Y570795D01*
X839693D01*
X834361Y574794D02*
X837027D01*
X559784Y636903D02*
X565115D01*
Y635570D01*
X559784Y630238D01*
Y628905D01*
X567781D02*
Y630238D01*
X569114D01*
Y628905D01*
X567781D01*
X587774Y636903D02*
X582443D01*
Y632904D01*
X585109D01*
X582443D01*
Y628905D01*
X590440Y636903D02*
X593106D01*
X591773D01*
Y628905D01*
X590440D01*
X593106D01*
X597105D02*
Y636903D01*
X602436Y628905D01*
Y636903D01*
X605102D02*
X607768D01*
X606435D01*
Y628905D01*
X605102D01*
X607768D01*
X617098Y635570D02*
X615765Y636903D01*
X613099D01*
X611767Y635570D01*
Y634237D01*
X613099Y632904D01*
X615765D01*
X617098Y631571D01*
Y630238D01*
X615765Y628905D01*
X613099D01*
X611767Y630238D01*
X619764Y636903D02*
Y628905D01*
Y632904D01*
X625096D01*
Y636903D01*
Y628905D01*
X633093Y636903D02*
X627761D01*
Y628905D01*
X633093D01*
X627761Y632904D02*
X630427D01*
X635759Y636903D02*
Y628905D01*
X639758D01*
X641090Y630238D01*
Y635570D01*
X639758Y636903D01*
X635759D01*
X651754Y628905D02*
Y636903D01*
X655752D01*
X657085Y635570D01*
Y632904D01*
X655752Y631571D01*
X651754D01*
X665083Y635570D02*
X663750Y636903D01*
X661084D01*
X659751Y635570D01*
Y630238D01*
X661084Y628905D01*
X663750D01*
X665083Y630238D01*
X667748Y636903D02*
Y628905D01*
X671747D01*
X673080Y630238D01*
Y631571D01*
X671747Y632904D01*
X667748D01*
X671747D01*
X673080Y634237D01*
Y635570D01*
X671747Y636903D01*
X667748D01*
X683743Y628905D02*
Y636903D01*
X686409Y634237D01*
X689075Y636903D01*
Y628905D01*
X691741Y636903D02*
Y630238D01*
X693074Y628905D01*
X695739D01*
X697072Y630238D01*
Y636903D01*
X705070Y635570D02*
X703737Y636903D01*
X701071D01*
X699738Y635570D01*
Y634237D01*
X701071Y632904D01*
X703737D01*
X705070Y631571D01*
Y630238D01*
X703737Y628905D01*
X701071D01*
X699738Y630238D01*
X707735Y636903D02*
X713067D01*
X710401D01*
Y628905D01*
X723730Y636903D02*
Y628905D01*
X727729D01*
X729062Y630238D01*
Y631571D01*
X727729Y632904D01*
X723730D01*
X727729D01*
X729062Y634237D01*
Y635570D01*
X727729Y636903D01*
X723730D01*
X737059D02*
X731728D01*
Y628905D01*
X737059D01*
X731728Y632904D02*
X734394D01*
X747723Y628905D02*
Y636903D01*
X750388Y634237D01*
X753054Y636903D01*
Y628905D01*
X755720D02*
Y634237D01*
X758386Y636903D01*
X761052Y634237D01*
Y628905D01*
Y632904D01*
X755720D01*
X763717Y628905D02*
Y636903D01*
X769049Y628905D01*
Y636903D01*
X777046D02*
X771715D01*
Y628905D01*
X777046D01*
X771715Y632904D02*
X774381D01*
X779712Y636903D02*
Y628905D01*
X785044D01*
X787710Y636903D02*
X790376D01*
X789043D01*
Y628905D01*
X787710D01*
X790376D01*
X794374Y636903D02*
X799706D01*
Y635570D01*
X794374Y630238D01*
Y628905D01*
X799706D01*
X807703Y636903D02*
X802372D01*
Y628905D01*
X807703D01*
X802372Y632904D02*
X805037D01*
X810369Y636903D02*
Y628905D01*
X814368D01*
X815701Y630238D01*
Y635570D01*
X814368Y636903D01*
X810369D01*
X831695D02*
X826364D01*
Y632904D01*
X829030D01*
X826364D01*
Y628905D01*
X838360Y636903D02*
X835694D01*
X834361Y635570D01*
Y630238D01*
X835694Y628905D01*
X838360D01*
X839693Y630238D01*
Y635570D01*
X838360Y636903D01*
X842359Y628905D02*
Y636903D01*
X846357D01*
X847690Y635570D01*
Y632904D01*
X846357Y631571D01*
X842359D01*
X845024D02*
X847690Y628905D01*
X858353D02*
Y634237D01*
X861019Y636903D01*
X863685Y634237D01*
Y628905D01*
Y632904D01*
X858353D01*
X871682Y635570D02*
X870350Y636903D01*
X867684D01*
X866351Y635570D01*
Y634237D01*
X867684Y632904D01*
X870350D01*
X871682Y631571D01*
Y630238D01*
X870350Y628905D01*
X867684D01*
X866351Y630238D01*
X879680Y635570D02*
X878347Y636903D01*
X875681D01*
X874348Y635570D01*
Y634237D01*
X875681Y632904D01*
X878347D01*
X879680Y631571D01*
Y630238D01*
X878347Y628905D01*
X875681D01*
X874348Y630238D01*
X887677Y636903D02*
X882346D01*
Y628905D01*
X887677D01*
X882346Y632904D02*
X885011D01*
X890343Y628905D02*
Y636903D01*
X893009Y634237D01*
X895675Y636903D01*
Y628905D01*
X898341Y636903D02*
Y628905D01*
X902339D01*
X903672Y630238D01*
Y631571D01*
X902339Y632904D01*
X898341D01*
X902339D01*
X903672Y634237D01*
Y635570D01*
X902339Y636903D01*
X898341D01*
X906338D02*
Y628905D01*
X911670D01*
X914335Y636903D02*
Y635570D01*
X917001Y632904D01*
X919667Y635570D01*
Y636903D01*
X917001Y632904D02*
Y628905D01*
X922333D02*
Y630238D01*
X923666D01*
Y628905D01*
X922333D01*
X579468Y551110D02*
Y556442D01*
X582134Y559108D01*
X584800Y556442D01*
Y551110D01*
Y555109D01*
X579468D01*
X587466Y559108D02*
Y551110D01*
X591465D01*
X592798Y552443D01*
Y557775D01*
X591465Y559108D01*
X587466D01*
X595463D02*
Y551110D01*
X599462D01*
X600795Y552443D01*
Y557775D01*
X599462Y559108D01*
X595463D01*
X611458Y551110D02*
Y559108D01*
X615457D01*
X616790Y557775D01*
Y555109D01*
X615457Y553776D01*
X611458D01*
X614124D02*
X616790Y551110D01*
X623454Y559108D02*
X620788D01*
X619456Y557775D01*
Y552443D01*
X620788Y551110D01*
X623454D01*
X624787Y552443D01*
Y557775D01*
X623454Y559108D01*
X627453D02*
Y551110D01*
Y555109D01*
X632785D01*
Y559108D01*
Y551110D01*
X640782Y557775D02*
X639449Y559108D01*
X636783D01*
X635450Y557775D01*
Y556442D01*
X636783Y555109D01*
X639449D01*
X640782Y553776D01*
Y552443D01*
X639449Y551110D01*
X636783D01*
X635450Y552443D01*
X651445Y559108D02*
Y551110D01*
X656777D01*
X663441Y559108D02*
X660776D01*
X659443Y557775D01*
Y552443D01*
X660776Y551110D01*
X663441D01*
X664774Y552443D01*
Y557775D01*
X663441Y559108D01*
X672772Y557775D02*
X671439Y559108D01*
X668773D01*
X667440Y557775D01*
Y552443D01*
X668773Y551110D01*
X671439D01*
X672772Y552443D01*
Y555109D01*
X670106D01*
X679436Y559108D02*
X676770D01*
X675437Y557775D01*
Y552443D01*
X676770Y551110D01*
X679436D01*
X680769Y552443D01*
Y557775D01*
X679436Y559108D01*
X565115Y666431D02*
X562449Y665098D01*
X559784Y662432D01*
Y659766D01*
X561116Y658433D01*
X563782D01*
X565115Y659766D01*
Y661099D01*
X563782Y662432D01*
X559784D01*
X567781Y658433D02*
Y659766D01*
X569114D01*
Y658433D01*
X567781D01*
X587774Y665098D02*
X586442Y666431D01*
X583776D01*
X582443Y665098D01*
Y663765D01*
X583776Y662432D01*
X586442D01*
X587774Y661099D01*
Y659766D01*
X586442Y658433D01*
X583776D01*
X582443Y659766D01*
X594439Y666431D02*
X591773D01*
X590440Y665098D01*
Y659766D01*
X591773Y658433D01*
X594439D01*
X595772Y659766D01*
Y665098D01*
X594439Y666431D01*
X598438D02*
Y658433D01*
X603769D01*
X606435Y666431D02*
Y658433D01*
X610434D01*
X611767Y659766D01*
Y665098D01*
X610434Y666431D01*
X606435D01*
X619764D02*
X614432D01*
Y658433D01*
X619764D01*
X614432Y662432D02*
X617098D01*
X622430Y658433D02*
Y666431D01*
X626429D01*
X627761Y665098D01*
Y662432D01*
X626429Y661099D01*
X622430D01*
X625096D02*
X627761Y658433D01*
X643756Y665098D02*
X642423Y666431D01*
X639758D01*
X638425Y665098D01*
Y663765D01*
X639758Y662432D01*
X642423D01*
X643756Y661099D01*
Y659766D01*
X642423Y658433D01*
X639758D01*
X638425Y659766D01*
X646422Y658433D02*
Y663765D01*
X649088Y666431D01*
X651754Y663765D01*
Y658433D01*
Y662432D01*
X646422D01*
X654420Y658433D02*
Y666431D01*
X657085Y663765D01*
X659751Y666431D01*
Y658433D01*
X662417D02*
Y666431D01*
X666416D01*
X667748Y665098D01*
Y662432D01*
X666416Y661099D01*
X662417D01*
X670414Y666431D02*
Y658433D01*
X675746D01*
X683743Y666431D02*
X678412D01*
Y658433D01*
X683743D01*
X678412Y662432D02*
X681077D01*
X691741Y665098D02*
X690408Y666431D01*
X687742D01*
X686409Y665098D01*
Y663765D01*
X687742Y662432D01*
X690408D01*
X691741Y661099D01*
Y659766D01*
X690408Y658433D01*
X687742D01*
X686409Y659766D01*
X702404Y666431D02*
X707735D01*
X705070D01*
Y658433D01*
X714400Y666431D02*
X711734D01*
X710401Y665098D01*
Y659766D01*
X711734Y658433D01*
X714400D01*
X715733Y659766D01*
Y665098D01*
X714400Y666431D01*
X726396D02*
Y658433D01*
X730395D01*
X731728Y659766D01*
Y661099D01*
X730395Y662432D01*
X726396D01*
X730395D01*
X731728Y663765D01*
Y665098D01*
X730395Y666431D01*
X726396D01*
X739725D02*
X734394D01*
Y658433D01*
X739725D01*
X734394Y662432D02*
X737059D01*
X750388Y658433D02*
Y666431D01*
X754387D01*
X755720Y665098D01*
Y662432D01*
X754387Y661099D01*
X750388D01*
X758386Y658433D02*
Y666431D01*
X762385D01*
X763717Y665098D01*
Y662432D01*
X762385Y661099D01*
X758386D01*
X761052D02*
X763717Y658433D01*
X770382Y666431D02*
X767716D01*
X766383Y665098D01*
Y659766D01*
X767716Y658433D01*
X770382D01*
X771715Y659766D01*
Y665098D01*
X770382Y666431D01*
X774381D02*
Y661099D01*
X777046Y658433D01*
X779712Y661099D01*
Y666431D01*
X782378D02*
X785044D01*
X783711D01*
Y658433D01*
X782378D01*
X785044D01*
X789043Y666431D02*
Y658433D01*
X793041D01*
X794374Y659766D01*
Y665098D01*
X793041Y666431D01*
X789043D01*
X802372D02*
X797040D01*
Y658433D01*
X802372D01*
X797040Y662432D02*
X799706D01*
X805037Y666431D02*
Y658433D01*
X809036D01*
X810369Y659766D01*
Y665098D01*
X809036Y666431D01*
X805037D01*
X559784Y606987D02*
X561116Y608320D01*
X563782D01*
X565115Y606987D01*
Y605654D01*
X563782Y604321D01*
X565115Y602989D01*
Y601656D01*
X563782Y600323D01*
X561116D01*
X559784Y601656D01*
Y602989D01*
X561116Y604321D01*
X559784Y605654D01*
Y606987D01*
X561116Y604321D02*
X563782D01*
X567781Y600323D02*
Y601656D01*
X569114D01*
Y600323D01*
X567781D01*
X587774Y606987D02*
X586442Y608320D01*
X583776D01*
X582443Y606987D01*
Y605654D01*
X583776Y604321D01*
X586442D01*
X587774Y602989D01*
Y601656D01*
X586442Y600323D01*
X583776D01*
X582443Y601656D01*
X590440Y608320D02*
X593106D01*
X591773D01*
Y600323D01*
X590440D01*
X593106D01*
X597105Y608320D02*
Y600323D01*
X602436D01*
X605102Y608320D02*
Y600323D01*
Y602989D01*
X610434Y608320D01*
X606435Y604321D01*
X610434Y600323D01*
X618431Y606987D02*
X617098Y608320D01*
X614432D01*
X613099Y606987D01*
Y605654D01*
X614432Y604321D01*
X617098D01*
X618431Y602989D01*
Y601656D01*
X617098Y600323D01*
X614432D01*
X613099Y601656D01*
X626429Y606987D02*
X625096Y608320D01*
X622430D01*
X621097Y606987D01*
Y601656D01*
X622430Y600323D01*
X625096D01*
X626429Y601656D01*
X629094Y600323D02*
Y608320D01*
X633093D01*
X634426Y606987D01*
Y604321D01*
X633093Y602989D01*
X629094D01*
X631760D02*
X634426Y600323D01*
X642423Y608320D02*
X637092D01*
Y600323D01*
X642423D01*
X637092Y604321D02*
X639758D01*
X650421Y608320D02*
X645089D01*
Y600323D01*
X650421D01*
X645089Y604321D02*
X647755D01*
X653087Y600323D02*
Y608320D01*
X658418Y600323D01*
Y608320D01*
X669081Y604321D02*
X674413D01*
X685076Y608320D02*
Y600323D01*
X687742Y602989D01*
X690408Y600323D01*
Y608320D01*
X693074D02*
Y600323D01*
Y604321D01*
X698405D01*
Y608320D01*
Y600323D01*
X701071Y608320D02*
X703737D01*
X702404D01*
Y600323D01*
X701071D01*
X703737D01*
X707735Y608320D02*
X713067D01*
X710401D01*
Y600323D01*
X721065Y608320D02*
X715733D01*
Y600323D01*
X721065D01*
X715733Y604321D02*
X718399D01*
X737059Y608320D02*
X731728D01*
Y600323D01*
X737059D01*
X731728Y604321D02*
X734394D01*
X739725Y600323D02*
Y608320D01*
X743724D01*
X745057Y606987D01*
Y604321D01*
X743724Y602989D01*
X739725D01*
X751721Y608320D02*
X749055D01*
X747723Y606987D01*
Y601656D01*
X749055Y600323D01*
X751721D01*
X753054Y601656D01*
Y606987D01*
X751721Y608320D01*
X755720D02*
X761052Y600323D01*
Y608320D02*
X755720Y600323D01*
X763717Y608320D02*
Y606987D01*
X766383Y604321D01*
X769049Y606987D01*
Y608320D01*
X766383Y604321D02*
Y600323D01*
X779712Y608320D02*
X782378D01*
X781045D01*
Y600323D01*
X779712D01*
X782378D01*
X786377D02*
Y608320D01*
X791708Y600323D01*
Y608320D01*
X794374D02*
Y600323D01*
Y602989D01*
X799706Y608320D01*
X795707Y604321D01*
X799706Y600323D01*
X803704Y598990D02*
X805037Y600323D01*
Y601656D01*
X803704D01*
Y600323D01*
X805037D01*
X803704Y598990D01*
X802372Y597657D01*
X818366Y608320D02*
Y600323D01*
X822365D01*
X823698Y601656D01*
Y602989D01*
X822365Y604321D01*
X818366D01*
X822365D01*
X823698Y605654D01*
Y606987D01*
X822365Y608320D01*
X818366D01*
X830363D02*
X827697D01*
X826364Y606987D01*
Y601656D01*
X827697Y600323D01*
X830363D01*
X831695Y601656D01*
Y606987D01*
X830363Y608320D01*
X834361D02*
X839693D01*
X837027D01*
Y600323D01*
X842359Y608320D02*
Y600323D01*
Y604321D01*
X847690D01*
Y608320D01*
Y600323D01*
X863685Y606987D02*
X862352Y608320D01*
X859686D01*
X858353Y606987D01*
Y605654D01*
X859686Y604321D01*
X862352D01*
X863685Y602989D01*
Y601656D01*
X862352Y600323D01*
X859686D01*
X858353Y601656D01*
X866351Y608320D02*
X869017D01*
X867684D01*
Y600323D01*
X866351D01*
X869017D01*
X873015Y608320D02*
Y600323D01*
X877014D01*
X878347Y601656D01*
Y606987D01*
X877014Y608320D01*
X873015D01*
X886344D02*
X881013D01*
Y600323D01*
X886344D01*
X881013Y604321D02*
X883679D01*
X894342Y606987D02*
X893009Y608320D01*
X890343D01*
X889010Y606987D01*
Y605654D01*
X890343Y604321D01*
X893009D01*
X894342Y602989D01*
Y601656D01*
X893009Y600323D01*
X890343D01*
X889010Y601656D01*
X897008Y600323D02*
Y601656D01*
X898341D01*
Y600323D01*
X897008D01*
X911670D02*
Y608320D01*
X917001Y600323D01*
Y608320D01*
X923666D02*
X921000D01*
X919667Y606987D01*
Y601656D01*
X921000Y600323D01*
X923666D01*
X924998Y601656D01*
Y606987D01*
X923666Y608320D01*
X940993Y606987D02*
X939660Y608320D01*
X936995D01*
X935662Y606987D01*
Y605654D01*
X936995Y604321D01*
X939660D01*
X940993Y602989D01*
Y601656D01*
X939660Y600323D01*
X936995D01*
X935662Y601656D01*
X943659Y608320D02*
X946325D01*
X944992D01*
Y600323D01*
X943659D01*
X946325D01*
X950324Y608320D02*
Y600323D01*
X955655D01*
X958321Y608320D02*
Y600323D01*
Y602989D01*
X963653Y608320D01*
X959654Y604321D01*
X963653Y600323D01*
X978315Y608320D02*
X975649D01*
X974316Y606987D01*
Y601656D01*
X975649Y600323D01*
X978315D01*
X979648Y601656D01*
Y606987D01*
X978315Y608320D01*
X982313Y600323D02*
Y608320D01*
X987645Y600323D01*
Y608320D01*
X998308Y600323D02*
Y608320D01*
X1002307D01*
X1003640Y606987D01*
Y604321D01*
X1002307Y602989D01*
X998308D01*
X1006306Y600323D02*
Y605654D01*
X1008971Y608320D01*
X1011637Y605654D01*
Y600323D01*
Y604321D01*
X1006306D01*
X1014303Y608320D02*
Y600323D01*
X1018302D01*
X1019635Y601656D01*
Y606987D01*
X1018302Y608320D01*
X1014303D01*
X1027632Y606987D02*
X1026299Y608320D01*
X1023633D01*
X1022300Y606987D01*
Y605654D01*
X1023633Y604321D01*
X1026299D01*
X1027632Y602989D01*
Y601656D01*
X1026299Y600323D01*
X1023633D01*
X1022300Y601656D01*
X565115Y695958D02*
X559784D01*
Y691959D01*
X562449Y693292D01*
X563782D01*
X565115Y691959D01*
Y689293D01*
X563782Y687961D01*
X561116D01*
X559784Y689293D01*
X567781Y687961D02*
Y689293D01*
X569114D01*
Y687961D01*
X567781D01*
X587774Y694625D02*
X586442Y695958D01*
X583776D01*
X582443Y694625D01*
Y693292D01*
X583776Y691959D01*
X586442D01*
X587774Y690626D01*
Y689293D01*
X586442Y687961D01*
X583776D01*
X582443Y689293D01*
X594439Y695958D02*
X591773D01*
X590440Y694625D01*
Y689293D01*
X591773Y687961D01*
X594439D01*
X595772Y689293D01*
Y694625D01*
X594439Y695958D01*
X598438D02*
Y687961D01*
X603769D01*
X606435Y695958D02*
Y687961D01*
X610434D01*
X611767Y689293D01*
Y694625D01*
X610434Y695958D01*
X606435D01*
X619764D02*
X614432D01*
Y687961D01*
X619764D01*
X614432Y691959D02*
X617098D01*
X622430Y687961D02*
Y695958D01*
X626429D01*
X627761Y694625D01*
Y691959D01*
X626429Y690626D01*
X622430D01*
X625096D02*
X627761Y687961D01*
X630427D02*
Y695958D01*
X633093Y693292D01*
X635759Y695958D01*
Y687961D01*
X638425D02*
Y693292D01*
X641090Y695958D01*
X643756Y693292D01*
Y687961D01*
Y691959D01*
X638425D01*
X651754Y694625D02*
X650421Y695958D01*
X647755D01*
X646422Y694625D01*
Y693292D01*
X647755Y691959D01*
X650421D01*
X651754Y690626D01*
Y689293D01*
X650421Y687961D01*
X647755D01*
X646422Y689293D01*
X654420Y695958D02*
Y687961D01*
Y690626D01*
X659751Y695958D01*
X655752Y691959D01*
X659751Y687961D01*
X670414Y691959D02*
X675746D01*
X686409Y695958D02*
Y687961D01*
X690408D01*
X691741Y689293D01*
Y690626D01*
X690408Y691959D01*
X686409D01*
X690408D01*
X691741Y693292D01*
Y694625D01*
X690408Y695958D01*
X686409D01*
X698405D02*
X695739D01*
X694407Y694625D01*
Y689293D01*
X695739Y687961D01*
X698405D01*
X699738Y689293D01*
Y694625D01*
X698405Y695958D01*
X702404D02*
X707735D01*
X705070D01*
Y687961D01*
X710401Y695958D02*
Y687961D01*
Y691959D01*
X715733D01*
Y695958D01*
Y687961D01*
X731728Y694625D02*
X730395Y695958D01*
X727729D01*
X726396Y694625D01*
Y693292D01*
X727729Y691959D01*
X730395D01*
X731728Y690626D01*
Y689293D01*
X730395Y687961D01*
X727729D01*
X726396Y689293D01*
X734394Y695958D02*
X737059D01*
X735726D01*
Y687961D01*
X734394D01*
X737059D01*
X741058Y695958D02*
Y687961D01*
X745057D01*
X746390Y689293D01*
Y694625D01*
X745057Y695958D01*
X741058D01*
X754387D02*
X749055D01*
Y687961D01*
X754387D01*
X749055Y691959D02*
X751721D01*
X762385Y694625D02*
X761052Y695958D01*
X758386D01*
X757053Y694625D01*
Y693292D01*
X758386Y691959D01*
X761052D01*
X762385Y690626D01*
Y689293D01*
X761052Y687961D01*
X758386D01*
X757053Y689293D01*
X778379Y694625D02*
X777046Y695958D01*
X774381D01*
X773048Y694625D01*
Y689293D01*
X774381Y687961D01*
X777046D01*
X778379Y689293D01*
Y691959D01*
X775713D01*
X781045Y687961D02*
Y695958D01*
X785044D01*
X786377Y694625D01*
Y691959D01*
X785044Y690626D01*
X781045D01*
X783711D02*
X786377Y687961D01*
X794374Y695958D02*
X789043D01*
Y687961D01*
X794374D01*
X789043Y691959D02*
X791708D01*
X802372Y695958D02*
X797040D01*
Y687961D01*
X802372D01*
X797040Y691959D02*
X799706D01*
X805037Y687961D02*
Y695958D01*
X810369Y687961D01*
Y695958D01*
X563782Y717488D02*
Y725486D01*
X559784Y721487D01*
X565115D01*
X567781Y717488D02*
Y718821D01*
X569114D01*
Y717488D01*
X567781D01*
X582443D02*
Y725486D01*
X586442D01*
X587774Y724153D01*
Y721487D01*
X586442Y720154D01*
X582443D01*
X590440Y725486D02*
Y717488D01*
X595772D01*
X598438D02*
Y722820D01*
X601103Y725486D01*
X603769Y722820D01*
Y717488D01*
Y721487D01*
X598438D01*
X606435Y725486D02*
X611767D01*
X609101D01*
Y717488D01*
X614432Y725486D02*
X617098D01*
X615765D01*
Y717488D01*
X614432D01*
X617098D01*
X621097D02*
Y725486D01*
X626429Y717488D01*
Y725486D01*
X634426Y724153D02*
X633093Y725486D01*
X630427D01*
X629094Y724153D01*
Y718821D01*
X630427Y717488D01*
X633093D01*
X634426Y718821D01*
Y721487D01*
X631760D01*
X650421Y725486D02*
X645089D01*
Y721487D01*
X647755D01*
X645089D01*
Y717488D01*
X653087Y725486D02*
X655752D01*
X654420D01*
Y717488D01*
X653087D01*
X655752D01*
X659751D02*
Y725486D01*
X665083Y717488D01*
Y725486D01*
X667748D02*
X670414D01*
X669081D01*
Y717488D01*
X667748D01*
X670414D01*
X679745Y724153D02*
X678412Y725486D01*
X675746D01*
X674413Y724153D01*
Y722820D01*
X675746Y721487D01*
X678412D01*
X679745Y720154D01*
Y718821D01*
X678412Y717488D01*
X675746D01*
X674413Y718821D01*
X682410Y725486D02*
Y717488D01*
Y721487D01*
X687742D01*
Y725486D01*
Y717488D01*
X698405Y721487D02*
X703737D01*
X714400Y725486D02*
Y717488D01*
X718399D01*
X719732Y718821D01*
Y720154D01*
X718399Y721487D01*
X714400D01*
X718399D01*
X719732Y722820D01*
Y724153D01*
X718399Y725486D01*
X714400D01*
X726396D02*
X723730D01*
X722398Y724153D01*
Y718821D01*
X723730Y717488D01*
X726396D01*
X727729Y718821D01*
Y724153D01*
X726396Y725486D01*
X730395D02*
X735726D01*
X733061D01*
Y717488D01*
X738392Y725486D02*
Y717488D01*
Y721487D01*
X743724D01*
Y725486D01*
Y717488D01*
X759719Y724153D02*
X758386Y725486D01*
X755720D01*
X754387Y724153D01*
Y722820D01*
X755720Y721487D01*
X758386D01*
X759719Y720154D01*
Y718821D01*
X758386Y717488D01*
X755720D01*
X754387Y718821D01*
X762385Y725486D02*
X765050D01*
X763717D01*
Y717488D01*
X762385D01*
X765050D01*
X769049Y725486D02*
Y717488D01*
X773048D01*
X774381Y718821D01*
Y724153D01*
X773048Y725486D01*
X769049D01*
X782378D02*
X777046D01*
Y717488D01*
X782378D01*
X777046Y721487D02*
X779712D01*
X790376Y724153D02*
X789043Y725486D01*
X786377D01*
X785044Y724153D01*
Y722820D01*
X786377Y721487D01*
X789043D01*
X790376Y720154D01*
Y718821D01*
X789043Y717488D01*
X786377D01*
X785044Y718821D01*
X806370Y725486D02*
X801039D01*
Y717488D01*
X806370D01*
X801039Y721487D02*
X803704D01*
X809036Y717488D02*
Y725486D01*
X814368Y717488D01*
Y725486D01*
X817033D02*
X819699D01*
X818366D01*
Y717488D01*
X817033D01*
X819699D01*
X829030Y724153D02*
X827697Y725486D01*
X825031D01*
X823698Y724153D01*
Y718821D01*
X825031Y717488D01*
X827697D01*
X829030Y718821D01*
Y721487D01*
X826364D01*
X845024Y724153D02*
X843692Y725486D01*
X841026D01*
X839693Y724153D01*
Y718821D01*
X841026Y717488D01*
X843692D01*
X845024Y718821D01*
Y721487D01*
X842359D01*
X851689Y725486D02*
X849023D01*
X847690Y724153D01*
Y718821D01*
X849023Y717488D01*
X851689D01*
X853022Y718821D01*
Y724153D01*
X851689Y725486D01*
X855688D02*
Y717488D01*
X861019D01*
X863685Y725486D02*
Y717488D01*
X867684D01*
X869017Y718821D01*
Y724153D01*
X867684Y725486D01*
X863685D01*
X879680Y717488D02*
Y725486D01*
X883679D01*
X885011Y724153D01*
Y721487D01*
X883679Y720154D01*
X879680D01*
X887677Y725486D02*
Y717488D01*
X893009D01*
X895675D02*
Y722820D01*
X898341Y725486D01*
X901006Y722820D01*
Y717488D01*
Y721487D01*
X895675D01*
X903672Y725486D02*
X909004D01*
X906338D01*
Y717488D01*
X917001Y725486D02*
X911670D01*
Y717488D01*
X917001D01*
X911670Y721487D02*
X914335D01*
X919667Y725486D02*
Y717488D01*
X923666D01*
X924998Y718821D01*
Y724153D01*
X923666Y725486D01*
X919667D01*
X559784Y753680D02*
X561116Y755013D01*
X563782D01*
X565115Y753680D01*
Y752347D01*
X563782Y751015D01*
X562449D01*
X563782D01*
X565115Y749682D01*
Y748349D01*
X563782Y747016D01*
X561116D01*
X559784Y748349D01*
X567781Y747016D02*
Y748349D01*
X569114D01*
Y747016D01*
X567781D01*
X582443Y755013D02*
Y747016D01*
X587774D01*
X590440D02*
Y752347D01*
X593106Y755013D01*
X595772Y752347D01*
Y747016D01*
Y751015D01*
X590440D01*
X598438Y747016D02*
Y755013D01*
X601103Y752347D01*
X603769Y755013D01*
Y747016D01*
X606435Y755013D02*
X609101D01*
X607768D01*
Y747016D01*
X606435D01*
X609101D01*
X613099D02*
Y755013D01*
X618431Y747016D01*
Y755013D01*
X621097Y747016D02*
Y752347D01*
X623763Y755013D01*
X626429Y752347D01*
Y747016D01*
Y751015D01*
X621097D01*
X629094Y755013D02*
X634426D01*
X631760D01*
Y747016D01*
X642423Y755013D02*
X637092D01*
Y747016D01*
X642423D01*
X637092Y751015D02*
X639758D01*
X653087Y747016D02*
Y752347D01*
X655752Y755013D01*
X658418Y752347D01*
Y747016D01*
Y751015D01*
X653087D01*
X661084Y747016D02*
Y755013D01*
X666416Y747016D01*
Y755013D01*
X669081D02*
Y747016D01*
X673080D01*
X674413Y748349D01*
Y753680D01*
X673080Y755013D01*
X669081D01*
X685076Y747016D02*
Y755013D01*
X689075D01*
X690408Y753680D01*
Y751015D01*
X689075Y749682D01*
X685076D01*
X693074Y747016D02*
Y755013D01*
X697072D01*
X698405Y753680D01*
Y751015D01*
X697072Y749682D01*
X693074D01*
X695739D02*
X698405Y747016D01*
X706403Y755013D02*
X701071D01*
Y747016D01*
X706403D01*
X701071Y751015D02*
X703737D01*
X709068Y747016D02*
Y755013D01*
X713067D01*
X714400Y753680D01*
Y751015D01*
X713067Y749682D01*
X709068D01*
X717066Y747016D02*
Y755013D01*
X721065D01*
X722398Y753680D01*
Y751015D01*
X721065Y749682D01*
X717066D01*
X719732D02*
X722398Y747016D01*
X730395Y755013D02*
X725063D01*
Y747016D01*
X730395D01*
X725063Y751015D02*
X727729D01*
X738392Y753680D02*
X737059Y755013D01*
X734394D01*
X733061Y753680D01*
Y748349D01*
X734394Y747016D01*
X737059D01*
X738392Y748349D01*
Y751015D01*
X735726D01*
X749055Y755013D02*
X754387D01*
X751721D01*
Y747016D01*
X761052Y755013D02*
X758386D01*
X757053Y753680D01*
Y748349D01*
X758386Y747016D01*
X761052D01*
X762385Y748349D01*
Y753680D01*
X761052Y755013D01*
X773048D02*
Y747016D01*
X777046D01*
X778379Y748349D01*
Y749682D01*
X777046Y751015D01*
X773048D01*
X777046D01*
X778379Y752347D01*
Y753680D01*
X777046Y755013D01*
X773048D01*
X786377D02*
X781045D01*
Y747016D01*
X786377D01*
X781045Y751015D02*
X783711D01*
X802372Y755013D02*
X797040D01*
Y751015D01*
X799706D01*
X797040D01*
Y747016D01*
X805037D02*
Y755013D01*
X809036D01*
X810369Y753680D01*
Y751015D01*
X809036Y749682D01*
X805037D01*
X807703D02*
X810369Y747016D01*
X817033D02*
Y755013D01*
X813035Y751015D01*
X818366D01*
X829030Y755013D02*
X834361D01*
X831695D01*
Y747016D01*
X842359Y753680D02*
X841026Y755013D01*
X838360D01*
X837027Y753680D01*
Y748349D01*
X838360Y747016D01*
X841026D01*
X842359Y748349D01*
Y751015D01*
X839693D01*
X845024Y747016D02*
X847690D01*
X846357D01*
Y755013D01*
X845024Y753680D01*
X851689Y755013D02*
X857020D01*
Y753680D01*
X851689Y748349D01*
Y747016D01*
X859686Y753680D02*
X861019Y755013D01*
X863685D01*
X865018Y753680D01*
Y748349D01*
X863685Y747016D01*
X861019D01*
X859686Y748349D01*
Y753680D01*
X565115Y786386D02*
X559784D01*
X565115Y791717D01*
Y793050D01*
X563782Y794383D01*
X561116D01*
X559784Y793050D01*
X567781Y786386D02*
Y787719D01*
X569114D01*
Y786386D01*
X567781D01*
X582443Y794383D02*
X587774D01*
X585109D01*
Y786386D01*
X590440Y794383D02*
Y786386D01*
Y790384D01*
X595772D01*
Y794383D01*
Y786386D01*
X603769Y794383D02*
X598438D01*
Y786386D01*
X603769D01*
X598438Y790384D02*
X601103D01*
X614432Y786386D02*
Y794383D01*
X618431D01*
X619764Y793050D01*
Y790384D01*
X618431Y789052D01*
X614432D01*
X627761Y793050D02*
X626429Y794383D01*
X623763D01*
X622430Y793050D01*
Y787719D01*
X623763Y786386D01*
X626429D01*
X627761Y787719D01*
X630427Y794383D02*
Y786386D01*
X634426D01*
X635759Y787719D01*
Y789052D01*
X634426Y790384D01*
X630427D01*
X634426D01*
X635759Y791717D01*
Y793050D01*
X634426Y794383D01*
X630427D01*
X646422Y786386D02*
Y794383D01*
X649088Y791717D01*
X651754Y794383D01*
Y786386D01*
X654420Y794383D02*
Y787719D01*
X655752Y786386D01*
X658418D01*
X659751Y787719D01*
Y794383D01*
X667748Y793050D02*
X666416Y794383D01*
X663750D01*
X662417Y793050D01*
Y791717D01*
X663750Y790384D01*
X666416D01*
X667748Y789052D01*
Y787719D01*
X666416Y786386D01*
X663750D01*
X662417Y787719D01*
X670414Y794383D02*
X675746D01*
X673080D01*
Y786386D01*
X686409Y794383D02*
Y786386D01*
X690408D01*
X691741Y787719D01*
Y789052D01*
X690408Y790384D01*
X686409D01*
X690408D01*
X691741Y791717D01*
Y793050D01*
X690408Y794383D01*
X686409D01*
X699738D02*
X694407D01*
Y786386D01*
X699738D01*
X694407Y790384D02*
X697072D01*
X710401Y794383D02*
Y786386D01*
X715733D01*
X723730Y794383D02*
X718399D01*
Y786386D01*
X723730D01*
X718399Y790384D02*
X721065D01*
X726396Y786386D02*
Y791717D01*
X729062Y794383D01*
X731728Y791717D01*
Y786386D01*
Y790384D01*
X726396D01*
X734394Y794383D02*
Y786386D01*
X738392D01*
X739725Y787719D01*
Y793050D01*
X738392Y794383D01*
X734394D01*
X755720D02*
X750388D01*
Y790384D01*
X753054D01*
X750388D01*
Y786386D01*
X758386D02*
Y794383D01*
X762385D01*
X763717Y793050D01*
Y790384D01*
X762385Y789052D01*
X758386D01*
X761052D02*
X763717Y786386D01*
X771715Y794383D02*
X766383D01*
Y786386D01*
X771715D01*
X766383Y790384D02*
X769049D01*
X779712Y794383D02*
X774381D01*
Y786386D01*
X779712D01*
X774381Y790384D02*
X777046D01*
X790376Y786386D02*
Y791717D01*
X793041Y794383D01*
X795707Y791717D01*
Y786386D01*
Y790384D01*
X790376D01*
X803704Y793050D02*
X802372Y794383D01*
X799706D01*
X798373Y793050D01*
Y791717D01*
X799706Y790384D01*
X802372D01*
X803704Y789052D01*
Y787719D01*
X802372Y786386D01*
X799706D01*
X798373Y787719D01*
X811702Y793050D02*
X810369Y794383D01*
X807703D01*
X806370Y793050D01*
Y791717D01*
X807703Y790384D01*
X810369D01*
X811702Y789052D01*
Y787719D01*
X810369Y786386D01*
X807703D01*
X806370Y787719D01*
X819699Y794383D02*
X814368D01*
Y786386D01*
X819699D01*
X814368Y790384D02*
X817033D01*
X822365Y786386D02*
Y794383D01*
X825031Y791717D01*
X827697Y794383D01*
Y786386D01*
X830363Y794383D02*
Y786386D01*
X834361D01*
X835694Y787719D01*
Y789052D01*
X834361Y790384D01*
X830363D01*
X834361D01*
X835694Y791717D01*
Y793050D01*
X834361Y794383D01*
X830363D01*
X838360D02*
Y786386D01*
X843692D01*
X846357Y794383D02*
Y793050D01*
X849023Y790384D01*
X851689Y793050D01*
Y794383D01*
X849023Y790384D02*
Y786386D01*
X862352D02*
Y794383D01*
X866351D01*
X867684Y793050D01*
Y790384D01*
X866351Y789052D01*
X862352D01*
X870350Y786386D02*
Y794383D01*
X874348D01*
X875681Y793050D01*
Y790384D01*
X874348Y789052D01*
X870350D01*
X873015D02*
X875681Y786386D01*
X882346Y794383D02*
X879680D01*
X878347Y793050D01*
Y787719D01*
X879680Y786386D01*
X882346D01*
X883679Y787719D01*
Y793050D01*
X882346Y794383D01*
X891676Y793050D02*
X890343Y794383D01*
X887677D01*
X886344Y793050D01*
Y787719D01*
X887677Y786386D01*
X890343D01*
X891676Y787719D01*
X899673Y794383D02*
X894342D01*
Y786386D01*
X899673D01*
X894342Y790384D02*
X897008D01*
X907671Y793050D02*
X906338Y794383D01*
X903672D01*
X902339Y793050D01*
Y791717D01*
X903672Y790384D01*
X906338D01*
X907671Y789052D01*
Y787719D01*
X906338Y786386D01*
X903672D01*
X902339Y787719D01*
X915668Y793050D02*
X914335Y794383D01*
X911670D01*
X910337Y793050D01*
Y791717D01*
X911670Y790384D01*
X914335D01*
X915668Y789052D01*
Y787719D01*
X914335Y786386D01*
X911670D01*
X910337Y787719D01*
X931663Y793050D02*
X930330Y794383D01*
X927664D01*
X926331Y793050D01*
Y787719D01*
X927664Y786386D01*
X930330D01*
X931663Y787719D01*
X938328Y794383D02*
X935662D01*
X934329Y793050D01*
Y787719D01*
X935662Y786386D01*
X938328D01*
X939660Y787719D01*
Y793050D01*
X938328Y794383D01*
X942326Y786386D02*
Y794383D01*
X944992Y791717D01*
X947658Y794383D01*
Y786386D01*
X950324D02*
Y794383D01*
X954322D01*
X955655Y793050D01*
Y790384D01*
X954322Y789052D01*
X950324D01*
X958321Y786386D02*
Y791717D01*
X960987Y794383D01*
X963653Y791717D01*
Y786386D01*
Y790384D01*
X958321D01*
X966319Y794383D02*
X971650D01*
X968984D01*
Y786386D01*
X974316Y794383D02*
X976982D01*
X975649D01*
Y786386D01*
X974316D01*
X976982D01*
X980980Y794383D02*
Y786386D01*
X984979D01*
X986312Y787719D01*
Y789052D01*
X984979Y790384D01*
X980980D01*
X984979D01*
X986312Y791717D01*
Y793050D01*
X984979Y794383D01*
X980980D01*
X988978D02*
Y786386D01*
X994309D01*
X1002307Y794383D02*
X996975D01*
Y786386D01*
X1002307D01*
X996975Y790384D02*
X999641D01*
X1004973Y786386D02*
Y787719D01*
X1006306D01*
Y786386D01*
X1004973D01*
X559784Y815913D02*
X562449D01*
X561116D01*
Y823911D01*
X559784Y822578D01*
X566448Y815913D02*
Y817246D01*
X567781D01*
Y815913D01*
X566448D01*
X586442Y823911D02*
X581110D01*
Y819912D01*
X583776D01*
X581110D01*
Y815913D01*
X589107D02*
Y821245D01*
X591773Y823911D01*
X594439Y821245D01*
Y815913D01*
Y819912D01*
X589107D01*
X597105Y823911D02*
Y815913D01*
X601103D01*
X602436Y817246D01*
Y818579D01*
X601103Y819912D01*
X597105D01*
X601103D01*
X602436Y821245D01*
Y822578D01*
X601103Y823911D01*
X597105D01*
X605102Y815913D02*
Y823911D01*
X609101D01*
X610434Y822578D01*
Y819912D01*
X609101Y818579D01*
X605102D01*
X607768D02*
X610434Y815913D01*
X613099Y823911D02*
X615765D01*
X614432D01*
Y815913D01*
X613099D01*
X615765D01*
X625096Y822578D02*
X623763Y823911D01*
X621097D01*
X619764Y822578D01*
Y817246D01*
X621097Y815913D01*
X623763D01*
X625096Y817246D01*
X627761Y815913D02*
Y821245D01*
X630427Y823911D01*
X633093Y821245D01*
Y815913D01*
Y819912D01*
X627761D01*
X635759Y823911D02*
X641090D01*
X638425D01*
Y815913D01*
X649088Y823911D02*
X643756D01*
Y815913D01*
X649088D01*
X643756Y819912D02*
X646422D01*
X659751Y815913D02*
Y823911D01*
X663750D01*
X665083Y822578D01*
Y819912D01*
X663750Y818579D01*
X659751D01*
X673080Y822578D02*
X671747Y823911D01*
X669081D01*
X667748Y822578D01*
Y817246D01*
X669081Y815913D01*
X671747D01*
X673080Y817246D01*
X675746Y823911D02*
Y815913D01*
X679745D01*
X681077Y817246D01*
Y818579D01*
X679745Y819912D01*
X675746D01*
X679745D01*
X681077Y821245D01*
Y822578D01*
X679745Y823911D01*
X675746D01*
X691741D02*
X694407D01*
X693074D01*
Y815913D01*
X691741D01*
X694407D01*
X698405D02*
Y823911D01*
X703737Y815913D01*
Y823911D01*
X714400Y815913D02*
Y821245D01*
X717066Y823911D01*
X719732Y821245D01*
Y815913D01*
Y819912D01*
X714400D01*
X727729Y822578D02*
X726396Y823911D01*
X723730D01*
X722398Y822578D01*
Y817246D01*
X723730Y815913D01*
X726396D01*
X727729Y817246D01*
X735726Y822578D02*
X734394Y823911D01*
X731728D01*
X730395Y822578D01*
Y817246D01*
X731728Y815913D01*
X734394D01*
X735726Y817246D01*
X742391Y823911D02*
X739725D01*
X738392Y822578D01*
Y817246D01*
X739725Y815913D01*
X742391D01*
X743724Y817246D01*
Y822578D01*
X742391Y823911D01*
X746390Y815913D02*
Y823911D01*
X750388D01*
X751721Y822578D01*
Y819912D01*
X750388Y818579D01*
X746390D01*
X749055D02*
X751721Y815913D01*
X754387Y823911D02*
Y815913D01*
X758386D01*
X759719Y817246D01*
Y822578D01*
X758386Y823911D01*
X754387D01*
X762385Y815913D02*
Y821245D01*
X765050Y823911D01*
X767716Y821245D01*
Y815913D01*
Y819912D01*
X762385D01*
X770382Y815913D02*
Y823911D01*
X775713Y815913D01*
Y823911D01*
X783711Y822578D02*
X782378Y823911D01*
X779712D01*
X778379Y822578D01*
Y817246D01*
X779712Y815913D01*
X782378D01*
X783711Y817246D01*
X791708Y823911D02*
X786377D01*
Y815913D01*
X791708D01*
X786377Y819912D02*
X789043D01*
X802372Y823911D02*
Y815913D01*
X805037Y818579D01*
X807703Y815913D01*
Y823911D01*
X810369D02*
X813035D01*
X811702D01*
Y815913D01*
X810369D01*
X813035D01*
X817033Y823911D02*
X822365D01*
X819699D01*
Y815913D01*
X825031Y823911D02*
Y815913D01*
Y819912D01*
X830363D01*
Y823911D01*
Y815913D01*
X841026Y823911D02*
X843692D01*
X842359D01*
Y815913D01*
X841026D01*
X843692D01*
X847690D02*
Y823911D01*
X851689D01*
X853022Y822578D01*
Y819912D01*
X851689Y818579D01*
X847690D01*
X861019Y822578D02*
X859686Y823911D01*
X857020D01*
X855688Y822578D01*
Y817246D01*
X857020Y815913D01*
X859686D01*
X861019Y817246D01*
X863685Y819912D02*
X869017D01*
X871682Y815913D02*
Y821245D01*
X874348Y823911D01*
X877014Y821245D01*
Y815913D01*
Y819912D01*
X871682D01*
X879680D02*
X885011D01*
X893009Y823911D02*
X890343Y822578D01*
X887677Y819912D01*
Y817246D01*
X889010Y815913D01*
X891676D01*
X893009Y817246D01*
Y818579D01*
X891676Y819912D01*
X887677D01*
X895675Y822578D02*
X897008Y823911D01*
X899673D01*
X901006Y822578D01*
Y817246D01*
X899673Y815913D01*
X897008D01*
X895675Y817246D01*
Y822578D01*
X903672D02*
X905005Y823911D01*
X907671D01*
X909004Y822578D01*
Y817246D01*
X907671Y815913D01*
X905005D01*
X903672Y817246D01*
Y822578D01*
X924998D02*
X923666Y823911D01*
X921000D01*
X919667Y822578D01*
Y817246D01*
X921000Y815913D01*
X923666D01*
X924998Y817246D01*
X927664Y823911D02*
Y815913D01*
X932996D01*
X935662D02*
Y821245D01*
X938328Y823911D01*
X940993Y821245D01*
Y815913D01*
Y819912D01*
X935662D01*
X948991Y822578D02*
X947658Y823911D01*
X944992D01*
X943659Y822578D01*
Y821245D01*
X944992Y819912D01*
X947658D01*
X948991Y818579D01*
Y817246D01*
X947658Y815913D01*
X944992D01*
X943659Y817246D01*
X956988Y822578D02*
X955655Y823911D01*
X952989D01*
X951657Y822578D01*
Y821245D01*
X952989Y819912D01*
X955655D01*
X956988Y818579D01*
Y817246D01*
X955655Y815913D01*
X952989D01*
X951657Y817246D01*
X972983Y815913D02*
X967651D01*
X972983Y821245D01*
Y822578D01*
X971650Y823911D01*
X968984D01*
X967651Y822578D01*
X986312Y815913D02*
X983646Y818579D01*
Y821245D01*
X986312Y823911D01*
X990311D02*
Y815913D01*
X995642D01*
X998308D02*
Y821245D01*
X1000974Y823911D01*
X1003640Y821245D01*
Y815913D01*
Y819912D01*
X998308D01*
X1006306Y823911D02*
X1011637D01*
X1008971D01*
Y815913D01*
X1019635Y823911D02*
X1014303D01*
Y815913D01*
X1019635D01*
X1014303Y819912D02*
X1016969D01*
X1027632Y822578D02*
X1026299Y823911D01*
X1023633D01*
X1022300Y822578D01*
Y821245D01*
X1023633Y819912D01*
X1026299D01*
X1027632Y818579D01*
Y817246D01*
X1026299Y815913D01*
X1023633D01*
X1022300Y817246D01*
X1030298Y823911D02*
X1035629D01*
X1032964D01*
Y815913D01*
X1046293D02*
Y823911D01*
X1050291D01*
X1051624Y822578D01*
Y819912D01*
X1050291Y818579D01*
X1046293D01*
X1048958D02*
X1051624Y815913D01*
X1059622Y823911D02*
X1054290D01*
Y815913D01*
X1059622D01*
X1054290Y819912D02*
X1056956D01*
X1062287Y823911D02*
Y818579D01*
X1064953Y815913D01*
X1067619Y818579D01*
Y823911D01*
X1070285D02*
X1072951D01*
X1071618D01*
Y815913D01*
X1070285D01*
X1072951D01*
X1082281Y822578D02*
X1080948Y823911D01*
X1078282D01*
X1076949Y822578D01*
Y821245D01*
X1078282Y819912D01*
X1080948D01*
X1082281Y818579D01*
Y817246D01*
X1080948Y815913D01*
X1078282D01*
X1076949Y817246D01*
X1084947Y823911D02*
X1087613D01*
X1086280D01*
Y815913D01*
X1084947D01*
X1087613D01*
X1095610Y823911D02*
X1092944D01*
X1091611Y822578D01*
Y817246D01*
X1092944Y815913D01*
X1095610D01*
X1096943Y817246D01*
Y822578D01*
X1095610Y823911D01*
X1099609Y815913D02*
Y823911D01*
X1104940Y815913D01*
Y823911D01*
X1107606Y815913D02*
X1110272Y818579D01*
Y821245D01*
X1107606Y823911D01*
X549941Y845441D02*
Y853438D01*
X555272Y845441D01*
Y853438D01*
X561937D02*
X559271D01*
X557938Y852106D01*
Y846774D01*
X559271Y845441D01*
X561937D01*
X563270Y846774D01*
Y852106D01*
X561937Y853438D01*
X565936D02*
X571267D01*
X568602D01*
Y845441D01*
X579265Y853438D02*
X573933D01*
Y845441D01*
X579265D01*
X573933Y849440D02*
X576599D01*
X587262Y852106D02*
X585929Y853438D01*
X583263D01*
X581931Y852106D01*
Y850773D01*
X583263Y849440D01*
X585929D01*
X587262Y848107D01*
Y846774D01*
X585929Y845441D01*
X583263D01*
X581931Y846774D01*
X600591Y845441D02*
X597925Y848107D01*
Y850773D01*
X600591Y853438D01*
X604590D02*
Y846774D01*
X605923Y845441D01*
X608589D01*
X609922Y846774D01*
Y853438D01*
X612587Y845441D02*
Y853438D01*
X617919Y845441D01*
Y853438D01*
X620585D02*
Y845441D01*
X625916D01*
X633914Y853438D02*
X628582D01*
Y845441D01*
X633914D01*
X628582Y849440D02*
X631248D01*
X641911Y852106D02*
X640578Y853438D01*
X637912D01*
X636580Y852106D01*
Y850773D01*
X637912Y849440D01*
X640578D01*
X641911Y848107D01*
Y846774D01*
X640578Y845441D01*
X637912D01*
X636580Y846774D01*
X649909Y852106D02*
X648576Y853438D01*
X645910D01*
X644577Y852106D01*
Y850773D01*
X645910Y849440D01*
X648576D01*
X649909Y848107D01*
Y846774D01*
X648576Y845441D01*
X645910D01*
X644577Y846774D01*
X665903Y852106D02*
X664571Y853438D01*
X661905D01*
X660572Y852106D01*
Y850773D01*
X661905Y849440D01*
X664571D01*
X665903Y848107D01*
Y846774D01*
X664571Y845441D01*
X661905D01*
X660572Y846774D01*
X668569Y845441D02*
Y853438D01*
X672568D01*
X673901Y852106D01*
Y849440D01*
X672568Y848107D01*
X668569D01*
X681898Y853438D02*
X676567D01*
Y845441D01*
X681898D01*
X676567Y849440D02*
X679232D01*
X689896Y852106D02*
X688563Y853438D01*
X685897D01*
X684564Y852106D01*
Y846774D01*
X685897Y845441D01*
X688563D01*
X689896Y846774D01*
X692561Y853438D02*
X695227D01*
X693894D01*
Y845441D01*
X692561D01*
X695227D01*
X704558Y853438D02*
X699226D01*
Y849440D01*
X701892D01*
X699226D01*
Y845441D01*
X707223Y853438D02*
X709889D01*
X708556D01*
Y845441D01*
X707223D01*
X709889D01*
X719219Y853438D02*
X713888D01*
Y845441D01*
X719219D01*
X713888Y849440D02*
X716554D01*
X721885Y853438D02*
Y845441D01*
X725884D01*
X727217Y846774D01*
Y852106D01*
X725884Y853438D01*
X721885D01*
X741879D02*
X739213D01*
X737880Y852106D01*
Y846774D01*
X739213Y845441D01*
X741879D01*
X743212Y846774D01*
Y852106D01*
X741879Y853438D01*
X745878D02*
X751209D01*
X748543D01*
Y845441D01*
X753875Y853438D02*
Y845441D01*
Y849440D01*
X759206D01*
Y853438D01*
Y845441D01*
X767204Y853438D02*
X761872D01*
Y845441D01*
X767204D01*
X761872Y849440D02*
X764538D01*
X769870Y845441D02*
Y853438D01*
X773868D01*
X775201Y852106D01*
Y849440D01*
X773868Y848107D01*
X769870D01*
X772536D02*
X775201Y845441D01*
X777867Y853438D02*
Y845441D01*
X780533Y848107D01*
X783199Y845441D01*
Y853438D01*
X785864D02*
X788530D01*
X787197D01*
Y845441D01*
X785864D01*
X788530D01*
X797861Y852106D02*
X796528Y853438D01*
X793862D01*
X792529Y852106D01*
Y850773D01*
X793862Y849440D01*
X796528D01*
X797861Y848107D01*
Y846774D01*
X796528Y845441D01*
X793862D01*
X792529Y846774D01*
X805858Y853438D02*
X800527D01*
Y845441D01*
X805858D01*
X800527Y849440D02*
X803192D01*
X808524Y845441D02*
X811190Y848107D01*
Y850773D01*
X808524Y853438D01*
X578498Y349998D02*
X577498Y350998D01*
X575499D01*
X574499Y349998D01*
Y346000D01*
X575499Y345000D01*
X577498D01*
X578498Y346000D01*
Y347999D01*
X576499D01*
X580497Y345000D02*
Y350998D01*
X583497D01*
X584496Y349998D01*
Y347999D01*
X583497Y346999D01*
X580497D01*
X586495Y345000D02*
X588495D01*
X587495D01*
Y350998D01*
X586495Y349998D01*
X576499Y373498D02*
X575499Y374498D01*
X573500D01*
X572500Y373498D01*
Y369500D01*
X573500Y368500D01*
X575499D01*
X576499Y369500D01*
Y371499D01*
X574499D01*
X578498Y374498D02*
X582497D01*
X580497D01*
Y368500D01*
X584496Y374498D02*
Y368500D01*
X588495D01*
X576499Y300782D02*
X575499Y301782D01*
X573500D01*
X572500Y300782D01*
Y296783D01*
X573500Y295783D01*
X575499D01*
X576499Y296783D01*
Y298782D01*
X574499D01*
X578498Y301782D02*
Y295783D01*
X581497D01*
X582497Y296783D01*
Y297783D01*
X581497Y298782D01*
X578498D01*
X581497D01*
X582497Y299782D01*
Y300782D01*
X581497Y301782D01*
X578498D01*
X584496D02*
Y295783D01*
X588495D01*
X576499Y385498D02*
X575499Y386498D01*
X573500D01*
X572500Y385498D01*
Y381500D01*
X573500Y380500D01*
X575499D01*
X576499Y381500D01*
Y383499D01*
X574499D01*
X578498Y386498D02*
X582497D01*
X580497D01*
Y380500D01*
X588495Y385498D02*
X587495Y386498D01*
X585496D01*
X584496Y385498D01*
Y384499D01*
X585496Y383499D01*
X587495D01*
X588495Y382499D01*
Y381500D01*
X587495Y380500D01*
X585496D01*
X584496Y381500D01*
X576499Y397498D02*
X575499Y398498D01*
X573500D01*
X572500Y397498D01*
Y393500D01*
X573500Y392500D01*
X575499D01*
X576499Y393500D01*
Y395499D01*
X574499D01*
X578498Y398498D02*
X582497D01*
X580497D01*
Y392500D01*
X587495Y398498D02*
X585496D01*
X584496Y397498D01*
Y393500D01*
X585496Y392500D01*
X587495D01*
X588495Y393500D01*
Y397498D01*
X587495Y398498D01*
X576499Y289282D02*
X575499Y290282D01*
X573500D01*
X572500Y289282D01*
Y285283D01*
X573500Y284283D01*
X575499D01*
X576499Y285283D01*
Y287282D01*
X574499D01*
X578498Y290282D02*
Y284283D01*
X581497D01*
X582497Y285283D01*
Y286283D01*
X581497Y287282D01*
X578498D01*
X581497D01*
X582497Y288282D01*
Y289282D01*
X581497Y290282D01*
X578498D01*
X588495Y289282D02*
X587495Y290282D01*
X585496D01*
X584496Y289282D01*
Y288282D01*
X585496Y287282D01*
X587495D01*
X588495Y286283D01*
Y285283D01*
X587495Y284283D01*
X585496D01*
X584496Y285283D01*
X572500Y410498D02*
X568501D01*
Y407499D01*
X570501D01*
X568501D01*
Y404500D01*
X574499D02*
X576499D01*
X575499D01*
Y408499D01*
X574499D01*
X579498Y404500D02*
X581497D01*
X580497D01*
Y410498D01*
X579498D01*
X587495Y404500D02*
X585496D01*
X584496Y405500D01*
Y407499D01*
X585496Y408499D01*
X587495D01*
X588495Y407499D01*
Y406499D01*
X584496D01*
X584496Y325498D02*
X583497Y326498D01*
X581497D01*
X580497Y325498D01*
Y321500D01*
X581497Y320500D01*
X583497D01*
X584496Y321500D01*
Y323499D01*
X582497D01*
X586495Y320500D02*
X588495D01*
X587495D01*
Y326498D01*
X586495Y325498D01*
X576499Y277782D02*
X575499Y278782D01*
X573500D01*
X572500Y277782D01*
Y273783D01*
X573500Y272783D01*
X575499D01*
X576499Y273783D01*
Y275782D01*
X574499D01*
X578498Y278782D02*
Y272783D01*
X581497D01*
X582497Y273783D01*
Y274783D01*
X581497Y275782D01*
X578498D01*
X581497D01*
X582497Y276782D01*
Y277782D01*
X581497Y278782D01*
X578498D01*
X587495D02*
X585496D01*
X584496Y277782D01*
Y273783D01*
X585496Y272783D01*
X587495D01*
X588495Y273783D01*
Y277782D01*
X587495Y278782D01*
G54D69*
X213210Y-12816D02*
X215209D01*
X214210D01*
Y-6818D01*
X213210Y-7817D01*
X218208Y-12816D02*
X220208D01*
X219208D01*
Y-6818D01*
X218208Y-7817D01*
X223207Y-6818D02*
X227205D01*
Y-7817D01*
X223207Y-11816D01*
Y-12816D01*
X229205D02*
Y-11816D01*
X230205D01*
Y-12816D01*
X229205D01*
X234203Y-7817D02*
X235203Y-6818D01*
X237202D01*
X238202Y-7817D01*
Y-11816D01*
X237202Y-12816D01*
X235203D01*
X234203Y-11816D01*
Y-7817D01*
X240201D02*
X241201Y-6818D01*
X243200D01*
X244200Y-7817D01*
Y-11816D01*
X243200Y-12816D01*
X241201D01*
X240201Y-11816D01*
Y-7817D01*
X478209Y416891D02*
Y412892D01*
X474210Y416891D01*
X473211D01*
X472211Y415891D01*
Y413892D01*
X473211Y412892D01*
X478209Y418890D02*
Y420890D01*
Y419890D01*
X472211D01*
X473211Y418890D01*
Y423889D02*
X472211Y424888D01*
Y426888D01*
X473211Y427887D01*
X474210D01*
X475210Y426888D01*
X476210Y427887D01*
X477209D01*
X478209Y426888D01*
Y424888D01*
X477209Y423889D01*
X476210D01*
X475210Y424888D01*
X474210Y423889D01*
X473211D01*
X475210Y424888D02*
Y426888D01*
X478209Y429887D02*
X477209D01*
Y430886D01*
X478209D01*
Y429887D01*
X472211Y438884D02*
X473211Y436884D01*
X475210Y434885D01*
X477209D01*
X478209Y435885D01*
Y437884D01*
X477209Y438884D01*
X476210D01*
X475210Y437884D01*
Y434885D01*
X477209Y440883D02*
X478209Y441883D01*
Y443882D01*
X477209Y444882D01*
X473211D01*
X472211Y443882D01*
Y441883D01*
X473211Y440883D01*
X474210D01*
X475210Y441883D01*
Y444882D01*
G54D289*
X1051880Y269500D02*
Y413500D01*
X939912Y389500D02*
X1051880D01*
X939912Y377500D02*
X1051880D01*
X939912Y365500D02*
X1051880D01*
X939912Y353500D02*
X1051880D01*
X939912Y341500D02*
X1051880D01*
X939912Y329500D02*
X1051880D01*
X939912Y317500D02*
X1051880D01*
X939912Y305500D02*
X1051880D01*
X939912Y293500D02*
X1051880D01*
X939912Y281500D02*
X1051880D01*
X939912Y269500D02*
X1051880D01*
X939912D02*
Y413500D01*
X882926Y389500D02*
X939912D01*
X882926Y377500D02*
X939912D01*
X882926Y365500D02*
X939912D01*
X882926Y353500D02*
X939912D01*
X882926Y341500D02*
X939912D01*
X882926Y329500D02*
X939912D01*
X882926Y317500D02*
X939912D01*
X882926Y305500D02*
X939912D01*
X882926Y293500D02*
X939912D01*
X882926Y281500D02*
X939912D01*
X882926Y269500D02*
X939912D01*
X882926D02*
Y413500D01*
X817942Y389500D02*
X882926D01*
X817942Y377500D02*
X882926D01*
X817942Y365500D02*
X882926D01*
X817942Y353500D02*
X882926D01*
X817942Y341500D02*
X882926D01*
X817942Y329500D02*
X882926D01*
X817942Y317500D02*
X882926D01*
X817942Y305500D02*
X882926D01*
X817942Y293500D02*
X882926D01*
X817942Y281500D02*
X882926D01*
X817942Y269500D02*
X882926D01*
X817942D02*
Y413500D01*
X731966Y389500D02*
X817942D01*
X731966Y377500D02*
X817942D01*
X731966Y365500D02*
X817942D01*
X731966Y353500D02*
X817942D01*
X731966Y341500D02*
X817942D01*
X731966Y329500D02*
X817942D01*
X731966Y317500D02*
X817942D01*
X731966Y305500D02*
X817942D01*
X731966Y293500D02*
X817942D01*
X731966Y281500D02*
X817942D01*
X731966Y269500D02*
X817942D01*
X731966D02*
Y413500D01*
X638991Y389500D02*
X731966D01*
X638991Y377500D02*
X731966D01*
X638991Y365500D02*
X731966D01*
X638991Y353500D02*
X731966D01*
X638991Y341500D02*
X731966D01*
X638991Y329500D02*
X731966D01*
X638991Y317500D02*
X731966D01*
X638991Y305500D02*
X731966D01*
X638991Y293500D02*
X731966D01*
X638991Y281500D02*
X731966D01*
X638991Y269500D02*
X731966D01*
X638991D02*
Y413500D01*
X598000Y389500D02*
X638991D01*
X598000Y377500D02*
X638991D01*
X598000Y365500D02*
X638991D01*
X598000Y353500D02*
X638991D01*
X598000Y341500D02*
X638991D01*
X598000Y329500D02*
X638991D01*
X598000Y317500D02*
X638991D01*
X598000Y305500D02*
X638991D01*
X598000Y293500D02*
X638991D01*
X598000Y281500D02*
X638991D01*
X598000Y269500D02*
X638991D01*
X598000D02*
Y413500D01*
X1051880D01*
X598000Y401500D02*
X1051880D01*
G54D290*
X939912Y397532D02*
X943880Y401500D01*
X939912Y391532D02*
X949880Y401500D01*
X943880Y389500D02*
X955880Y401500D01*
X949880Y389500D02*
X961880Y401500D01*
X955880Y389500D02*
X967880Y401500D01*
X961880Y389500D02*
X973880Y401500D01*
X967880Y389500D02*
X979880Y401500D01*
X973880Y389500D02*
X985880Y401500D01*
X979880Y389500D02*
X991880Y401500D01*
X985880Y389500D02*
X997880Y401500D01*
X991880Y389500D02*
X1003880Y401500D01*
X997880Y389500D02*
X1009880Y401500D01*
X1003880Y389500D02*
X1015880Y401500D01*
X1009880Y389500D02*
X1021880Y401500D01*
X1015880Y389500D02*
X1027880Y401500D01*
X1021880Y389500D02*
X1033880Y401500D01*
X1027880Y389500D02*
X1039880Y401500D01*
X1033880Y389500D02*
X1045880Y401500D01*
X1039880Y389500D02*
X1051880Y401500D01*
X1045880Y389500D02*
X1051880Y395500D01*
X939912Y385532D02*
X943880Y389500D01*
X939912Y379532D02*
X949880Y389500D01*
X943880Y377500D02*
X955880Y389500D01*
X949880Y377500D02*
X961880Y389500D01*
X955880Y377500D02*
X967880Y389500D01*
X961880Y377500D02*
X973880Y389500D01*
X967880Y377500D02*
X979880Y389500D01*
X973880Y377500D02*
X985880Y389500D01*
X979880Y377500D02*
X991880Y389500D01*
X985880Y377500D02*
X997880Y389500D01*
X991880Y377500D02*
X1003880Y389500D01*
X997880Y377500D02*
X1009880Y389500D01*
X1003880Y377500D02*
X1015880Y389500D01*
X1009880Y377500D02*
X1021880Y389500D01*
X1015880Y377500D02*
X1027880Y389500D01*
X1021880Y377500D02*
X1033880Y389500D01*
X1027880Y377500D02*
X1039880Y389500D01*
X1033880Y377500D02*
X1045880Y389500D01*
X1039880Y377500D02*
X1051880Y389500D01*
X1045880Y377500D02*
X1051880Y383500D01*
X939912Y373532D02*
X943880Y377500D01*
X939912Y367532D02*
X949880Y377500D01*
X943880Y365500D02*
X955880Y377500D01*
X949880Y365500D02*
X961880Y377500D01*
X955880Y365500D02*
X967880Y377500D01*
X961880Y365500D02*
X973880Y377500D01*
X967880Y365500D02*
X979880Y377500D01*
X973880Y365500D02*
X985880Y377500D01*
X979880Y365500D02*
X991880Y377500D01*
X985880Y365500D02*
X997880Y377500D01*
X991880Y365500D02*
X1003880Y377500D01*
X997880Y365500D02*
X1009880Y377500D01*
X1003880Y365500D02*
X1015880Y377500D01*
X1009880Y365500D02*
X1021880Y377500D01*
X1015880Y365500D02*
X1027880Y377500D01*
X1021880Y365500D02*
X1033880Y377500D01*
X1027880Y365500D02*
X1039880Y377500D01*
X1033880Y365500D02*
X1045880Y377500D01*
X1039880Y365500D02*
X1051880Y377500D01*
X1045880Y365500D02*
X1051880Y371500D01*
X939912Y361532D02*
X943880Y365500D01*
X939912Y355532D02*
X949880Y365500D01*
X943880Y353500D02*
X955880Y365500D01*
X949880Y353500D02*
X961880Y365500D01*
X955880Y353500D02*
X967880Y365500D01*
X961880Y353500D02*
X973880Y365500D01*
X967880Y353500D02*
X979880Y365500D01*
X973880Y353500D02*
X985880Y365500D01*
X979880Y353500D02*
X991880Y365500D01*
X985880Y353500D02*
X997880Y365500D01*
X991880Y353500D02*
X1003880Y365500D01*
X997880Y353500D02*
X1009880Y365500D01*
X1003880Y353500D02*
X1015880Y365500D01*
X1009880Y353500D02*
X1021880Y365500D01*
X1015880Y353500D02*
X1027880Y365500D01*
X1021880Y353500D02*
X1033880Y365500D01*
X1027880Y353500D02*
X1039880Y365500D01*
X1033880Y353500D02*
X1045880Y365500D01*
X1039880Y353500D02*
X1051880Y365500D01*
X1045880Y353500D02*
X1051880Y359500D01*
X939912Y349532D02*
X943880Y353500D01*
X939912Y343532D02*
X949880Y353500D01*
X943880Y341500D02*
X955880Y353500D01*
X949880Y341500D02*
X961880Y353500D01*
X955880Y341500D02*
X967880Y353500D01*
X961880Y341500D02*
X973880Y353500D01*
X967880Y341500D02*
X979880Y353500D01*
X973880Y341500D02*
X985880Y353500D01*
X979880Y341500D02*
X991880Y353500D01*
X985880Y341500D02*
X997880Y353500D01*
X991880Y341500D02*
X1003880Y353500D01*
X997880Y341500D02*
X1009880Y353500D01*
X1003880Y341500D02*
X1015880Y353500D01*
X1009880Y341500D02*
X1021880Y353500D01*
X1015880Y341500D02*
X1027880Y353500D01*
X1021880Y341500D02*
X1033880Y353500D01*
X1027880Y341500D02*
X1039880Y353500D01*
X1033880Y341500D02*
X1045880Y353500D01*
X1039880Y341500D02*
X1051880Y353500D01*
X1045880Y341500D02*
X1051880Y347500D01*
X939912Y337532D02*
X943880Y341500D01*
X939912Y331532D02*
X949880Y341500D01*
X943880Y329500D02*
X955880Y341500D01*
X949880Y329500D02*
X961880Y341500D01*
X955880Y329500D02*
X967880Y341500D01*
X961880Y329500D02*
X973880Y341500D01*
X967880Y329500D02*
X979880Y341500D01*
X973880Y329500D02*
X985880Y341500D01*
X979880Y329500D02*
X991880Y341500D01*
X985880Y329500D02*
X997880Y341500D01*
X991880Y329500D02*
X1003880Y341500D01*
X997880Y329500D02*
X1009880Y341500D01*
X1003880Y329500D02*
X1015880Y341500D01*
X1009880Y329500D02*
X1021880Y341500D01*
X1015880Y329500D02*
X1027880Y341500D01*
X1021880Y329500D02*
X1033880Y341500D01*
X1027880Y329500D02*
X1039880Y341500D01*
X1033880Y329500D02*
X1045880Y341500D01*
X1039880Y329500D02*
X1051880Y341500D01*
X1045880Y329500D02*
X1051880Y335500D01*
X939912Y325532D02*
X943880Y329500D01*
X939912Y319532D02*
X949880Y329500D01*
X943880Y317500D02*
X955880Y329500D01*
X949880Y317500D02*
X961880Y329500D01*
X955880Y317500D02*
X967880Y329500D01*
X961880Y317500D02*
X973880Y329500D01*
X967880Y317500D02*
X979880Y329500D01*
X973880Y317500D02*
X985880Y329500D01*
X979880Y317500D02*
X991880Y329500D01*
X985880Y317500D02*
X997880Y329500D01*
X991880Y317500D02*
X1003880Y329500D01*
X997880Y317500D02*
X1009880Y329500D01*
X1003880Y317500D02*
X1015880Y329500D01*
X1009880Y317500D02*
X1021880Y329500D01*
X1015880Y317500D02*
X1027880Y329500D01*
X1021880Y317500D02*
X1033880Y329500D01*
X1027880Y317500D02*
X1039880Y329500D01*
X1033880Y317500D02*
X1045880Y329500D01*
X1039880Y317500D02*
X1051880Y329500D01*
X1045880Y317500D02*
X1051880Y323500D01*
X939912Y313532D02*
X943880Y317500D01*
X939912Y307532D02*
X949880Y317500D01*
X943880Y305500D02*
X955880Y317500D01*
X949880Y305500D02*
X961880Y317500D01*
X955880Y305500D02*
X967880Y317500D01*
X961880Y305500D02*
X973880Y317500D01*
X967880Y305500D02*
X979880Y317500D01*
X973880Y305500D02*
X985880Y317500D01*
X979880Y305500D02*
X991880Y317500D01*
X985880Y305500D02*
X997880Y317500D01*
X991880Y305500D02*
X1003880Y317500D01*
X997880Y305500D02*
X1009880Y317500D01*
X1003880Y305500D02*
X1015880Y317500D01*
X1009880Y305500D02*
X1021880Y317500D01*
X1015880Y305500D02*
X1027880Y317500D01*
X1021880Y305500D02*
X1033880Y317500D01*
X1027880Y305500D02*
X1039880Y317500D01*
X1033880Y305500D02*
X1045880Y317500D01*
X1039880Y305500D02*
X1051880Y317500D01*
X1045880Y305500D02*
X1051880Y311500D01*
X939912Y301532D02*
X943880Y305500D01*
X939912Y295532D02*
X949880Y305500D01*
X943880Y293500D02*
X955880Y305500D01*
X949880Y293500D02*
X961880Y305500D01*
X955880Y293500D02*
X967880Y305500D01*
X961880Y293500D02*
X973880Y305500D01*
X967880Y293500D02*
X979880Y305500D01*
X973880Y293500D02*
X985880Y305500D01*
X979880Y293500D02*
X991880Y305500D01*
X985880Y293500D02*
X997880Y305500D01*
X991880Y293500D02*
X1003880Y305500D01*
X997880Y293500D02*
X1009880Y305500D01*
X1003880Y293500D02*
X1015880Y305500D01*
X1009880Y293500D02*
X1021880Y305500D01*
X1015880Y293500D02*
X1027880Y305500D01*
X1021880Y293500D02*
X1033880Y305500D01*
X1027880Y293500D02*
X1039880Y305500D01*
X1033880Y293500D02*
X1045880Y305500D01*
X1039880Y293500D02*
X1051880Y305500D01*
X1045880Y293500D02*
X1051880Y299500D01*
X939912Y289532D02*
X943880Y293500D01*
X939912Y283532D02*
X949880Y293500D01*
X943880Y281500D02*
X955880Y293500D01*
X949880Y281500D02*
X961880Y293500D01*
X955880Y281500D02*
X967880Y293500D01*
X961880Y281500D02*
X973880Y293500D01*
X967880Y281500D02*
X979880Y293500D01*
X973880Y281500D02*
X985880Y293500D01*
X979880Y281500D02*
X991880Y293500D01*
X985880Y281500D02*
X997880Y293500D01*
X991880Y281500D02*
X1003880Y293500D01*
X997880Y281500D02*
X1009880Y293500D01*
X1003880Y281500D02*
X1015880Y293500D01*
X1009880Y281500D02*
X1021880Y293500D01*
X1015880Y281500D02*
X1027880Y293500D01*
X1021880Y281500D02*
X1033880Y293500D01*
X1027880Y281500D02*
X1039880Y293500D01*
X1033880Y281500D02*
X1045880Y293500D01*
X1039880Y281500D02*
X1051880Y293500D01*
X1045880Y281500D02*
X1051880Y287500D01*
X939912Y277532D02*
X943880Y281500D01*
X939912Y271532D02*
X949880Y281500D01*
X943880Y269500D02*
X955880Y281500D01*
X949880Y269500D02*
X961880Y281500D01*
X955880Y269500D02*
X967880Y281500D01*
X961880Y269500D02*
X973880Y281500D01*
X967880Y269500D02*
X979880Y281500D01*
X973880Y269500D02*
X985880Y281500D01*
X979880Y269500D02*
X991880Y281500D01*
X985880Y269500D02*
X997880Y281500D01*
X991880Y269500D02*
X1003880Y281500D01*
X997880Y269500D02*
X1009880Y281500D01*
X1003880Y269500D02*
X1015880Y281500D01*
X1009880Y269500D02*
X1021880Y281500D01*
X1015880Y269500D02*
X1027880Y281500D01*
X1021880Y269500D02*
X1033880Y281500D01*
X1027880Y269500D02*
X1039880Y281500D01*
X1033880Y269500D02*
X1045880Y281500D01*
X1039880Y269500D02*
X1051880Y281500D01*
X1045880Y269500D02*
X1051880Y275500D01*
M02*
