G04 Layer_Color=16711935*
%FSLAX25Y25*%
%MOIN*%
G70*
G01*
G75*
%ADD12C,0.01000*%
%ADD88P,0.07577X8X292.5*%
%ADD110C,0.06400*%
G04:AMPARAMS|DCode=216|XSize=118.74mil|YSize=118.74mil|CornerRadius=59.37mil|HoleSize=0mil|Usage=FLASHONLY|Rotation=90.000|XOffset=0mil|YOffset=0mil|HoleType=Round|Shape=RoundedRectangle|*
%AMROUNDEDRECTD216*
21,1,0.11874,0.00000,0,0,90.0*
21,1,0.00000,0.11874,0,0,90.0*
1,1,0.11874,0.00000,0.00000*
1,1,0.11874,0.00000,0.00000*
1,1,0.11874,0.00000,0.00000*
1,1,0.11874,0.00000,0.00000*
%
%ADD216ROUNDEDRECTD216*%
%ADD267C,0.13391*%
%ADD268P,0.07038X8X22.5*%
%ADD269O,0.06400X0.12400*%
%ADD270C,0.10400*%
%ADD271P,0.08010X8X292.5*%
%ADD272O,0.16900X0.08650*%
%ADD273C,0.08800*%
%ADD274P,0.09525X8X112.5*%
%ADD275P,0.08659X8X22.5*%
%ADD276O,0.08650X0.16900*%
%ADD277R,0.10400X0.10400*%
%ADD278O,0.12400X0.06400*%
%ADD279P,0.09525X8X22.5*%
%ADD280C,0.05400*%
%ADD281R,0.06305X0.06305*%
%ADD282C,0.06305*%
%ADD284C,0.03769*%
%ADD285C,0.04556*%
G04:AMPARAMS|DCode=286|XSize=54mil|YSize=54mil|CornerRadius=27mil|HoleSize=0mil|Usage=FLASHONLY|Rotation=180.000|XOffset=0mil|YOffset=0mil|HoleType=Round|Shape=RoundedRectangle|*
%AMROUNDEDRECTD286*
21,1,0.05400,0.00000,0,0,180.0*
21,1,0.00000,0.05400,0,0,180.0*
1,1,0.05400,0.00000,0.00000*
1,1,0.05400,0.00000,0.00000*
1,1,0.05400,0.00000,0.00000*
1,1,0.05400,0.00000,0.00000*
%
%ADD286ROUNDEDRECTD286*%
%ADD287C,0.01000*%
G54D12*
X14869Y989837D02*
Y982340D01*
X18618D01*
X19868Y983589D01*
Y984839D01*
X18618Y986089D01*
X14869D01*
X18618D01*
X19868Y987338D01*
Y988588D01*
X18618Y989837D01*
X14869D01*
X23617Y982340D02*
X26116D01*
X27365Y983589D01*
Y986089D01*
X26116Y987338D01*
X23617D01*
X22367Y986089D01*
Y983589D01*
X23617Y982340D01*
X31114Y988588D02*
Y987338D01*
X29865D01*
X32364D01*
X31114D01*
Y983589D01*
X32364Y982340D01*
X48608Y988588D02*
X47359Y989837D01*
X44860D01*
X43610Y988588D01*
Y987338D01*
X44860Y986089D01*
X47359D01*
X48608Y984839D01*
Y983589D01*
X47359Y982340D01*
X44860D01*
X43610Y983589D01*
X52357Y982340D02*
X54856D01*
X56106Y983589D01*
Y986089D01*
X54856Y987338D01*
X52357D01*
X51108Y986089D01*
Y983589D01*
X52357Y982340D01*
X58605D02*
X61105D01*
X59855D01*
Y989837D01*
X58605D01*
X69852D02*
Y982340D01*
X66103D01*
X64853Y983589D01*
Y986089D01*
X66103Y987338D01*
X69852D01*
X76100Y982340D02*
X73601D01*
X72351Y983589D01*
Y986089D01*
X73601Y987338D01*
X76100D01*
X77349Y986089D01*
Y984839D01*
X72351D01*
X79848Y987338D02*
Y982340D01*
Y984839D01*
X81098Y986089D01*
X82348Y987338D01*
X83597D01*
X87346Y982340D02*
Y987338D01*
X88596D01*
X89845Y986089D01*
Y982340D01*
Y986089D01*
X91095Y987338D01*
X92344Y986089D01*
Y982340D01*
X96093Y987338D02*
X98592D01*
X99842Y986089D01*
Y982340D01*
X96093D01*
X94844Y983589D01*
X96093Y984839D01*
X99842D01*
X102341Y982340D02*
X106090D01*
X107340Y983589D01*
X106090Y984839D01*
X103591D01*
X102341Y986089D01*
X103591Y987338D01*
X107340D01*
X109839Y982340D02*
Y989837D01*
Y984839D02*
X113588Y987338D01*
X109839Y984839D02*
X113588Y982340D01*
X14869Y969840D02*
Y977337D01*
X18618D01*
X19868Y976088D01*
Y973589D01*
X18618Y972339D01*
X14869D01*
X17369D02*
X19868Y969840D01*
X23617Y974838D02*
X26116D01*
X27365Y973589D01*
Y969840D01*
X23617D01*
X22367Y971089D01*
X23617Y972339D01*
X27365D01*
X29865Y969840D02*
Y974838D01*
X31114D01*
X32364Y973589D01*
Y969840D01*
Y973589D01*
X33613Y974838D01*
X34863Y973589D01*
Y969840D01*
X37362Y977337D02*
Y969840D01*
X41111D01*
X42360Y971089D01*
Y972339D01*
Y973589D01*
X41111Y974838D01*
X37362D01*
X46109Y969840D02*
X48608D01*
X49858Y971089D01*
Y973589D01*
X48608Y974838D01*
X46109D01*
X44860Y973589D01*
Y971089D01*
X46109Y969840D01*
X52357Y968590D02*
X57356D01*
X59855Y969840D02*
Y977337D01*
X63604D01*
X64853Y976088D01*
Y973589D01*
X63604Y972339D01*
X59855D01*
X68602Y974838D02*
X71101D01*
X72351Y973589D01*
Y969840D01*
X68602D01*
X67352Y971089D01*
X68602Y972339D01*
X72351D01*
X74850Y969840D02*
Y974838D01*
X78599D01*
X79848Y973589D01*
Y969840D01*
X86096D02*
X83597D01*
X82348Y971089D01*
Y973589D01*
X83597Y974838D01*
X86096D01*
X87346Y973589D01*
Y972339D01*
X82348D01*
X89845Y969840D02*
X92344D01*
X91095D01*
Y977337D01*
X89845D01*
X96093Y968590D02*
X101092D01*
X103591Y969840D02*
X106090D01*
X104840D01*
Y977337D01*
X103591Y976088D01*
X109839Y969840D02*
Y971089D01*
X111088D01*
Y969840D01*
X109839D01*
X119835D02*
Y977337D01*
X116087Y973589D01*
X121085D01*
X124834Y974838D02*
X127333D01*
X128583Y973589D01*
Y969840D01*
X124834D01*
X123584Y971089D01*
X124834Y972339D01*
X128583D01*
G54D88*
X61063Y250473D02*
D03*
Y260315D02*
D03*
X68937D02*
D03*
Y250473D02*
D03*
X61063Y655473D02*
D03*
Y665315D02*
D03*
X68937D02*
D03*
Y655473D02*
D03*
G54D110*
X275394Y307894D02*
D03*
X265394D02*
D03*
X255394D02*
D03*
X245394D02*
D03*
X235394D02*
D03*
X225394D02*
D03*
X193288Y197894D02*
D03*
Y187894D02*
D03*
X183288Y197894D02*
D03*
Y187894D02*
D03*
X173288Y197894D02*
D03*
Y187894D02*
D03*
X163288Y197894D02*
D03*
Y187894D02*
D03*
X153288Y197894D02*
D03*
Y187894D02*
D03*
X81644Y294144D02*
D03*
Y304144D02*
D03*
X91644Y294144D02*
D03*
Y304144D02*
D03*
X101644Y294144D02*
D03*
Y304144D02*
D03*
X111644Y294144D02*
D03*
Y304144D02*
D03*
X121644Y294144D02*
D03*
Y304144D02*
D03*
X131644Y294144D02*
D03*
Y304144D02*
D03*
X141644Y294144D02*
D03*
Y304144D02*
D03*
X151644Y294144D02*
D03*
Y304144D02*
D03*
X297094Y260594D02*
D03*
X307094D02*
D03*
X297094Y250594D02*
D03*
X307094D02*
D03*
X297094Y240594D02*
D03*
X307094D02*
D03*
X297094Y230594D02*
D03*
X307094D02*
D03*
X367894Y362394D02*
D03*
X377894D02*
D03*
X277894Y365394D02*
D03*
X267894D02*
D03*
X145394D02*
D03*
X135394D02*
D03*
X125394D02*
D03*
X115394D02*
D03*
X105394D02*
D03*
X95394D02*
D03*
X255894Y182955D02*
D03*
X265894D02*
D03*
X275894D02*
D03*
X285894D02*
D03*
X295894D02*
D03*
X255894Y172955D02*
D03*
X265894D02*
D03*
X275894D02*
D03*
X285894D02*
D03*
X295894D02*
D03*
X255894Y162955D02*
D03*
X265894D02*
D03*
X275894D02*
D03*
X285894D02*
D03*
X295894D02*
D03*
X275394Y712894D02*
D03*
X265394D02*
D03*
X255394D02*
D03*
X245394D02*
D03*
X235394D02*
D03*
X225394D02*
D03*
X193288Y602894D02*
D03*
Y592894D02*
D03*
X183288Y602894D02*
D03*
Y592894D02*
D03*
X173288Y602894D02*
D03*
Y592894D02*
D03*
X163288Y602894D02*
D03*
Y592894D02*
D03*
X153288Y602894D02*
D03*
Y592894D02*
D03*
X81644Y699144D02*
D03*
Y709144D02*
D03*
X91644Y699144D02*
D03*
Y709144D02*
D03*
X101644Y699144D02*
D03*
Y709144D02*
D03*
X111644Y699144D02*
D03*
Y709144D02*
D03*
X121644Y699144D02*
D03*
Y709144D02*
D03*
X131644Y699144D02*
D03*
Y709144D02*
D03*
X141644Y699144D02*
D03*
Y709144D02*
D03*
X151644Y699144D02*
D03*
Y709144D02*
D03*
X297094Y665594D02*
D03*
X307094D02*
D03*
X297094Y655594D02*
D03*
X307094D02*
D03*
X297094Y645594D02*
D03*
X307094D02*
D03*
X297094Y635594D02*
D03*
X307094D02*
D03*
X367894Y767394D02*
D03*
X377894D02*
D03*
X277894Y770394D02*
D03*
X267894D02*
D03*
X145394D02*
D03*
X135394D02*
D03*
X125394D02*
D03*
X115394D02*
D03*
X105394D02*
D03*
X95394D02*
D03*
X255894Y587955D02*
D03*
X265894D02*
D03*
X275894D02*
D03*
X285894D02*
D03*
X295894D02*
D03*
X255894Y577955D02*
D03*
X265894D02*
D03*
X275894D02*
D03*
X285894D02*
D03*
X295894D02*
D03*
X255894Y567955D02*
D03*
X265894D02*
D03*
X275894D02*
D03*
X285894D02*
D03*
X295894D02*
D03*
G54D216*
X37894Y847974D02*
D03*
X423780D02*
D03*
Y13189D02*
D03*
X37894Y12894D02*
D03*
G54D267*
X50394Y231772D02*
D03*
Y279016D02*
D03*
Y636772D02*
D03*
Y684016D02*
D03*
G54D268*
X154644Y272144D02*
D03*
Y262144D02*
D03*
X144644Y272144D02*
D03*
Y262144D02*
D03*
X134644Y272144D02*
D03*
Y262144D02*
D03*
X204144Y306644D02*
D03*
Y296644D02*
D03*
X194144Y306644D02*
D03*
Y296644D02*
D03*
X184144Y306644D02*
D03*
Y296644D02*
D03*
X154644Y677144D02*
D03*
Y667144D02*
D03*
X144644Y677144D02*
D03*
Y667144D02*
D03*
X134644Y677144D02*
D03*
Y667144D02*
D03*
X204144Y711644D02*
D03*
Y701644D02*
D03*
X194144Y711644D02*
D03*
Y701644D02*
D03*
X184144Y711644D02*
D03*
Y701644D02*
D03*
G54D269*
X37894Y170394D02*
D03*
X47894D02*
D03*
X57894D02*
D03*
X189065D02*
D03*
X159065D02*
D03*
X169065D02*
D03*
X179065D02*
D03*
X240128Y38694D02*
D03*
X250128D02*
D03*
X260128D02*
D03*
X270128D02*
D03*
X189644Y347394D02*
D03*
X199644D02*
D03*
X37269Y387269D02*
D03*
X47269D02*
D03*
X77894Y170394D02*
D03*
X87894D02*
D03*
X97894D02*
D03*
X117894D02*
D03*
X127894D02*
D03*
X137894D02*
D03*
X57894Y195394D02*
D03*
X47894D02*
D03*
X37894D02*
D03*
X97894D02*
D03*
X87894D02*
D03*
X77894D02*
D03*
X137894D02*
D03*
X127894D02*
D03*
X117894D02*
D03*
X360128Y38694D02*
D03*
X370128D02*
D03*
X380128D02*
D03*
X390128D02*
D03*
X300128D02*
D03*
X310128D02*
D03*
X320128D02*
D03*
X330128D02*
D03*
X190128D02*
D03*
X200128D02*
D03*
X210128D02*
D03*
X220128D02*
D03*
X130128D02*
D03*
X140128D02*
D03*
X150128D02*
D03*
X160128D02*
D03*
X70394D02*
D03*
X80394D02*
D03*
X90394D02*
D03*
X100394D02*
D03*
X37894Y575394D02*
D03*
X47894D02*
D03*
X57894D02*
D03*
X189065D02*
D03*
X159065D02*
D03*
X169065D02*
D03*
X179065D02*
D03*
X240128Y443694D02*
D03*
X250128D02*
D03*
X260128D02*
D03*
X270128D02*
D03*
X189644Y752394D02*
D03*
X199644D02*
D03*
X37269Y792269D02*
D03*
X47269D02*
D03*
X77894Y575394D02*
D03*
X87894D02*
D03*
X97894D02*
D03*
X117894D02*
D03*
X127894D02*
D03*
X137894D02*
D03*
X57894Y600394D02*
D03*
X47894D02*
D03*
X37894D02*
D03*
X97894D02*
D03*
X87894D02*
D03*
X77894D02*
D03*
X137894D02*
D03*
X127894D02*
D03*
X117894D02*
D03*
X360128Y443694D02*
D03*
X370128D02*
D03*
X380128D02*
D03*
X390128D02*
D03*
X300128D02*
D03*
X310128D02*
D03*
X320128D02*
D03*
X330128D02*
D03*
X190128D02*
D03*
X200128D02*
D03*
X210128D02*
D03*
X220128D02*
D03*
X130128D02*
D03*
X140128D02*
D03*
X150128D02*
D03*
X160128D02*
D03*
X70394D02*
D03*
X80394D02*
D03*
X90394D02*
D03*
X100394D02*
D03*
G54D270*
X43794Y325094D02*
D03*
Y352694D02*
D03*
X407894Y146801D02*
D03*
X43794Y730094D02*
D03*
Y757694D02*
D03*
X407894Y551801D02*
D03*
G54D271*
X33994Y329994D02*
D03*
Y347794D02*
D03*
Y734994D02*
D03*
Y752794D02*
D03*
G54D272*
X402394Y345394D02*
D03*
Y325394D02*
D03*
Y305394D02*
D03*
Y365394D02*
D03*
Y285394D02*
D03*
Y265394D02*
D03*
Y750394D02*
D03*
Y730394D02*
D03*
Y710394D02*
D03*
Y770394D02*
D03*
Y690394D02*
D03*
Y670394D02*
D03*
G54D273*
X280394Y398394D02*
D03*
X362644Y338894D02*
D03*
X280394Y803394D02*
D03*
X362644Y743894D02*
D03*
G54D274*
X280394Y412394D02*
D03*
Y817394D02*
D03*
G54D275*
X426929Y392008D02*
D03*
Y797008D02*
D03*
G54D276*
X250394Y395394D02*
D03*
X230394D02*
D03*
X210394D02*
D03*
X190394D02*
D03*
X170394D02*
D03*
X150394D02*
D03*
X130394D02*
D03*
X110394D02*
D03*
X90394D02*
D03*
X70394D02*
D03*
X250394Y800394D02*
D03*
X230394D02*
D03*
X210394D02*
D03*
X190394D02*
D03*
X170394D02*
D03*
X150394D02*
D03*
X130394D02*
D03*
X110394D02*
D03*
X90394D02*
D03*
X70394D02*
D03*
G54D277*
X407894Y166487D02*
D03*
Y571487D02*
D03*
G54D278*
X370494Y180094D02*
D03*
Y170094D02*
D03*
X405794Y230394D02*
D03*
Y240394D02*
D03*
X422589Y79119D02*
D03*
Y69119D02*
D03*
X370494Y211494D02*
D03*
Y201494D02*
D03*
X329794Y179094D02*
D03*
Y169094D02*
D03*
X330094Y210294D02*
D03*
Y200294D02*
D03*
X370494Y585094D02*
D03*
Y575094D02*
D03*
X405794Y635394D02*
D03*
Y645394D02*
D03*
X422589Y484119D02*
D03*
Y474119D02*
D03*
X370494Y616494D02*
D03*
Y606494D02*
D03*
X329794Y584094D02*
D03*
Y574094D02*
D03*
X330094Y615294D02*
D03*
Y605294D02*
D03*
G54D279*
X376644Y338894D02*
D03*
Y743894D02*
D03*
G54D280*
X407569Y95144D02*
D03*
X338357Y144519D02*
D03*
X343738Y128744D02*
D03*
X353131Y125969D02*
D03*
X333144Y127894D02*
D03*
X272769Y133394D02*
D03*
X287289Y125354D02*
D03*
X279700Y126437D02*
D03*
X257519Y128894D02*
D03*
X195607Y126158D02*
D03*
X206532Y127801D02*
D03*
X216144Y124769D02*
D03*
X185526Y133157D02*
D03*
X126087Y129750D02*
D03*
X126019Y141394D02*
D03*
X136732Y126269D02*
D03*
X114325Y125494D02*
D03*
X57000Y134327D02*
D03*
X67756Y126926D02*
D03*
X56894Y124894D02*
D03*
X407569Y500144D02*
D03*
X338357Y549519D02*
D03*
X343738Y533744D02*
D03*
X353131Y530969D02*
D03*
X333144Y532894D02*
D03*
X272769Y538394D02*
D03*
X287289Y530354D02*
D03*
X279700Y531437D02*
D03*
X257519Y533894D02*
D03*
X195607Y531158D02*
D03*
X206532Y532801D02*
D03*
X216144Y529769D02*
D03*
X185526Y538157D02*
D03*
X126087Y534750D02*
D03*
X126019Y546394D02*
D03*
X136732Y531269D02*
D03*
X114325Y530494D02*
D03*
X57000Y539327D02*
D03*
X67756Y531926D02*
D03*
X56894Y529894D02*
D03*
G54D281*
X372894Y282894D02*
D03*
Y245594D02*
D03*
Y687894D02*
D03*
Y650594D02*
D03*
G54D282*
Y272894D02*
D03*
X362894Y282894D02*
D03*
Y272894D02*
D03*
X352894Y282894D02*
D03*
Y272894D02*
D03*
X342894Y282894D02*
D03*
Y272894D02*
D03*
X332894Y282894D02*
D03*
Y272894D02*
D03*
X372894Y235594D02*
D03*
X362894Y245594D02*
D03*
Y235594D02*
D03*
X352894Y245594D02*
D03*
Y235594D02*
D03*
X342894Y245594D02*
D03*
Y235594D02*
D03*
X332894Y245594D02*
D03*
Y235594D02*
D03*
X372894Y677894D02*
D03*
X362894Y687894D02*
D03*
Y677894D02*
D03*
X352894Y687894D02*
D03*
Y677894D02*
D03*
X342894Y687894D02*
D03*
Y677894D02*
D03*
X332894Y687894D02*
D03*
Y677894D02*
D03*
X372894Y640594D02*
D03*
X362894Y650594D02*
D03*
Y640594D02*
D03*
X352894Y650594D02*
D03*
Y640594D02*
D03*
X342894Y650594D02*
D03*
Y640594D02*
D03*
X332894Y650594D02*
D03*
Y640594D02*
D03*
G54D284*
X292219Y316894D02*
D03*
Y721894D02*
D03*
G54D285*
X93644Y220144D02*
D03*
Y625144D02*
D03*
G54D286*
X378855Y191318D02*
D03*
X368394Y158394D02*
D03*
X316294Y163294D02*
D03*
X316594Y205294D02*
D03*
X378855Y596318D02*
D03*
X368394Y563394D02*
D03*
X316294Y568294D02*
D03*
X316594Y610294D02*
D03*
G54D287*
X84724Y101063D02*
D03*
X80394D02*
D03*
X76063D02*
D03*
X84724Y105394D02*
D03*
X80394D02*
D03*
X76063D02*
D03*
X84724Y109724D02*
D03*
X80394D02*
D03*
X76063D02*
D03*
X148563D02*
D03*
X152894D02*
D03*
X157224D02*
D03*
X148563Y105394D02*
D03*
X152894D02*
D03*
X157224D02*
D03*
X148563Y101063D02*
D03*
X152894D02*
D03*
X157224D02*
D03*
X234724D02*
D03*
X230394D02*
D03*
X226063D02*
D03*
X234724Y105394D02*
D03*
X230394D02*
D03*
X226063D02*
D03*
X234724Y109724D02*
D03*
X230394D02*
D03*
X226063D02*
D03*
X296063D02*
D03*
X300394D02*
D03*
X304724D02*
D03*
X296063Y105394D02*
D03*
X300394D02*
D03*
X304724D02*
D03*
X296063Y101063D02*
D03*
X300394D02*
D03*
X304724D02*
D03*
X374724D02*
D03*
X370394D02*
D03*
X366063D02*
D03*
X374724Y105394D02*
D03*
X370394D02*
D03*
X366063D02*
D03*
X374724Y109724D02*
D03*
X370394D02*
D03*
X366063D02*
D03*
X84394Y333500D02*
D03*
X88394D02*
D03*
Y337500D02*
D03*
X84394D02*
D03*
Y341500D02*
D03*
X88394D02*
D03*
Y345500D02*
D03*
X84394D02*
D03*
X76394D02*
D03*
X72394D02*
D03*
Y341500D02*
D03*
X76394D02*
D03*
Y337500D02*
D03*
X72394D02*
D03*
Y333500D02*
D03*
X76394D02*
D03*
X80394D02*
D03*
Y337500D02*
D03*
Y345500D02*
D03*
Y341500D02*
D03*
X117894D02*
D03*
Y345500D02*
D03*
Y337500D02*
D03*
Y333500D02*
D03*
X113894D02*
D03*
X109894D02*
D03*
Y337500D02*
D03*
X113894D02*
D03*
Y341500D02*
D03*
X109894D02*
D03*
Y345500D02*
D03*
X113894D02*
D03*
X121894D02*
D03*
X125894D02*
D03*
Y341500D02*
D03*
X121894D02*
D03*
Y337500D02*
D03*
X125894D02*
D03*
Y333500D02*
D03*
X121894D02*
D03*
X161894D02*
D03*
X165894D02*
D03*
Y337500D02*
D03*
X161894D02*
D03*
Y341500D02*
D03*
X165894D02*
D03*
Y345500D02*
D03*
X161894D02*
D03*
X153894D02*
D03*
X149894D02*
D03*
Y341500D02*
D03*
X153894D02*
D03*
Y337500D02*
D03*
X149894D02*
D03*
Y333500D02*
D03*
X153894D02*
D03*
X157894D02*
D03*
Y337500D02*
D03*
Y345500D02*
D03*
Y341500D02*
D03*
X245394D02*
D03*
Y345500D02*
D03*
Y337500D02*
D03*
Y333500D02*
D03*
X241394D02*
D03*
X237394D02*
D03*
Y337500D02*
D03*
X241394D02*
D03*
Y341500D02*
D03*
X237394D02*
D03*
Y345500D02*
D03*
X241394D02*
D03*
X249394D02*
D03*
X253394D02*
D03*
Y341500D02*
D03*
X249394D02*
D03*
Y337500D02*
D03*
X253394D02*
D03*
Y333500D02*
D03*
X249394D02*
D03*
X84724Y506063D02*
D03*
X80394D02*
D03*
X76063D02*
D03*
X84724Y510394D02*
D03*
X80394D02*
D03*
X76063D02*
D03*
X84724Y514724D02*
D03*
X80394D02*
D03*
X76063D02*
D03*
X148563D02*
D03*
X152894D02*
D03*
X157224D02*
D03*
X148563Y510394D02*
D03*
X152894D02*
D03*
X157224D02*
D03*
X148563Y506063D02*
D03*
X152894D02*
D03*
X157224D02*
D03*
X234724D02*
D03*
X230394D02*
D03*
X226063D02*
D03*
X234724Y510394D02*
D03*
X230394D02*
D03*
X226063D02*
D03*
X234724Y514724D02*
D03*
X230394D02*
D03*
X226063D02*
D03*
X296063D02*
D03*
X300394D02*
D03*
X304724D02*
D03*
X296063Y510394D02*
D03*
X300394D02*
D03*
X304724D02*
D03*
X296063Y506063D02*
D03*
X300394D02*
D03*
X304724D02*
D03*
X374724D02*
D03*
X370394D02*
D03*
X366063D02*
D03*
X374724Y510394D02*
D03*
X370394D02*
D03*
X366063D02*
D03*
X374724Y514724D02*
D03*
X370394D02*
D03*
X366063D02*
D03*
X84394Y738500D02*
D03*
X88394D02*
D03*
Y742500D02*
D03*
X84394D02*
D03*
Y746500D02*
D03*
X88394D02*
D03*
Y750500D02*
D03*
X84394D02*
D03*
X76394D02*
D03*
X72394D02*
D03*
Y746500D02*
D03*
X76394D02*
D03*
Y742500D02*
D03*
X72394D02*
D03*
Y738500D02*
D03*
X76394D02*
D03*
X80394D02*
D03*
Y742500D02*
D03*
Y750500D02*
D03*
Y746500D02*
D03*
X117894D02*
D03*
Y750500D02*
D03*
Y742500D02*
D03*
Y738500D02*
D03*
X113894D02*
D03*
X109894D02*
D03*
Y742500D02*
D03*
X113894D02*
D03*
Y746500D02*
D03*
X109894D02*
D03*
Y750500D02*
D03*
X113894D02*
D03*
X121894D02*
D03*
X125894D02*
D03*
Y746500D02*
D03*
X121894D02*
D03*
Y742500D02*
D03*
X125894D02*
D03*
Y738500D02*
D03*
X121894D02*
D03*
X161894D02*
D03*
X165894D02*
D03*
Y742500D02*
D03*
X161894D02*
D03*
Y746500D02*
D03*
X165894D02*
D03*
Y750500D02*
D03*
X161894D02*
D03*
X153894D02*
D03*
X149894D02*
D03*
Y746500D02*
D03*
X153894D02*
D03*
Y742500D02*
D03*
X149894D02*
D03*
Y738500D02*
D03*
X153894D02*
D03*
X157894D02*
D03*
Y742500D02*
D03*
Y750500D02*
D03*
Y746500D02*
D03*
X245394D02*
D03*
Y750500D02*
D03*
Y742500D02*
D03*
Y738500D02*
D03*
X241394D02*
D03*
X237394D02*
D03*
Y742500D02*
D03*
X241394D02*
D03*
Y746500D02*
D03*
X237394D02*
D03*
Y750500D02*
D03*
X241394D02*
D03*
X249394D02*
D03*
X253394D02*
D03*
Y746500D02*
D03*
X249394D02*
D03*
Y742500D02*
D03*
X253394D02*
D03*
Y738500D02*
D03*
X249394D02*
D03*
M02*
