G04 Layer_Color=16711935*
%FSLAX25Y25*%
%MOIN*%
G70*
G01*
G75*
%ADD12C,0.01000*%
G54D12*
X272369Y989837D02*
Y982340D01*
X276118D01*
X277368Y983589D01*
Y984839D01*
X276118Y986089D01*
X272369D01*
X276118D01*
X277368Y987338D01*
Y988588D01*
X276118Y989837D01*
X272369D01*
X281117Y982340D02*
X283616D01*
X284865Y983589D01*
Y986089D01*
X283616Y987338D01*
X281117D01*
X279867Y986089D01*
Y983589D01*
X281117Y982340D01*
X288614Y987338D02*
X291113D01*
X292363Y986089D01*
Y982340D01*
X288614D01*
X287365Y983589D01*
X288614Y984839D01*
X292363D01*
X294862Y987338D02*
Y982340D01*
Y984839D01*
X296112Y986089D01*
X297361Y987338D01*
X298611D01*
X307358Y989837D02*
Y982340D01*
X303609D01*
X302360Y983589D01*
Y986089D01*
X303609Y987338D01*
X307358D01*
X317355Y989837D02*
Y982340D01*
X321104D01*
X322353Y983589D01*
Y988588D01*
X321104Y989837D01*
X317355D01*
X324852Y982340D02*
X327352D01*
X326102D01*
Y987338D01*
X324852D01*
X331101Y982340D02*
Y987338D01*
X332350D01*
X333600Y986089D01*
Y982340D01*
Y986089D01*
X334849Y987338D01*
X336099Y986089D01*
Y982340D01*
X342347D02*
X339848D01*
X338598Y983589D01*
Y986089D01*
X339848Y987338D01*
X342347D01*
X343596Y986089D01*
Y984839D01*
X338598D01*
X346096Y982340D02*
Y987338D01*
X349844D01*
X351094Y986089D01*
Y982340D01*
X353593D02*
X357342D01*
X358592Y983589D01*
X357342Y984839D01*
X354843D01*
X353593Y986089D01*
X354843Y987338D01*
X358592D01*
X361091Y982340D02*
X363590D01*
X362340D01*
Y987338D01*
X361091D01*
X368588Y982340D02*
X371088D01*
X372337Y983589D01*
Y986089D01*
X371088Y987338D01*
X368588D01*
X367339Y986089D01*
Y983589D01*
X368588Y982340D01*
X374836D02*
Y987338D01*
X378585D01*
X379835Y986089D01*
Y982340D01*
X382334D02*
X386083D01*
X387332Y983589D01*
X386083Y984839D01*
X383583D01*
X382334Y986089D01*
X383583Y987338D01*
X387332D01*
X272369Y969840D02*
Y977337D01*
X276118D01*
X277368Y976088D01*
Y973589D01*
X276118Y972339D01*
X272369D01*
X274869D02*
X277368Y969840D01*
X281117Y974838D02*
X283616D01*
X284865Y973589D01*
Y969840D01*
X281117D01*
X279867Y971089D01*
X281117Y972339D01*
X284865D01*
X287365Y969840D02*
Y974838D01*
X288614D01*
X289864Y973589D01*
Y969840D01*
Y973589D01*
X291113Y974838D01*
X292363Y973589D01*
Y969840D01*
X294862Y977337D02*
Y969840D01*
X298611D01*
X299861Y971089D01*
Y972339D01*
Y973589D01*
X298611Y974838D01*
X294862D01*
X303609Y969840D02*
X306108D01*
X307358Y971089D01*
Y973589D01*
X306108Y974838D01*
X303609D01*
X302360Y973589D01*
Y971089D01*
X303609Y969840D01*
X309857Y968590D02*
X314856D01*
X317355Y969840D02*
Y977337D01*
X321104D01*
X322353Y976088D01*
Y973589D01*
X321104Y972339D01*
X317355D01*
X326102Y974838D02*
X328601D01*
X329851Y973589D01*
Y969840D01*
X326102D01*
X324852Y971089D01*
X326102Y972339D01*
X329851D01*
X332350Y969840D02*
Y974838D01*
X336099D01*
X337348Y973589D01*
Y969840D01*
X343596D02*
X341097D01*
X339848Y971089D01*
Y973589D01*
X341097Y974838D01*
X343596D01*
X344846Y973589D01*
Y972339D01*
X339848D01*
X347345Y969840D02*
X349844D01*
X348595D01*
Y977337D01*
X347345D01*
X353593Y968590D02*
X358592D01*
X361091Y969840D02*
X363590D01*
X362340D01*
Y977337D01*
X361091Y976088D01*
X367339Y969840D02*
Y971089D01*
X368588D01*
Y969840D01*
X367339D01*
X377336D02*
Y977337D01*
X373587Y973589D01*
X378585D01*
X382334Y974838D02*
X384833D01*
X386083Y973589D01*
Y969840D01*
X382334D01*
X381084Y971089D01*
X382334Y972339D01*
X386083D01*
M02*
