G04 Layer_Color=32896*
%FSLAX25Y25*%
%MOIN*%
G70*
G01*
G75*
%ADD12C,0.01000*%
%ADD142C,0.00272*%
G54D12*
X272369Y964837D02*
Y957340D01*
X276118D01*
X277368Y958589D01*
Y959839D01*
X276118Y961089D01*
X272369D01*
X276118D01*
X277368Y962338D01*
Y963588D01*
X276118Y964837D01*
X272369D01*
X281117Y957340D02*
X283616D01*
X284865Y958589D01*
Y961089D01*
X283616Y962338D01*
X281117D01*
X279867Y961089D01*
Y958589D01*
X281117Y957340D01*
X288614Y963588D02*
Y962338D01*
X287365D01*
X289864D01*
X288614D01*
Y958589D01*
X289864Y957340D01*
X306108Y963588D02*
X304859Y964837D01*
X302360D01*
X301110Y963588D01*
Y962338D01*
X302360Y961089D01*
X304859D01*
X306108Y959839D01*
Y958589D01*
X304859Y957340D01*
X302360D01*
X301110Y958589D01*
X308608Y957340D02*
X311107D01*
X309857D01*
Y962338D01*
X308608D01*
X314856Y957340D02*
X317355D01*
X316105D01*
Y964837D01*
X314856D01*
X321104Y957340D02*
Y964837D01*
Y959839D02*
X324852Y962338D01*
X321104Y959839D02*
X324852Y957340D01*
X328601D02*
X332350D01*
X333600Y958589D01*
X332350Y959839D01*
X329851D01*
X328601Y961089D01*
X329851Y962338D01*
X333600D01*
X341097D02*
X337348D01*
X336099Y961089D01*
Y958589D01*
X337348Y957340D01*
X341097D01*
X343596Y962338D02*
Y957340D01*
Y959839D01*
X344846Y961089D01*
X346096Y962338D01*
X347345D01*
X354843Y957340D02*
X352344D01*
X351094Y958589D01*
Y961089D01*
X352344Y962338D01*
X354843D01*
X356092Y961089D01*
Y959839D01*
X351094D01*
X362340Y957340D02*
X359841D01*
X358592Y958589D01*
Y961089D01*
X359841Y962338D01*
X362340D01*
X363590Y961089D01*
Y959839D01*
X358592D01*
X366089Y957340D02*
Y962338D01*
X369838D01*
X371088Y961089D01*
Y957340D01*
X272369Y944840D02*
Y952337D01*
X276118D01*
X277368Y951088D01*
Y948589D01*
X276118Y947339D01*
X272369D01*
X274869D02*
X277368Y944840D01*
X281117Y949838D02*
X283616D01*
X284865Y948589D01*
Y944840D01*
X281117D01*
X279867Y946089D01*
X281117Y947339D01*
X284865D01*
X287365Y944840D02*
Y949838D01*
X288614D01*
X289864Y948589D01*
Y944840D01*
Y948589D01*
X291113Y949838D01*
X292363Y948589D01*
Y944840D01*
X294862Y952337D02*
Y944840D01*
X298611D01*
X299861Y946089D01*
Y947339D01*
Y948589D01*
X298611Y949838D01*
X294862D01*
X303609Y944840D02*
X306108D01*
X307358Y946089D01*
Y948589D01*
X306108Y949838D01*
X303609D01*
X302360Y948589D01*
Y946089D01*
X303609Y944840D01*
X309857Y943590D02*
X314856D01*
X317355Y944840D02*
Y952337D01*
X321104D01*
X322353Y951088D01*
Y948589D01*
X321104Y947339D01*
X317355D01*
X326102Y949838D02*
X328601D01*
X329851Y948589D01*
Y944840D01*
X326102D01*
X324852Y946089D01*
X326102Y947339D01*
X329851D01*
X332350Y944840D02*
Y949838D01*
X336099D01*
X337348Y948589D01*
Y944840D01*
X343596D02*
X341097D01*
X339848Y946089D01*
Y948589D01*
X341097Y949838D01*
X343596D01*
X344846Y948589D01*
Y947339D01*
X339848D01*
X347345Y944840D02*
X349844D01*
X348595D01*
Y952337D01*
X347345D01*
X353593Y943590D02*
X358592D01*
X361091Y944840D02*
X363590D01*
X362340D01*
Y952337D01*
X361091Y951088D01*
X367339Y944840D02*
Y946089D01*
X368588D01*
Y944840D01*
X367339D01*
X377336D02*
Y952337D01*
X373587Y948589D01*
X378585D01*
X382334Y949838D02*
X384833D01*
X386083Y948589D01*
Y944840D01*
X382334D01*
X381084Y946089D01*
X382334Y947339D01*
X386083D01*
G54D142*
X383146Y159571D02*
X381333D01*
X382239D01*
Y156852D01*
X380427D02*
Y159571D01*
X379067D01*
X378614Y159118D01*
Y158211D01*
X379067Y157758D01*
X380427D01*
X375895Y156852D02*
X377708D01*
X375895Y158665D01*
Y159118D01*
X376348Y159571D01*
X377254D01*
X377708Y159118D01*
X374988D02*
X374535Y159571D01*
X373629D01*
X373176Y159118D01*
Y158665D01*
X373629Y158211D01*
X374082D01*
X373629D01*
X373176Y157758D01*
Y157305D01*
X373629Y156852D01*
X374535D01*
X374988Y157305D01*
X324506Y211277D02*
X322693D01*
X323599D01*
Y208558D01*
X321787D02*
Y211277D01*
X320427D01*
X319974Y210824D01*
Y209917D01*
X320427Y209464D01*
X321787D01*
X317255Y208558D02*
X319068D01*
X317255Y210370D01*
Y210824D01*
X317708Y211277D01*
X318614D01*
X319068Y210824D01*
X316348D02*
X315895Y211277D01*
X314989D01*
X314536Y210824D01*
Y209011D01*
X314989Y208558D01*
X315895D01*
X316348Y209011D01*
Y210824D01*
X328979Y160984D02*
X327166D01*
X328072D01*
Y158265D01*
X326260D02*
Y160984D01*
X324900D01*
X324447Y160531D01*
Y159624D01*
X324900Y159171D01*
X326260D01*
X321728Y158265D02*
X323540D01*
X321728Y160077D01*
Y160531D01*
X322181Y160984D01*
X323087D01*
X323540Y160531D01*
X320821Y158265D02*
X319915D01*
X320368D01*
Y160984D01*
X320821Y160531D01*
X393487Y192253D02*
X391674D01*
X392581D01*
Y189533D01*
X390768D02*
Y192253D01*
X389408D01*
X388955Y191799D01*
Y190893D01*
X389408Y190440D01*
X390768D01*
X386236Y189533D02*
X388049D01*
X386236Y191346D01*
Y191799D01*
X386689Y192253D01*
X387596D01*
X388049Y191799D01*
X383517Y189533D02*
X385330D01*
X383517Y191346D01*
Y191799D01*
X383970Y192253D01*
X384876D01*
X385330Y191799D01*
X383146Y564571D02*
X381333D01*
X382239D01*
Y561852D01*
X380427D02*
Y564571D01*
X379067D01*
X378614Y564118D01*
Y563211D01*
X379067Y562758D01*
X380427D01*
X375895Y561852D02*
X377708D01*
X375895Y563664D01*
Y564118D01*
X376348Y564571D01*
X377254D01*
X377708Y564118D01*
X374988D02*
X374535Y564571D01*
X373629D01*
X373176Y564118D01*
Y563664D01*
X373629Y563211D01*
X374082D01*
X373629D01*
X373176Y562758D01*
Y562305D01*
X373629Y561852D01*
X374535D01*
X374988Y562305D01*
X324506Y616277D02*
X322693D01*
X323599D01*
Y613558D01*
X321787D02*
Y616277D01*
X320427D01*
X319974Y615824D01*
Y614917D01*
X320427Y614464D01*
X321787D01*
X317255Y613558D02*
X319068D01*
X317255Y615370D01*
Y615824D01*
X317708Y616277D01*
X318614D01*
X319068Y615824D01*
X316348D02*
X315895Y616277D01*
X314989D01*
X314536Y615824D01*
Y614011D01*
X314989Y613558D01*
X315895D01*
X316348Y614011D01*
Y615824D01*
X328979Y565984D02*
X327166D01*
X328072D01*
Y563265D01*
X326260D02*
Y565984D01*
X324900D01*
X324447Y565531D01*
Y564624D01*
X324900Y564171D01*
X326260D01*
X321728Y563265D02*
X323540D01*
X321728Y565077D01*
Y565531D01*
X322181Y565984D01*
X323087D01*
X323540Y565531D01*
X320821Y563265D02*
X319915D01*
X320368D01*
Y565984D01*
X320821Y565531D01*
X393487Y597253D02*
X391674D01*
X392581D01*
Y594533D01*
X390768D02*
Y597253D01*
X389408D01*
X388955Y596799D01*
Y595893D01*
X389408Y595440D01*
X390768D01*
X386236Y594533D02*
X388049D01*
X386236Y596346D01*
Y596799D01*
X386689Y597253D01*
X387596D01*
X388049Y596799D01*
X383517Y594533D02*
X385330D01*
X383517Y596346D01*
Y596799D01*
X383970Y597253D01*
X384876D01*
X385330Y596799D01*
M02*
