M48
;Layer_Color=9474304
;FILE_FORMAT=2:4
INCH,TZ
;TYPE=PLATED
T1F00S00C0.0100
T2F00S00C0.0150
T3F00S00C0.0197
T4F00S00C0.0236
T5F00S00C0.0276
T6F00S00C0.0350
T7F00S00C0.0354
T8F00S00C0.0374
T9F00S00C0.0394
T10F00S00C0.0400
T11F00S00C0.0550
T12F00S00C0.0590
T13F00S00C0.0866
;TYPE=NON_PLATED
T14F00S00C0.1181
%
T01
X40757Y9514
X37472Y10106
X37039
X36606
Y10539
X37039
X37472
Y10972
X37039
X36606
X35313Y12597
X34374Y12874
X33314Y12789
X33836Y14452
X30472Y10972
X30039
X29606
Y10539
X30039
X30472
Y10106
X30039
X29606
X28729Y12535
X27970Y12644
X27277Y13339
X25752Y12889
X23472Y10972
Y10539
Y10106
X23039
X22606
Y10539
X23039
Y10972
X22606
X21614Y12477
X20653Y12780
X19561Y12616
X18553Y13316
X15722Y10972
X15289
X14856
Y10539
X15289
X15722
Y10106
X15289
X14856
X13673Y12627
X12609Y12975
X12602Y14139
X11432Y12549
X8472Y10972
Y10539
Y10106
X8039
X7606
Y10539
X8039
Y10972
X7606
X6776Y12693
X5689Y12489
X5700Y13433
X10614Y25516
X10616Y26264
X10989Y33350
X11389
X11789
Y33750
Y34150
Y34550
X11389
Y34150
Y33750
X10989
Y34150
Y34550
X12189
X12589
Y34150
X12189
Y33750
X12589
Y33350
X12189
X14989
Y33750
Y34150
Y34550
X15389
Y34150
Y33750
Y33350
X15789
X16189
X16589
Y33750
X16189
Y34150
X16589
Y34550
X16189
X15789
Y34150
Y33750
X8839
Y33350
X8439
Y33750
Y34150
X8839
Y34550
X8439
X8039
X7639
X7239
Y34150
X7639
Y33750
X7239
Y33350
X7639
X8039
Y33750
Y34150
X23739
Y33750
Y33350
X24139
X24539
Y33750
Y34150
Y34550
X24139
Y34150
Y33750
X24939
Y34150
Y34550
X25339
Y34150
Y33750
Y33350
X24939
X23739Y34550
X40757Y50014
X37472Y50606
X37039
X36606
Y51039
X37039
X37472
Y51472
X37039
X36606
X35313Y53097
X30472Y51472
X30039
X29606
Y51039
X30039
X30472
Y50606
X30039
X29606
X28729Y53035
X27970Y53144
X23472Y51472
Y51039
Y50606
X23039
X22606
Y51039
X23039
Y51472
X22606
X21614Y52977
X19561Y53116
X15722Y51472
X15289
X14856
Y51039
X15289
X15722
Y50606
X15289
X14856
X13673Y53127
X11432Y53049
X8472Y51472
Y51039
Y50606
X8039
X7606
Y51039
X8039
Y51472
X7606
X6776Y53193
X5689Y52989
X5700Y53933
X12609Y53475
X12602Y54639
X18553Y53816
X20653Y53280
X10614Y66016
X10616Y66764
X25752Y53389
X27277Y53839
X33314Y53289
X34374Y53374
X33836Y54952
X25339Y73850
Y74250
Y74650
Y75050
X24939
X24539
Y74650
Y74250
Y73850
X24139
X23739
Y74250
X24139
Y74650
X23739
Y75050
X24139
X24939Y74650
Y74250
Y73850
X16589
X16189
Y74250
X16589
Y74650
X16189
Y75050
X16589
X15789
X15389
X14989
Y74650
X15389
Y74250
X14989
Y73850
X15389
X15789
Y74250
Y74650
X12589
Y75050
X12189
X11789
Y74650
Y74250
Y73850
X11389
X10989
Y74250
X11389
Y74650
X10989
Y75050
X11389
X12189Y74650
Y74250
X12589
Y73850
X12189
X8839
X8439
Y74250
X8839
Y74650
X8439
Y75050
X8839
X8039
X7639
X7239
Y74650
X7639
Y74250
X7239
Y73850
X7639
X8039
Y74250
Y74650
T02
X3339Y3339
X3039Y4039
X2939Y4845
X3339Y4739
X4039Y5039
X4739Y4739
X5039Y4039
X4739Y3339
X4039Y3039
X6093Y2914
X5419Y5619
X6472
X7472
X7857Y6059
X8097
X9007Y6069
X9237
X9672Y5629
X10702
X11702
X12142Y5619
X13142
X14142
X14542Y6049
X14782
X15732
X15972
X16392Y5619
X17392
X18392
X19882Y5609
X19859Y5216
X20099
X21059Y5219
X20882Y5609
X21882
X21659Y5219
X21842Y2914
X20267
X18692
X17117
X15542
X13967
X12393
X10818
X9243
X7668
X8552Y5539
X15272
X22272Y6169
X22522
X23522
X23772
X24182Y5609
X24399Y5219
X24959Y5209
X25182Y5609
X26182
X26872
X27872
X28872
X29282Y6059
X29532
X30522Y6049
X30772
X31192Y5609
X32192
X33192
X33942
X34942
X35942
X36322Y6049
X36572
X37502
X37052Y5499
X37590Y2914
X36015
X34440
X32865
X31290
X29716
X28141
X26566
X24991
X23416
X23032Y5599
X30032Y5539
X38162Y5609
X37752Y6049
X39162Y5609
X40162
X41339Y4739
X41039Y4039
X41339Y3339
X42039Y3039
X42739Y3339
X43039Y4039
X42739Y4739
X42039Y5039
X43164Y5643
X40739Y2914
X39164
X38762Y7119
X38512
X39542Y7199
X39792
X43164Y7218
Y8792
Y10367
Y11942
Y13517
Y15092
Y16666
Y18241
Y19816
Y21391
X41301Y21262
X41101Y21862
X40749Y21869
X40406Y21859
X40219Y21279
X40419Y20654
X40744
X41094
X38239Y15114
X37764Y14519
X38969Y13774
X37239Y15092
X37529Y15432
X36551Y14500
X35839Y14539
X35122Y14481
X34619Y15739
X34609Y17889
X35298Y17418
X35789Y18359
X35207Y19417
X34449Y20039
X35849Y20579
X35312Y21875
X31359Y21909
X31640Y20049
X31219Y19789
X31329Y19069
X29489Y19169
X29379Y19609
X28859Y19389
X28079Y19429
X28319Y19109
X28049Y20169
X27759Y19909
X26669Y19899
X25612Y19909
X25026
X24432Y20020
X23699Y20149
X23599Y19779
X24039Y19409
X24449Y18819
X23209Y18969
X23269Y18329
X22679Y18339
X22559Y18749
X22309Y19989
X22649Y20679
X22839Y21499
X22694Y21949
X22219Y21435
X23669Y21412
Y21792
X24819Y21539
X24919Y21959
X25389Y21839
X25729Y21649
X25369Y20789
X25472Y20359
X26339Y20939
X28159Y21009
X28692Y21066
X29009Y20429
X29819Y20244
X30588Y20378
X30939Y15189
X30750Y14519
X31434Y14489
X32898Y14485
X29879Y14259
X29169Y14249
X28409
X27469Y14499
X27277Y13739
X27439Y12639
X25979Y14059
X23919Y14049
X24352Y13102
X24639Y15549
X25039Y15398
X24769Y16589
X23309Y16669
X23269Y16299
X23259Y15679
X22729Y15899
X22039Y15839
X22009Y16209
X22109Y14339
X22629Y14419
X23139Y17209
X23249Y17569
X25729Y19018
X24629Y21169
X26819Y15569
X29039Y15379
X30014Y9114
X30024Y8314
Y7564
X28482Y7099
X28232
X27432Y7199
X27182
X25862Y7209
X25612
X24822Y7109
X24572
X23024Y7564
Y8314
X23009Y8959
X31592Y7099
X31842
X32622Y7199
X32872
X34292
X34542
X35322Y7099
X35572
X37014Y7714
Y8364
Y9114
X34839Y12589
X21239Y12889
X21129Y14369
X20649Y14349
X19919Y14369
X19389Y14389
X19609Y15109
X19799Y15729
X18699Y15879
X18629Y14959
X17409Y14059
X16599
X15449
X14639
X13349Y14079
X12214Y13689
X11914Y13389
X11412Y14500
X9964Y14489
X9414
X8157Y14514
X7438Y14508
X6844Y14474
X6369Y15229
X8029Y15569
X10269Y15849
X10629Y15549
X12509
X14756Y15826
X15312
X14609Y16389
X13299Y17749
X13191Y21504
X13364Y21839
X11266Y21564
X10016
X7141Y21539
X6727Y19289
X9299Y17849
X17509Y17769
X17239Y15699
X20729Y16779
X20689Y17949
X20979Y18189
X21279Y19249
X21319Y19969
X21729Y20029
X20759Y20089
X20739Y19629
X21039Y20469
X18379Y20989
X18419Y21429
X18369Y21799
X17699Y21379
X17009Y21199
X16602Y21314
X16406Y20956
X16679Y21899
X13059Y12619
X15264Y9114
X15274Y8314
Y7689
X16752Y7109
X16992
X17772Y7199
X18012
X20132Y7209
X20382
X21202Y7099
X21452
X13782
X13542
X12772Y7189
X12522
X11387Y8329
X11127
X10257Y7109
X10027
X8569Y7669
X8014Y8114
Y9114
X7097Y7109
X6857
X6107Y7239
X5847
X2939Y7994
Y9569
X2929Y11119
X2939Y12719
Y14293
Y15868
Y17443
Y19018
X3855Y18287
X4559Y15829
X5009Y15809
X5919Y14809
X5239Y12939
X5539Y20719
X5609Y21809
X5239Y21609
X4819
X3999Y21669
X3589Y21639
X2919Y21709
X2939Y6419
X2919Y22219
X2916Y23139
Y24714
Y26289
Y27864
Y28314
X2914Y29414
X4207Y29579
X4166Y28314
X5314Y30243
X5564Y31539
X5614Y32393
X3265Y32077
X2914Y32393
Y30989
Y33968
Y35542
Y37117
X4414Y34292
X6116Y27039
X5416Y26264
X5941Y24289
X6889Y23389
X6639Y23139
X7686Y23294
X7706Y23944
X8541Y24964
X9316Y24814
X9941Y24189
X9916Y23164
X9116
X9766Y22314
X11596Y22444
X11091Y23264
X11164Y24414
X11614Y24364
X12039Y24539
X11839Y23889
X12541Y22989
X13224Y23559
X13566Y22664
X14341Y23914
X17099Y23559
X17079Y23169
X17359Y22799
X17419Y22369
X18319
X18039Y23459
X17639Y23339
X18349Y24029
X18902Y25014
X19752Y25414
X20039Y26629
X19934Y27312
X20359Y28469
X20699Y28199
X21529Y28769
X21919Y29099
X21649Y29579
X21239Y29479
X21099Y30376
X21609Y30179
X21869Y31039
X21499Y31429
X21331Y31925
X21911Y32570
X18459Y32429
X18464Y32764
X18459Y33089
X18189Y33449
X17719
X16989Y32609
X16769Y31989
X16064Y32039
X15539
X15039
X14714Y32489
X13089Y32439
X12039Y32064
X11539
X11039
X10302Y32352
X10039Y32339
X9214Y32109
X8039Y31964
X7764
X7489
X7214
X6539Y32289
X7164Y29639
X7629Y28629
X8289Y27714
X8416Y26514
X7514Y26164
X7489Y25589
X9441Y26114
X10189Y27239
X12114Y26939
X12589Y27014
Y26239
Y25664
X12914Y27664
X11914Y27889
X13116Y28714
X15641Y28064
X16452Y28464
X17859Y28999
X17849Y29549
X17679Y31159
X18469Y32089
X18759Y27779
X18029Y27609
X18197Y26689
X17369Y26539
X17777Y25414
X16962Y24784
X16091Y25364
X16789Y22714
X20719Y22449
X20869Y22939
X21669Y23189
X21929Y23469
X21749Y24859
X21759Y25628
X21939Y27139
X20329Y24029
X20229Y23669
X22049Y24179
X22199Y24819
X22219Y25629
X21979Y26539
X22769Y26639
X22359Y27139
X23029Y27329
X24119Y27649
X24509
X25109Y27579
X26139Y28069
X26509Y27959
X26649Y26879
X26669Y25559
X26614Y24714
X26749Y24219
X28379Y24039
X28449Y23649
X28539Y23269
X28599Y22609
X28479Y22239
X28869Y22349
X29129Y22079
X30349Y22299
X32559Y22449
X32419Y22839
X32179Y23329
X31259Y24949
X31169Y25649
X30209Y25599
X29029
X28359Y24899
X28219Y27319
X28599Y27309
X29099Y27319
X29469Y27309
X29949
X30319Y27329
X30819
X31199
X32029Y28289
X31499Y29339
X30989Y29379
X30599
X29949Y29279
X29539Y29329
X29059Y29339
X28659Y29399
X28350Y29029
X27799Y29109
X27879Y30179
X28859Y30419
X29259Y30429
X29859Y30409
X30269Y30319
X31303Y30109
X31439Y30689
X31939Y32264
Y32764
X32439
Y32264
X32189Y32514
X31939Y33614
X29589Y33339
X29639Y34239
X29114Y34964
X28289Y35014
Y34264
X27539
Y35014
X26789
Y34264
X25289Y35764
Y36514
Y37264
X24539
X23789
X23039
X22289
Y36514
X23039
X23789
X24539
Y35764
X23789
X23039
X22289
X23414Y32039
X23539Y31664
X24039
X24539
X24914
X25289
X25149Y30039
X24639Y29839
X24119Y30249
X24279Y29199
X25309Y29109
X23019Y29019
X22219Y28069
X22034Y29835
X24199Y25529
X24789Y23549
X24819Y23099
X25444Y23339
X25638Y23008
X27349Y22899
X27116Y22610
X27339Y22060
X22479Y23089
X23119Y24029
X28859Y28359
X29519Y28379
X30339Y31764
X28289Y31789
X29139Y32789
X29289Y37289
X28539Y37339
X34489Y37189
X35589Y37139
X34689Y34964
X35264Y34314
X34689Y33639
X35289Y32989
X33859Y31679
X39189Y32589
X40238Y33212
Y31867
X41312Y32548
X41539Y34289
Y34789
X42039Y35039
Y34539
Y34039
X43164Y33989
Y35564
Y37139
X41287Y36548
X40238Y37164
X40199Y35893
X40289Y35289
X39789
X39289Y35039
X39187Y36548
X38189Y34364
X39372Y29068
X40238Y29225
Y27862
X39372Y28029
X39239Y25814
X39972Y25789
X40810Y25808
X41405Y25789
X41940Y25796
X43164Y26115
Y24540
Y22966
X42604Y23004
X42054Y23669
X43164Y27690
Y29265
Y30840
Y32414
X41341Y28556
X39764Y38264
X39239
X38789
X38539Y38789
Y40539
X39789
Y42039
X39739Y42664
X39164Y43414
X40739
X41339Y43839
X41039Y44539
X41339Y45239
X42039Y45539
X42739Y45239
X43039Y44539
X42739Y43839
X42039Y43539
Y42539
X41314Y42664
X41339Y42239
X41039Y41539
X41339Y40839
X42039Y40539
X42739Y40839
X43164Y40288
X43039Y41539
X42739Y42239
X43164Y38714
Y46143
Y47718
Y49292
Y50867
Y52442
X39792Y47699
X39542
X38762Y47619
X38512
X37752Y46549
X38162Y46109
X39162
X40162
X38164Y42664
X38614Y41989
X37590Y43414
X36015
X36590Y42664
X34765Y42669
X34440Y43414
X32865
X33015Y42669
X32289Y42664
X31789
X31289
X30789
X30539Y42314
X30039
X30036Y42664
X30164Y41739
X28979Y41609
X28614Y41614
X28689Y40864
X28919Y42219
X29289Y42189
X28462Y42664
X28141Y43414
X26566
X26887Y42664
X27109Y42129
X26589Y42139
X26339Y41479
X26869Y41469
X26609Y40809
X26079Y40839
X26239Y40014
X25789Y40039
Y39429
X26139
X26289Y38789
X25929Y38819
X27039Y39039
X27239Y38089
X28289Y37640
X29689Y37864
X32539Y38739
X32889
X33264Y38714
Y39064
Y39439
Y39814
X32839
X31914Y41739
X32039Y42314
X31539
X31039
X31290Y43414
X29716
X30032Y46039
X30522Y46549
X30772
X31192Y46109
X32192
X33192
X33942
X34942
X35942
X36322Y46549
X36572
X37502
X37052Y45999
X37014Y48214
Y48864
Y49614
X35572Y47599
X35322
X34542Y47699
X34292
X32872
X32622
X31842Y47599
X31592
X30024Y48064
Y48814
X30014Y49614
X29532Y46559
X29282
X28872Y46109
X27872
X26872
X26182
X25182
X24959Y45709
X24399Y45719
X24182Y46109
X23772Y46669
X23522
X22522
X22272
X23032Y46099
X23024Y48064
Y48814
X23009Y49459
X24572Y47609
X24822
X25612Y47709
X25862
X27182Y47699
X27432
X28232Y47599
X28482
X27439Y53139
X34839Y53089
X36439Y37889
X25312Y42664
X24991Y43414
X23416
X23737Y42664
X22162
X22289Y41664
X21289Y40664
X20789
X20588Y42664
X20267Y43414
X18692
X19013Y42664
X17438
X17117Y43414
X15542
X15863Y42664
X14288
X13967Y43414
X12393
X12714Y42664
X12539Y41664
X12812Y40665
X13287
X12329Y38461
X11803
X11329
X10803
X9789Y40789
X9505Y40531
X9243Y40829
X9564Y42664
X9243Y43414
X7668
X7989Y42664
X6414
X6472Y46119
X7472
X7857Y46559
X8097
X9007Y46569
X9237
X9672Y46129
X10702
X11702
X12142Y46119
X13142
X14142
X14542Y46549
X14782
X15732
X15972
X16392Y46119
X17392
X18392
X19882Y46109
X19859Y45716
X20099
X21059Y45719
X20882Y46109
X21882
X21659Y45719
X21452Y47599
X21202
X20382Y47709
X20132
X18012Y47699
X17772
X16992Y47609
X16752
X15274Y48189
Y48814
X15264Y49614
X13782Y47599
X13542
X12772Y47689
X12522
X11387Y48829
X11127
X10257Y47609
X10027
X8569Y48169
X8014Y48614
Y49614
X7097Y47609
X6857
X8552Y46039
X10818Y43414
X11139Y42664
X15272Y46039
X17789Y41664
X17289Y40664
X16789
X19564Y38114
X21842Y43414
X13059Y53119
X2939Y53219
X2929Y51619
X2939Y50069
Y48494
Y46919
Y45345
X3339Y45239
X3039Y44539
X3339Y43839
X4039Y43539
Y42539
X4840Y42664
X4739Y42239
X5039Y41539
X4739Y40839
X4039Y40539
X3339Y40839
X2914Y40267
X3039Y41539
X3339Y42239
X4739Y43839
X5039Y44539
X4739Y45239
X4039Y45539
X5419Y46119
X5847Y47739
X6107
X6093Y43414
X2914Y38692
X2939Y54793
Y56368
Y57943
Y59518
X3855Y58787
X4559Y56329
X5009Y56309
X5919Y55309
X5239Y53439
X5539Y61219
X5609Y62309
X5239Y62109
X4819
X3999Y62169
X3589Y62139
X2919Y62209
Y62719
X2916Y63639
Y65214
Y66789
Y68364
Y68814
X4166
X6116Y67539
X5416Y66764
X5941Y64789
X6889Y63889
X6639Y63639
X7686Y63794
X7706Y64444
X8541Y65464
X9316Y65314
X9941Y64689
X9916Y63664
X9116
X9766Y62814
X10016Y62064
X11266
X11596Y62944
X11091Y63764
X11164Y64914
X11614Y64864
X12039Y65039
X11839Y64389
X12541Y63489
X13224Y64059
X13566Y63164
X13364Y62339
X13191Y62004
X14341Y64414
X17099Y64059
X17079Y63669
X17359Y63299
X17419Y62869
X18319
X18369Y62299
X18419Y61929
X18379Y61489
X17699Y61879
X17009Y61699
X16602Y61814
X16406Y61456
X16679Y62399
X16789Y63214
X17639Y63839
X18039Y63959
X18349Y64529
X18902Y65514
X19752Y65914
X20039Y67129
X19934Y67812
X18759Y68279
X18029Y68109
X18197Y67189
X17369Y67039
X17777Y65914
X16962Y65284
X16091Y65864
X15641Y68564
X12914Y68164
X12589Y67514
X12114Y67439
X11914Y68389
X12589Y66739
Y66164
X9441Y66614
X8416Y67014
X7514Y66664
X7489Y66089
X8289Y68214
X10189Y67739
X7141Y62039
X6727Y59789
X9299Y58349
X10269Y56349
X10629Y56049
X9964Y54989
X9414
X8157Y55014
X7438Y55008
X6844Y54974
X6369Y55729
X8029Y56069
X11412Y55000
X12214Y54189
X11914Y53889
X13349Y54579
X14639Y54559
X15449
X16599
X17409
X17239Y56199
X18699Y56379
X18629Y55459
X19609Y55609
X19799Y56229
X19919Y54869
X19389Y54889
X20649Y54849
X21129Y54869
X21239Y53389
X20729Y57279
X20689Y58449
X20979Y58689
X21279Y59749
X21319Y60469
X21729Y60529
X20759Y60589
X20739Y60129
X21039Y60969
X20719Y62949
X20869Y63439
X21669Y63689
X21929Y63969
X21749Y65359
X21759Y66128
X21939Y67639
X20699Y68699
X20329Y64529
X20229Y64169
X17509Y58269
X15312Y56326
X14756
X14609Y56889
X13299Y58249
X12509Y56049
X22039Y56339
X22009Y56709
X22729Y56399
X23259Y56179
X23269Y56799
X23309Y57169
X23139Y57709
X23249Y58069
X23269Y58829
X22679Y58839
X22559Y59249
X23209Y59469
X23599Y60279
X23699Y60649
X24432Y60520
X25026Y60409
X25612
X25472Y60859
X25369Y61289
X25389Y62339
X25729Y62149
X24819Y62039
X24919Y62459
X24629Y61669
X23669Y61912
Y62292
X22839Y61999
X22694Y62449
X22219Y61935
X22649Y61179
X22309Y60489
X24039Y59909
X24449Y59319
X25729Y59518
X26669Y60399
X27759Y60409
X28049Y60669
X28079Y59929
X28319Y59609
X28859Y59889
X29379Y60109
X29489Y59669
X29819Y60744
X30588Y60878
X31219Y60289
X31640Y60549
X31329Y59569
X31359Y62409
X30349Y62799
X29129Y62579
X28869Y62849
X28479Y62739
X28599Y63109
X28539Y63769
X28449Y64149
X28379Y64539
X28359Y65399
X29029Y66099
X30209
X31169Y66149
X31259Y65449
X31199Y67829
X30819
X30319
X29949Y67809
X29469
X29099Y67819
X28599Y67809
X28219Y67819
X26649Y67379
X26509Y68459
X26139Y68569
X25109Y68079
X24509Y68149
X24119
X23029Y67829
X22359Y67639
X22769Y67139
X21979Y67039
X22219Y66129
X22199Y65319
X22049Y64679
X23119Y64529
X22479Y63589
X24819Y63599
X24789Y64049
X25444Y63839
X25638Y63508
X27349Y63399
X27116Y63110
X27339Y62560
X28159Y61509
X28692Y61566
X29009Y60929
X26339Y61439
X26749Y64719
X26614Y65214
X26669Y66059
X24199Y66029
X22219Y68569
X32029Y68789
X32179Y63829
X32419Y63339
X32559Y62949
X35312Y62375
X35849Y61079
X35207Y59917
X34449Y60539
X34609Y58389
X35298Y57918
X35789Y58859
X34619Y56239
X35122Y54981
X35839Y55039
X36551Y55000
X37239Y55592
X37529Y55932
X32898Y54985
X31434Y54989
X30750Y55019
X30939Y55689
X29879Y54759
X29169Y54749
X28409
X27469Y54999
X27277Y54239
X25979Y54559
X23919Y54549
X24352Y53602
X24639Y56049
X25039Y55898
X24769Y57089
X26819Y56069
X29039Y55879
X22629Y54919
X22109Y54839
X37764Y55019
X38239Y55614
X38969Y54274
X43164Y54017
Y55592
Y57166
Y58741
Y60316
Y61891
Y63466
X42604Y63504
X42054Y64169
X43164Y65040
Y66615
X41940Y66296
X41405Y66289
X40810Y66308
X39972Y66289
X39239Y66314
X39372Y68529
X40238Y68362
X43164Y68190
X41101Y62362
X40749Y62369
X40406Y62359
X40219Y61779
X40419Y61154
X40744
X41094
X41301Y61762
X41341Y69056
X40238Y69725
X39372Y69568
X40238Y72367
Y73712
X39189Y73089
X41312Y73048
X41539Y74789
Y75289
X42039Y75539
Y75039
Y74539
X43164Y74489
Y76064
Y77639
Y79214
Y80788
X42739Y81339
X43039Y82039
X42739Y82739
X42039Y83039
X41314Y83164
X41339Y82739
X41039Y82039
X41339Y81339
X42039Y81039
X39789
X38539
X38614Y82489
X38164Y83164
X39739
X39789Y82539
X39764Y78764
X39239
X38789
X38539Y79289
X39187Y77048
X39289Y75539
X39789Y75789
X40289
X40199Y76393
X40238Y77664
X41287Y77048
X38189Y74864
X43164Y72914
Y71340
Y69765
X35289Y73489
X34689Y74139
X35264Y74814
X34689Y75464
X34489Y77689
X35589Y77639
X36439Y78389
X33264Y79214
Y79564
Y79939
Y80314
X32839
X32889Y79239
X32539
X31914Y82239
X32039Y82814
X31539
X31039
X30539
X30039
X30036Y83164
X30789
X31289
X31789
X32289
X33015Y83169
X34765
X36590Y83164
X30164Y82239
X28979Y82109
X28614Y82114
X28689Y81364
X28919Y82719
X29289Y82689
X28462Y83164
X26887
X27109Y82629
X26589Y82639
X26339Y81979
X26869Y81969
X26609Y81309
X26079Y81339
X26239Y80514
X25789Y80539
Y79929
X26139
X26289Y79289
X25929Y79319
X27039Y79539
X27239Y78589
X28289Y78140
X28539Y77839
X29289Y77789
X29689Y78364
X29114Y75464
X28289Y75514
Y74764
X27539
Y75514
X26789
Y74764
X29639Y74739
X29589Y73839
X29139Y73289
X28289Y72289
X28859Y70919
X29259Y70929
X29859Y70909
X30269Y70819
X31303Y70609
X31439Y71189
X31499Y69839
X30989Y69879
X30599
X29949Y69779
X29539Y69829
X29059Y69839
X28659Y69899
X28350Y69529
X27799Y69609
X27879Y70679
X28859Y68859
X29519Y68879
X30339Y72264
X31939Y72764
Y73264
X32439
Y72764
X32189Y73014
X31939Y74114
X33859Y72179
X25289Y72164
X24914
X24539
X24039
X23539
X23414Y72539
X24119Y70749
X24639Y70339
X25149Y70539
X25309Y69609
X24279Y69699
X23019Y69519
X22034Y70335
X22289Y76264
Y77014
Y77764
X23039
X23789
X24539
X25289
Y77014
X24539
X23789
X23039
Y76264
X23789
X24539
X25289
X25312Y83164
X23737
X22162
X22289Y82164
X21289Y81164
X20789
X20588Y83164
X19013
X17438
X17789Y82164
X17289Y81164
X16789
X15863Y83164
X14288
X12714
X12539Y82164
X12812Y81165
X13287
X12329Y78961
X11803
X11329
X10803
X9789Y81289
X9505Y81031
X9243Y81329
X9564Y83164
X11139
X7989
X6414
X6539Y72789
X7214Y72464
X7489
X7764
X8039
X9214Y72609
X10039Y72839
X10302Y72852
X11039Y72564
X11539
X12039
X13089Y72939
X14714Y72989
X15039Y72539
X15539
X16064
X16769Y72489
X16989Y73109
X17719Y73949
X18189
X18459Y73589
X18464Y73264
X18459Y72929
X18469Y72589
X17679Y71659
X17849Y70049
X17859Y69499
X16452Y68964
X13116Y69214
X7629Y69129
X7164Y70139
X21239Y69979
X21649Y70079
X21609Y70679
X21099Y70876
X21869Y71539
X21499Y71929
X21331Y72425
X21911Y73070
X21919Y69599
X21529Y69269
X20359Y68969
X19564Y78614
X2914Y79192
Y80767
X3339Y81339
X3039Y82039
X3339Y82739
X4039Y83039
X4840Y83164
X4739Y82739
X5039Y82039
X4739Y81339
X4039Y81039
X2914Y77617
Y76042
Y74468
Y72893
X3265Y72577
X2914Y71489
Y69914
X4207Y70079
X5314Y70743
X5564Y72039
X5614Y72893
X4414Y74792
T03
X38574Y9094
X39324
Y9844
X38574
X38939Y10939
X39549Y10944
X40239Y10939
X40289Y10289
X39919Y10019
X40074Y9094
X41089Y8914
X40339Y12914
X39589
Y12164
X38839
Y12914
X38089Y12164
X38004Y15841
X35664Y11664
X34914Y11914
X34164
Y11164
X34914
X34719Y9879
X34334
X33904Y9884
X33674Y10294
X33354
X33114Y9884
X32689Y9889
X32314
X31574Y9864
Y9114
X32324
X33074
X34014Y9104
X34764
X35514
Y9854
X32914Y11164
X32164
Y11914
X32914
X31089Y11664
X28664
X27914Y11914
X27164
Y11164
X27914
X27789Y9889
X27414
X26974Y9894
X26724Y10274
X26434
X26204Y9894
X25739Y9889
X25364
X25324Y9104
X26074
X27014Y9114
X27764
X28509Y9109
X28514Y9864
X25914Y11164
X25164
Y11914
X25914
X24114Y11664
X24574Y9854
Y9104
X31929Y14509
X21664Y11664
X20664Y11914
X19914
Y11164
X20664
X20389Y9889
X20014
X19574Y9884
X19304Y10264
X19024
X18729Y9879
X18309Y9889
X17939
X17594Y9094
X18344
X16844
Y9844
X17664Y11164
X18414
Y11914
X17664
X16414Y11664
X13914
X13164Y11914
X12414
Y11164
X13164
X12859Y9889
X12514
X12074Y9894
X11804Y10284
X11514
X11234Y9894
X10814Y9889
X10469
X10394Y9094
X9644
Y9844
X9839Y11664
X9089
X10994Y11924
X11364Y11124
X10664Y10934
X11074Y13094
X12234Y9104
X12984
X13734
Y9854
X20014Y9094
X20764
X21514
Y9844
X6664Y11664
Y12164
X5164Y11914
X4414
Y11164
X5164
X5914
X5089Y10339
X5184Y10039
Y9614
Y9314
X4414Y9414
Y10164
X4164Y8664
X4914
Y7914
X4164
X4914Y7164
X6289Y33789
X5789Y34289
Y35039
Y35789
Y36539
Y37289
X6539
X7289
X8039
X8789
Y36539
X8039
X7289
X6539
Y35789
X7289
X8039
X8789
X9539
Y35039
Y34289
X8789Y35039
X8039
X7289
X6539
Y34289
X11039Y35164
Y35914
X12039
X11789Y35164
X12539
X13539Y35039
Y34289
X13789Y33789
X14289
Y34289
Y35039
X15039
X15789
X16539
X17289
X18039
Y35789
Y36539
X17289
Y37289
X17989Y37309
X16539Y37289
X15789
X15039
X15789Y36539
X16539
Y35789
X17289
Y34289
X18039
X17709Y33879
X17289Y33539
X21039
X21539Y33514
Y34264
X21039Y34289
Y35039
X21539Y35014
Y35764
X21039Y35789
X21539Y36514
Y37264
X15789Y35789
X15039
X14289
X13539
X13289Y33289
X22289Y33514
Y34264
Y35014
X23039
Y34264
Y33514
X23414Y32414
X23789Y32039
X24289
X24789
X26039Y32764
X26789
X27539
X28289
Y33514
X28639Y33189
X27539Y33514
X26789
X26039
Y34264
Y35014
Y35764
X26789
X27539
X28289
X26039Y36514
Y37264
X25289Y35014
X24539
X23789
X29222Y31689
X29589Y31639
X32014Y30139
X27739Y27899
X36664Y33164
X36764Y34764
Y35164
X36789Y35589
X36214Y35939
X35789Y36289
X35439Y35164
X34489Y36489
X33989Y36289
X38574Y49594
X39324
Y50344
X38574
X38939Y51439
X39549Y51444
X40239Y51439
X40289Y50789
X39919Y50519
X40074Y49594
X41089Y49414
X39589Y52664
X38839
X38089
X35664Y52164
X34914Y52414
X34164
Y51664
X34914
X34719Y50379
X34334
X33904Y50384
X33674Y50794
X33354
X33114Y50384
X32689Y50389
X32314
X31574Y50364
Y49614
X32324
X33074
X34014Y49604
X34764
X35514
Y50354
X32914Y51664
X32164
Y52414
X32914
X31089Y52164
X28664
X27914Y52414
X27164
Y51664
X27914
X27789Y50389
X27414
X26974Y50394
X26724Y50774
X26434
X26204Y50394
X25739Y50389
X25364
X25324Y49604
X26074
X27014Y49614
X27764
X28509Y49609
X28514Y50364
X25914Y51664
X25164
Y52414
X25914
X24114Y52164
X24574Y50354
Y49604
X24539Y38014
X23789
X23039
X22289
X25289
X26039
X21539
X21120Y37808
X18039Y38039
X17289
X16539
X15789
X15039
X14289
X13539
X12539Y37914
X11789
X11039
X8789Y38039
X8039
X7289
X6539
X6664Y52164
Y52664
X9089Y52164
X9839
X10994Y52424
X11364Y51624
X10664Y51434
X10814Y50389
X10469
X11234Y50394
X11514Y50784
X11804
X12074Y50394
X12514Y50389
X12859
X12984Y49604
X12234
X13734
Y50354
X13164Y51664
X12414
Y52414
X13164
X13914Y52164
X16414
X17664Y52414
Y51664
X18414
Y52414
X19914
Y51664
X20664
Y52414
X21664Y52164
X21514Y50344
Y49594
X20764
X20014
Y50389
X20389
X19574Y50384
X19304Y50764
X19024
X18729Y50379
X18309Y50389
X17939
X17594Y49594
X18344
X16844
Y50344
X10394Y49594
X9644
Y50344
X5184Y50539
X5089Y50839
X5184Y50114
Y49814
X4414Y49914
Y50664
Y51664
Y52414
X5164
Y51664
X5914
X4914Y49164
X4164
Y48414
X4914
Y47664
X5789Y38039
X11074Y53594
X31929Y55009
X27739Y68399
X38004Y56341
X38839Y53414
X39589
X40339
X36664Y73664
X36764Y75264
Y75664
X36789Y76089
X36214Y76439
X35789Y76789
X35439Y75664
X34489Y76989
X33989Y76789
X28289Y76264
X27539
X26789
X26039
Y77014
Y77764
Y78514
X25289
X24539
X23789
X23039
X22289
Y75514
Y74764
Y74014
X23039
Y74764
Y75514
X23789
X24539
X25289
X26039
Y74764
Y74014
X26789
X27539
X28289
X28639Y73689
X28289Y73264
X27539
X26789
X26039
X24789Y72539
X24289
X23789
X23414Y72914
X29222Y72189
X29589Y72139
X32014Y70639
X21539Y74014
X21039Y74039
Y74789
X21539Y74764
Y75514
X21039Y75539
Y76289
X21539Y76264
Y77014
Y77764
Y78514
X21120Y78308
X18039Y78539
X17289
X16539
X15789
X15039
X14289
X13539
X12539Y78414
X11789
X11039
Y76414
Y75664
X11789
X12539
X13539Y75539
Y74789
X13789Y74289
X14289
Y74789
Y75539
X15039
X15789
X16539
X17289
X18039
Y76289
Y77039
X17289
Y77789
X17989Y77809
X16539Y77789
X15789
X15039
X15789Y77039
X16539
Y76289
X17289
Y74789
X18039
X17709Y74379
X17289Y74039
X15789Y76289
X15039
X14289
X13539
X12039Y76414
X9539Y76289
X8789
Y77039
Y77789
Y78539
X8039
X7289
X6539
Y77789
X7289
X8039
Y77039
X7289
X6539
Y76289
X7289
X8039
Y75539
X7289
X6539
Y74789
X9539
Y75539
X8789
X13289Y73789
X6289Y74289
X5789Y74789
Y75539
Y76289
Y77039
Y77789
Y78539
T04
X38939Y18239
X39604Y17739
X40604
X41104Y18239
X40104
X40729Y18979
X32639Y30164
X32614Y30714
X32639Y31264
X32014Y31389
X38939Y58739
X39604Y58239
X40604
X41104Y58739
X40104
X40729Y59479
X32639Y70664
X32614Y71214
X32639Y71764
X32014Y71889
T05
X9364Y22014
Y62514
T06
X36264Y33889
X37664
X28039Y39839
Y41239
X37664Y74389
X36264
X28039Y80339
Y81739
T07
X33289Y23559
X34289
X35289
X36289
X37289
Y24559
X36289
X35289
X34289
X33289
Y27289
X34289
X35289
X36289
X37289
Y28289
X36289
X35289
X34289
X33289
Y64059
X34289
X35289
X36289
X37289
Y65059
X36289
X35289
X34289
X33289
Y67789
X34289
X35289
X36289
X37289
Y68789
X36289
X35289
X34289
X33289
T08
X6106Y25047
Y26031
X6894
Y25047
X13464Y26214
X14464
X15464
Y27214
X14464
X13464
X18414Y29664
X19414
X20414
Y30664
X19414
X18414
X6106Y65547
Y66531
X6894
Y65547
X13464Y66714
X14464
X15464
Y67714
X14464
X13464
X18414Y70164
X19414
X20414
Y71164
X19414
X18414
T09
X40789Y14680
Y16649
Y55180
Y57149
T10
X7039Y3869
X8039
X9039
X10039
X13013
X14013
X15013
X16013
X19013
X20013
X21013
X22013
X24013
X25013
X26013
X27013
X30013
X31013
X32013
X33013
X36013
X37013
X38013
X39013
X42259Y6912
Y7912
X37049Y17009
Y18009
Y20149
Y21149
X33009Y21029
Y20029
X32979Y17909
Y16909
X29589Y17295
Y18295
X28589
X27589
X26589
X25589
Y17295
X26589
X27589
X28589
Y16295
X27589
X26589
X25589
X29589
X18906Y17039
X17906
X16906
X15906
X13789
X12789
X11789
X9789
X8789
X7789
Y19539
X8789
X9789
X11789
X12789
X13789
X15329Y19789
X16329
X17329
X18329
X19329
Y18789
X18329
X17329
X16329
X15329
X5789Y19539
X4789
X3789
Y17039
X4789
X5789
X3399Y32999
Y34779
X9539Y36539
X10539
X11539
X12539
X13539
X14539
X18964Y34739
X19964
X15164Y30414
X14164
X13164
X12164
X11164
X10164
X9164
X8164
Y29414
X9164
X10164
X11164
X12164
X13164
X14164
X15164
X22539Y30789
X23539
X24539
X25539
X26539
X27539
X27789Y36539
X26789
X36789Y36239
X30709Y26059
X29709
Y25059
X30709
Y24059
X29709
Y23059
X30709
X40579Y23039
Y24039
X37789Y36239
X42693Y39201
X42259Y47412
Y48412
X39013Y44369
X38013
X37013
X36013
X33013
X32013
X31013
X30013
X27013
X26013
X25013
X24013
X22013
X21013
X20013
X19013
X16013
X15013
X14013
X13013
X10039
X9039
X8039
X7039
X4727Y38727
X3727
X3789Y57539
X4789
X5789
Y60039
X4789
X3789
X7789
X8789
X9789
X11789
X12789
X13789
X15329Y60289
X16329
X17329
X18329
X19329
Y59289
X18329
X17329
X16329
X15329
X15906Y57539
X16906
X17906
X18906
X13789
X12789
X11789
X9789
X8789
X7789
X25589Y57795
Y58795
X26589
X27589
X28589
X29589
Y57795
X28589
X27589
X26589
Y56795
X25589
X27589
X28589
X29589
X32979Y57409
Y58409
X33009Y60529
Y61529
X37049Y61649
Y60649
Y58509
Y57509
X30709Y63559
Y64559
Y65559
Y66559
X29709
Y65559
Y64559
Y63559
X40579Y63539
Y64539
X37789Y76739
X42693Y79701
X36789Y76739
X27789Y77039
X26789
X26539Y71289
X27539
X25539
X24539
X23539
X22539
X19964Y75239
X18964
X14539Y77039
X13539
X12539
X11539
X10539
X9539
X9164Y70914
X8164
Y69914
X9164
X10164
Y70914
X11164
Y69914
X12164
Y70914
X13164
Y69914
X14164
Y70914
X15164
Y69914
X3399Y73499
Y75279
X3727Y79227
X4727
T11
X40239Y26539
Y28539
Y30539
Y32539
Y34539
Y36539
X25039Y39539
X23039
X21039
X19039
X17039
X15039
X13039
X11039
X9039
X7039
X40239Y67039
Y69039
Y71039
Y73039
Y75039
Y77039
X25039Y80039
X23039
X21039
X19039
X17039
X15039
X13039
X11039
X9039
X7039
T12
X4379Y32509
Y35269
Y73009
Y75769
T13
X5039Y23177
Y27902
Y63677
Y68402
T14
X1329Y1329
X4039Y4039
X42039
X44732Y1358
X42039Y41539
Y44539
X4039
Y41539
X42039Y82039
X4039
X1329Y84717
X44661Y84828
M30
